<svg width="173" height="51" viewBox="0 0 173 51" fill="none" xmlns="http://www.w3.org/2000/svg">
<g clip-path="url(#clip0_7492_4793)">
<path fill-rule="evenodd" clip-rule="evenodd" d="M0.248047 44.2V6.8C0.248047 3.04446 3.2918 0 7.04646 0H165.45C169.204 0 172.248 3.04446 172.248 6.8V44.2C172.248 47.9555 169.204 51 165.45 51H7.04647C3.2918 51 0.248047 47.9555 0.248047 44.2ZM1.26781 44.2V6.8C1.26781 3.60779 3.855 1.02 7.04646 1.02H165.45C168.641 1.02 171.228 3.60779 171.228 6.8V44.2C171.228 47.3922 168.641 49.98 165.45 49.98H7.04647C3.855 49.98 1.26781 47.3922 1.26781 44.2Z" fill="white"/>
<path fill-rule="evenodd" clip-rule="evenodd" d="M21.716 9.3501C15.0818 9.3501 12.6553 11.7768 12.6553 18.4112V32.589C12.6553 39.2234 15.0818 41.6501 21.716 41.6501H35.8827C42.5167 41.6501 44.9478 39.2234 44.9478 32.589V18.4112C44.9478 11.7768 42.5212 9.3501 35.887 9.3501H21.716Z" fill="url(#paint0_linear_7492_4793)"/>
<path fill-rule="evenodd" clip-rule="evenodd" d="M26.741 28.0833H28.0374L27.387 26.5704L26.741 28.0833ZM26.4217 28.8458L26.0371 29.7261H25.1614L27.0236 25.5003H27.7804L29.6351 29.7261H28.7361L28.3564 28.8458H26.4217ZM40.5132 29.723H41.3595V25.5H40.5132V29.723ZM37.1445 27.9089H38.7047V27.1389H37.1445V26.2734H39.4093V25.5031H36.2984V29.7258H39.4908V28.9556H37.1445V27.9089ZM33.7816 28.4078L32.8221 25.5H32.1218L31.1623 28.4078L30.2285 25.5023H29.3154L30.7891 29.7284H31.4989L32.46 26.9525L33.4211 29.7284H34.1372L35.607 25.5023H34.7175L33.7816 28.4078ZM23.8694 27.9206C23.8694 28.608 23.5281 28.9753 22.9083 28.9753C22.2851 28.9753 21.942 28.5973 21.942 27.8912V25.5029H21.0842V27.9206C21.0842 29.1098 21.745 29.7918 22.8966 29.7918C24.0596 29.7918 24.7264 29.0968 24.7264 27.8852V25.5003H23.8694V27.9206ZM19.0377 25.5003H19.895V29.7287H19.0377V28.0114H17.101V29.7287H16.2432V25.5003H17.101V27.2059H19.0377V25.5003Z" fill="white"/>
<path fill-rule="evenodd" clip-rule="evenodd" d="M28.8015 20.1167C25.8335 20.1167 23.4194 17.7018 23.4194 14.7334H24.1797C24.1797 17.2823 26.2532 19.3561 28.8015 19.3561C31.3498 19.3561 33.4234 17.2823 33.4234 14.7334H34.1836C34.1836 17.7018 31.7692 20.1167 28.8015 20.1167Z" fill="white"/>
<path d="M62.1908 38.0798L60.7369 34.0356H55.17L53.7459 38.0798H51.2363L56.6837 23.4571H59.2729L64.7203 38.0798H62.1908ZM60.1095 31.9837L58.7451 28.0192C58.6455 27.7536 58.5061 27.3353 58.3269 26.7642C58.1543 26.1931 58.0347 25.7747 57.9684 25.5091C57.7891 26.3259 57.5269 27.219 57.1816 28.1886L55.8671 31.9837H60.1095Z" fill="white"/>
<path d="M71.6742 38.279C70.28 38.279 69.1978 37.7776 68.4277 36.7749H68.2883C68.3812 37.7046 68.4277 38.269 68.4277 38.4683V42.9806H66.0874V27.063H67.9796C68.0327 27.2688 68.1422 27.7603 68.3082 28.5372H68.4277C69.158 27.4216 70.2534 26.8638 71.714 26.8638C73.0883 26.8638 74.1572 27.3618 74.9207 28.3579C75.6909 29.354 76.0759 30.7519 76.0759 32.5515C76.0759 34.3511 75.6842 35.7556 74.9008 36.7649C74.124 37.7743 73.0485 38.279 71.6742 38.279ZM71.1066 28.7763C70.1771 28.7763 69.4966 29.0485 69.065 29.5931C68.6401 30.1376 68.4277 31.0075 68.4277 32.2028V32.5515C68.4277 33.8929 68.6401 34.8657 69.065 35.47C69.4899 36.0677 70.1837 36.3665 71.1464 36.3665C71.9564 36.3665 72.5804 36.0345 73.0186 35.3704C73.4568 34.7063 73.6759 33.7601 73.6759 32.5315C73.6759 31.2964 73.4568 30.3634 73.0186 29.7325C72.5871 29.095 71.9497 28.7763 71.1066 28.7763Z" fill="white"/>
<path d="M84.0755 38.279C82.6813 38.279 81.5991 37.7776 80.829 36.7749H80.6895C80.7825 37.7046 80.829 38.269 80.829 38.4683V42.9806H78.4887V27.063H80.3808C80.4339 27.2688 80.5435 27.7603 80.7095 28.5372H80.829C81.5593 27.4216 82.6547 26.8638 84.1153 26.8638C85.4896 26.8638 86.5585 27.3618 87.322 28.3579C88.0921 29.354 88.4772 30.7519 88.4772 32.5515C88.4772 34.3511 88.0855 35.7556 87.3021 36.7649C86.5253 37.7743 85.4498 38.279 84.0755 38.279ZM83.5078 28.7763C82.5784 28.7763 81.8979 29.0485 81.4663 29.5931C81.0414 30.1376 80.829 31.0075 80.829 32.2028V32.5515C80.829 33.8929 81.0414 34.8657 81.4663 35.47C81.8912 36.0677 82.585 36.3665 83.5477 36.3665C84.3576 36.3665 84.9817 36.0345 85.4199 35.3704C85.8581 34.7063 86.0772 33.7601 86.0772 32.5315C86.0772 31.2964 85.8581 30.3634 85.4199 29.7325C84.9883 29.095 84.351 28.7763 83.5078 28.7763Z" fill="white"/>
<path d="M97.0942 30.1808H102.452V37.4921C101.576 37.7776 100.732 37.9802 99.9224 38.0997C99.1191 38.2192 98.2494 38.279 97.3133 38.279C95.1091 38.279 93.4095 37.6282 92.2145 36.3267C91.0194 35.0185 90.4219 33.1757 90.4219 30.7983C90.4219 28.4542 91.0958 26.6214 92.4435 25.2999C93.7912 23.9718 95.6469 23.3077 98.0104 23.3077C99.5307 23.3077 100.971 23.5999 102.332 24.1843L101.496 26.1665C100.314 25.622 99.1324 25.3497 97.9506 25.3497C96.3971 25.3497 95.1689 25.8378 94.2659 26.814C93.363 27.7901 92.9116 29.1249 92.9116 30.8183C92.9116 32.5979 93.3166 33.9526 94.1265 34.8823C94.9431 35.8054 96.1149 36.2669 97.6419 36.2669C98.412 36.2669 99.2353 36.1706 100.112 35.978V32.2228H97.0942V30.1808Z" fill="white"/>
<path d="M112.294 38.0798L111.826 36.5458H111.746C111.215 37.2165 110.681 37.6747 110.143 37.9204C109.605 38.1595 108.915 38.279 108.071 38.279C106.989 38.279 106.143 37.9868 105.532 37.4024C104.928 36.8181 104.626 35.9913 104.626 34.9222C104.626 33.7866 105.047 32.93 105.89 32.3522C106.734 31.7745 108.018 31.4591 109.744 31.406L111.647 31.3462V30.7585C111.647 30.0546 111.481 29.53 111.149 29.1847C110.823 28.8327 110.315 28.6567 109.625 28.6567C109.061 28.6567 108.52 28.7397 108.002 28.9058C107.484 29.0718 106.986 29.2677 106.508 29.4935L105.751 27.82C106.349 27.5079 107.002 27.2722 107.713 27.1128C108.423 26.9468 109.094 26.8638 109.725 26.8638C111.125 26.8638 112.181 27.1692 112.891 27.7802C113.608 28.3911 113.967 29.3507 113.967 30.6589V38.0798H112.294ZM108.808 36.486C109.658 36.486 110.339 36.2503 110.85 35.7788C111.368 35.3007 111.627 34.6333 111.627 33.7767V32.8204L110.212 32.8802C109.11 32.92 108.307 33.106 107.802 33.438C107.305 33.7634 107.056 34.2647 107.056 34.9421C107.056 35.4335 107.202 35.8153 107.494 36.0876C107.786 36.3532 108.224 36.486 108.808 36.486Z" fill="white"/>
<path d="M119.268 38.0798H116.927V22.5806H119.268V38.0798Z" fill="white"/>
<path d="M124.658 38.0798H122.318V22.5806H124.658V38.0798Z" fill="white"/>
<path d="M132.518 38.279C130.805 38.279 129.464 37.781 128.495 36.7849C127.532 35.7821 127.051 34.4042 127.051 32.6511C127.051 30.8515 127.499 29.437 128.395 28.4077C129.292 27.3784 130.523 26.8638 132.09 26.8638C133.544 26.8638 134.692 27.3054 135.536 28.1886C136.379 29.0718 136.8 30.287 136.8 31.8343V33.0993H129.461C129.494 34.1685 129.783 34.9919 130.327 35.5696C130.872 36.1407 131.639 36.4263 132.628 36.4263C133.278 36.4263 133.883 36.3665 134.44 36.247C135.005 36.1208 135.609 35.9149 136.253 35.6294V37.5319C135.682 37.8042 135.104 37.9968 134.52 38.1097C133.936 38.2226 133.268 38.279 132.518 38.279ZM132.09 28.6368C131.346 28.6368 130.749 28.8726 130.297 29.344C129.853 29.8155 129.587 30.5028 129.501 31.406H134.5C134.487 30.4962 134.268 29.8089 133.843 29.344C133.418 28.8726 132.834 28.6368 132.09 28.6368Z" fill="white"/>
<path d="M144.74 26.8638C145.212 26.8638 145.6 26.897 145.905 26.9634L145.676 29.1448C145.344 29.0651 144.999 29.0253 144.641 29.0253C143.705 29.0253 142.944 29.3308 142.36 29.9417C141.783 30.5526 141.494 31.3462 141.494 32.3224V38.0798H139.153V27.063H140.986L141.295 29.0054H141.414C141.779 28.3479 142.254 27.8267 142.838 27.4415C143.429 27.0563 144.063 26.8638 144.74 26.8638Z" fill="white"/>
<path d="M145.978 27.063H148.527L150.768 33.3085C151.107 34.1983 151.332 35.0351 151.445 35.8187H151.525C151.585 35.4534 151.694 35.0118 151.853 34.4938C152.013 33.9692 152.856 31.4923 154.383 27.063H156.912L152.202 39.544C151.346 41.8351 149.918 42.9806 147.92 42.9806C147.402 42.9806 146.897 42.9241 146.406 42.8112V40.9585C146.758 41.0382 147.16 41.078 147.611 41.078C148.74 41.078 149.533 40.4239 149.991 39.1157L150.399 38.0798L145.978 27.063Z" fill="white"/>
<path d="M58.6605 14.3694C58.6605 15.5548 58.3634 16.4762 57.7692 17.1336C57.1783 17.791 56.3402 18.1197 55.2547 18.1197C54.1559 18.1197 53.3111 17.7943 52.7202 17.1436C52.1326 16.4895 51.8389 15.5614 51.8389 14.3595C51.8389 13.1575 52.1343 12.2345 52.7252 11.5903C53.3194 10.9462 54.1659 10.6241 55.2646 10.6241C56.3468 10.6241 57.1833 10.9512 57.7742 11.6053C58.3651 12.2594 58.6605 13.1808 58.6605 14.3694ZM53.1036 14.3694C53.1036 15.2659 53.2845 15.9466 53.6464 16.4114C54.0082 16.8729 54.5443 17.1037 55.2547 17.1037C55.9617 17.1037 56.4945 16.8746 56.853 16.4164C57.2149 15.9582 57.3958 15.2759 57.3958 14.3694C57.3958 13.4763 57.2165 12.7989 56.858 12.3374C56.5028 11.8759 55.9717 11.6451 55.2646 11.6451C54.5509 11.6451 54.0115 11.8759 53.6464 12.3374C53.2845 12.7989 53.1036 13.4763 53.1036 14.3694Z" fill="white"/>
<path d="M62.7386 18.0201H61.5485V11.7597H59.4074V10.7387H64.8797V11.7597H62.7386V18.0201Z" fill="white"/>
<path d="M71.5868 18.0201H70.1876L67.1901 14.3296V18.0201H66V10.7387H67.1901V14.2648L70.1378 10.7387H71.4424L68.5046 14.2549L71.5868 18.0201Z" fill="white"/>
<path d="M77.3728 12.94C77.3728 13.7004 77.1238 14.2831 76.6259 14.6882C76.1279 15.0933 75.4192 15.2958 74.4997 15.2958H73.7429V18.0201H72.5528V10.7387H74.6491C75.5586 10.7387 76.2392 10.9246 76.6906 11.2965C77.1454 11.6684 77.3728 12.2162 77.3728 12.94ZM73.7429 14.2947H74.3752C74.986 14.2947 75.4342 14.1885 75.7196 13.976C76.0051 13.7635 76.1479 13.4314 76.1479 12.9799C76.1479 12.5615 76.0201 12.2494 75.7645 12.0436C75.5089 11.8377 75.1105 11.7348 74.5694 11.7348H73.7429V14.2947Z" fill="white"/>
<path d="M85.2899 14.3694C85.2899 15.5548 84.9928 16.4762 84.3986 17.1336C83.8077 17.791 82.9695 18.1197 81.884 18.1197C80.7853 18.1197 79.9404 17.7943 79.3496 17.1436C78.762 16.4895 78.4682 15.5614 78.4682 14.3595C78.4682 13.1575 78.7637 12.2345 79.3545 11.5903C79.9487 10.9462 80.7952 10.6241 81.894 10.6241C82.9762 10.6241 83.8127 10.9512 84.4036 11.6053C84.9944 12.2594 85.2899 13.1808 85.2899 14.3694ZM79.733 14.3694C79.733 15.2659 79.9139 15.9466 80.2757 16.4114C80.6375 16.8729 81.1736 17.1037 81.884 17.1037C82.5911 17.1037 83.1239 16.8746 83.4824 16.4164C83.8442 15.9582 84.0251 15.2759 84.0251 14.3694C84.0251 13.4763 83.8459 12.7989 83.4874 12.3374C83.1322 11.8759 82.6011 11.6451 81.894 11.6451C81.1803 11.6451 80.6409 11.8759 80.2757 12.3374C79.9139 12.7989 79.733 13.4763 79.733 14.3694Z" fill="white"/>
<path d="M86.8534 10.7387H87.9439V14.5238C87.9439 14.9189 87.9339 15.319 87.914 15.7241C87.8941 16.1259 87.8791 16.3981 87.8692 16.5409H87.914L91.6335 10.7387H93.0227V18.0201H91.9273V14.2648C91.9273 13.6904 91.9588 12.9932 92.0219 12.173H91.9821L88.2476 18.0201H86.8534V10.7387ZM89.9754 10.156C89.2717 10.156 88.7555 10.0298 88.4268 9.77744C88.1015 9.52178 87.9206 9.09678 87.8841 8.50244H88.9447C88.9646 8.7415 89.0094 8.92744 89.0791 9.06025C89.1522 9.19307 89.2551 9.28936 89.3879 9.34912C89.524 9.40557 89.7298 9.43379 90.0053 9.43379C90.3306 9.43379 90.5779 9.3624 90.7472 9.21963C90.9165 9.07354 91.0194 8.83447 91.0559 8.50244H92.1364C92.0866 9.07354 91.8858 9.49189 91.5339 9.75752C91.1821 10.0231 90.6626 10.156 89.9754 10.156Z" fill="white"/>
<path d="M97.4444 18.0201H96.2543V11.7597H94.1132V10.7387H99.5855V11.7597H97.4444V18.0201Z" fill="white"/>
<path d="M104.824 18.0201H100.706V10.7387H104.824V11.7447H101.896V13.727H104.639V14.723H101.896V17.0091H104.824V18.0201Z" fill="white"/>
<path d="M109.051 10.7387H111.212C112.215 10.7387 112.938 10.8848 113.383 11.177C113.831 11.4691 114.055 11.9307 114.055 12.5615C114.055 12.9865 113.946 13.3401 113.727 13.6224C113.508 13.9046 113.192 14.0822 112.781 14.1553V14.2051C113.292 14.3014 113.667 14.4923 113.906 14.7778C114.148 15.0601 114.269 15.4436 114.269 15.9283C114.269 16.5824 114.04 17.0954 113.582 17.4673C113.128 17.8358 112.494 18.0201 111.68 18.0201H109.051V10.7387ZM110.241 13.7469H111.386C111.884 13.7469 112.248 13.6688 112.477 13.5128C112.706 13.3534 112.82 13.0845 112.82 12.706C112.82 12.364 112.696 12.1166 112.447 11.9639C112.201 11.8111 111.81 11.7348 111.272 11.7348H110.241V13.7469ZM110.241 14.7131V17.019H111.506C112.004 17.019 112.379 16.9244 112.631 16.7352C112.887 16.5426 113.015 16.2404 113.015 15.8287C113.015 15.4502 112.885 15.1696 112.626 14.987C112.367 14.8044 111.974 14.7131 111.446 14.7131H110.241Z" fill="white"/>
</g>
<defs>
<linearGradient id="paint0_linear_7492_4793" x1="28.8015" y1="9.3501" x2="28.8015" y2="41.6501" gradientUnits="userSpaceOnUse">
<stop stop-color="#FB6361"/>
<stop offset="1" stop-color="#ED3E45"/>
</linearGradient>
<clipPath id="clip0_7492_4793">
<rect width="172" height="51" fill="white" transform="translate(0.248047)"/>
</clipPath>
</defs>
</svg>
