<svg width="173" height="51" viewBox="0 0 173 51" fill="none" xmlns="http://www.w3.org/2000/svg">
<g clip-path="url(#clip0_7492_4790)">
<path d="M41.9402 25.8837C41.9539 24.8195 42.2366 23.776 42.7619 22.8505C43.2873 21.9249 44.0382 21.1472 44.9448 20.5898C44.3688 19.7672 43.609 19.0903 42.7257 18.6127C41.8423 18.1352 40.8598 17.8702 39.8561 17.8388C37.7151 17.6141 35.6395 19.1199 34.5484 19.1199C33.4363 19.1199 31.7565 17.8611 29.9476 17.8983C28.7776 17.9361 27.6373 18.2763 26.6379 18.8859C25.6384 19.4954 24.8139 20.3534 24.2447 21.3763C21.7788 25.6455 23.6181 31.9199 25.9802 35.3708C27.162 37.0606 28.5432 38.9481 30.3504 38.8812C32.1189 38.8079 32.7794 37.7535 34.9141 37.7535C37.029 37.7535 37.6487 38.8812 39.4926 38.8386C41.3903 38.8078 42.5859 37.1413 43.7262 35.4355C44.5754 34.2315 45.2288 32.9007 45.6622 31.4926C44.5597 31.0263 43.6189 30.2458 42.957 29.2483C42.2951 28.2509 41.9415 27.0807 41.9402 25.8837Z" fill="white"/>
<path d="M38.4572 15.5692C39.4919 14.3271 40.0017 12.7305 39.8782 11.1187C38.2974 11.2847 36.8372 12.0402 35.7886 13.2346C35.2758 13.8182 34.8831 14.497 34.6329 15.2324C34.3827 15.9678 34.2799 16.7453 34.3303 17.5204C35.121 17.5285 35.9032 17.3572 36.6181 17.0192C37.3329 16.6812 37.9618 16.1854 38.4572 15.5692Z" fill="white"/>
<path d="M64.295 34.6032H58.2599L56.8106 38.8827H54.2544L59.9707 23.0498H62.6265L68.3428 38.8827H65.743L64.295 34.6032ZM58.885 32.6285H63.6687L61.3105 25.6832H61.2445L58.885 32.6285Z" fill="white"/>
<path d="M80.688 33.1116C80.688 36.6987 78.7681 39.0034 75.8707 39.0034C75.1368 39.0418 74.4068 38.8727 73.7645 38.5156C73.1222 38.1584 72.5934 37.6276 72.2387 36.9838H72.1839V42.7014H69.8145V27.3392H72.108V29.2592H72.1516C72.5225 28.6185 73.0602 28.0904 73.7075 27.7311C74.3547 27.3717 75.0872 27.1946 75.8271 27.2184C78.7568 27.2184 80.688 29.5343 80.688 33.1116ZM78.2526 33.1116C78.2526 30.7745 77.0448 29.238 75.2021 29.238C73.3917 29.238 72.174 30.8069 72.174 33.1116C72.174 35.4374 73.3917 36.9951 75.2021 36.9951C77.0449 36.9951 78.2526 35.4698 78.2526 33.1116Z" fill="white"/>
<path d="M93.3931 33.1115C93.3931 36.6987 91.4732 39.0034 88.5758 39.0034C87.8418 39.0418 87.1119 38.8727 86.4696 38.5156C85.8272 38.1584 85.2985 37.6275 84.9438 36.9838H84.889V42.7014H82.5195V27.3392H84.813V29.2592H84.8566C85.2276 28.6185 85.7653 28.0904 86.4125 27.7311C87.0597 27.3717 87.7923 27.1946 88.5322 27.2184C91.462 27.2184 93.3931 29.5343 93.3931 33.1115ZM90.9577 33.1115C90.9577 30.7745 89.7499 29.238 87.9072 29.238C86.0968 29.238 84.879 30.8068 84.879 33.1115C84.879 35.4374 86.0968 36.9951 87.9072 36.9951C89.7499 36.9951 90.9577 35.4698 90.9577 33.1115H90.9577Z" fill="white"/>
<path d="M101.79 34.4711C101.966 36.0412 103.491 37.0721 105.575 37.0721C107.573 37.0721 109.009 36.0411 109.009 34.6254C109.009 33.3965 108.143 32.6606 106.091 32.1564L104.039 31.662C101.132 30.9598 99.7819 29.6001 99.7819 27.3938C99.7819 24.662 102.163 22.7856 105.543 22.7856C108.889 22.7856 111.182 24.662 111.259 27.3938H108.867C108.724 25.8138 107.418 24.86 105.509 24.86C103.601 24.86 102.295 25.825 102.295 27.2295C102.295 28.3488 103.129 29.0075 105.169 29.5117L106.914 29.94C110.162 30.7083 111.512 32.0132 111.512 34.329C111.512 37.2911 109.153 39.1464 105.4 39.1464C101.889 39.1464 99.5179 37.3347 99.3647 34.471L101.79 34.4711Z" fill="white"/>
<path d="M116.626 24.6074V27.3392H118.821V29.2156H116.626V35.5793C116.626 36.568 117.065 37.0287 118.03 37.0287C118.291 37.0241 118.551 37.0058 118.81 36.9738V38.839C118.376 38.9201 117.935 38.9568 117.494 38.9486C115.157 38.9486 114.245 38.0708 114.245 35.8321V29.2156H112.567V27.3392H114.245V24.6074H116.626Z" fill="white"/>
<path d="M120.092 33.1115C120.092 29.4796 122.231 27.1973 125.567 27.1973C128.914 27.1973 131.043 29.4795 131.043 33.1115C131.043 36.7535 128.925 39.0258 125.567 39.0258C122.21 39.0258 120.092 36.7535 120.092 33.1115ZM128.629 33.1115C128.629 30.6201 127.487 29.1496 125.567 29.1496C123.647 29.1496 122.507 30.6313 122.507 33.1115C122.507 35.613 123.647 37.0722 125.567 37.0722C127.487 37.0722 128.629 35.613 128.629 33.1115H128.629Z" fill="white"/>
<path d="M132.997 27.3391H135.256V29.3039H135.311C135.464 28.6902 135.824 28.1479 136.329 27.7681C136.835 27.3883 137.456 27.1942 138.088 27.2183C138.361 27.2174 138.633 27.247 138.9 27.3067V29.523C138.555 29.4177 138.195 29.3693 137.835 29.3798C137.491 29.3659 137.148 29.4266 136.829 29.5577C136.511 29.6889 136.224 29.8875 135.99 30.1398C135.755 30.3921 135.578 30.6922 135.47 31.0194C135.363 31.3467 135.327 31.6934 135.366 32.0356V38.8825H132.997L132.997 27.3391Z" fill="white"/>
<path d="M149.824 35.4922C149.505 37.5877 147.465 39.0258 144.854 39.0258C141.495 39.0258 139.411 36.7759 139.411 33.1663C139.411 29.5455 141.507 27.1973 144.754 27.1973C147.948 27.1973 149.956 29.3911 149.956 32.8912V33.703H141.803V33.8462C141.765 34.271 141.819 34.699 141.959 35.1016C142.1 35.5043 142.324 35.8725 142.618 36.1818C142.911 36.491 143.268 36.7343 143.663 36.8953C144.057 37.0563 144.482 37.1315 144.908 37.1158C145.468 37.1683 146.03 37.0386 146.51 36.7461C146.991 36.4535 147.364 36.0138 147.574 35.4922L149.824 35.4922ZM141.814 32.047H147.585C147.607 31.665 147.549 31.2827 147.415 30.9242C147.282 30.5657 147.076 30.2386 146.81 29.9635C146.544 29.6884 146.224 29.4712 145.87 29.3256C145.516 29.1799 145.136 29.109 144.754 29.1172C144.368 29.1149 143.986 29.1891 143.629 29.3354C143.271 29.4816 142.947 29.6972 142.674 29.9696C142.4 30.242 142.184 30.5658 142.036 30.9223C141.889 31.2789 141.813 31.6611 141.814 32.047V32.047Z" fill="white"/>
</g>
<rect x="0.624023" y="0.5" width="171.124" height="49.9997" rx="3.5" stroke="white"/>
<path d="M61.6982 17.4575C62.3792 17.4575 62.9723 17.3399 63.4777 17.1045C63.9831 16.8691 64.375 16.54 64.6534 16.1172C64.9318 15.69 65.071 15.1887 65.071 14.6133C65.071 14.0292 64.936 13.5585 64.6662 13.201C64.4007 12.8392 64.0324 12.5842 63.5612 12.436C63.9082 12.2442 64.1908 11.9587 64.4092 11.5795C64.632 11.2003 64.7433 10.7557 64.7433 10.2457C64.7433 9.66592 64.6041 9.18425 64.3257 8.80067C64.0516 8.41708 63.6876 8.12939 63.2336 7.93759C62.7839 7.7458 62.2978 7.6499 61.7753 7.6499C61.0472 7.6499 60.4176 7.8199 59.8865 8.1599C59.3554 8.4999 58.9443 8.93579 58.653 9.46759L59.424 10.0495C59.6638 9.60053 59.9722 9.2431 60.3491 8.9772C60.726 8.70695 61.1928 8.57182 61.7496 8.57182C62.3363 8.57182 62.8139 8.7222 63.1822 9.02297C63.5548 9.31938 63.7411 9.73348 63.7411 10.2653C63.7411 10.7709 63.5655 11.1741 63.2143 11.4749C62.8631 11.7713 62.3813 11.9326 61.7688 11.9587C61.6832 11.9631 61.5675 11.9674 61.4219 11.9718C61.2763 11.9718 61.1393 11.9718 61.0108 11.9718C60.8866 11.9718 60.8073 11.9718 60.7731 11.9718V12.9003C60.8116 12.9003 60.8523 12.9003 60.8951 12.9003C60.938 12.9003 61.0258 12.9024 61.1585 12.9068C61.2956 12.9112 61.5183 12.9199 61.8267 12.933C62.2421 12.946 62.619 13.0027 62.9573 13.103C63.2957 13.2032 63.5655 13.371 63.7668 13.6064C63.9681 13.8374 64.0688 14.1665 64.0688 14.5937C64.0688 15.1778 63.8675 15.6486 63.4649 16.006C63.0623 16.3591 62.4841 16.5356 61.7303 16.5356C61.0065 16.5356 60.4304 16.3787 60.0022 16.0649C59.5739 15.751 59.2826 15.3718 59.1284 14.9272L58.2676 15.4372C58.4132 15.7946 58.6338 16.1281 58.9293 16.4376C59.2291 16.7427 59.6081 16.989 60.0664 17.1764C60.5247 17.3638 61.0686 17.4575 61.6982 17.4575Z" fill="white"/>
<path d="M68.3882 17.4575C69.6003 17.4575 70.4804 17.002 71.0286 16.091V17.2614H71.8702V12.8741C71.8702 12.6126 71.8574 12.3554 71.8317 12.1026C71.806 11.8498 71.7503 11.6209 71.6646 11.416C71.4805 10.9583 71.1657 10.6096 70.7203 10.3699C70.2791 10.1258 69.7416 10.0037 69.1078 10.0037C68.3454 10.0037 67.7244 10.1781 67.2447 10.5268C66.765 10.8755 66.4438 11.3659 66.281 11.998L67.1997 12.2726C67.3325 11.8018 67.5616 11.4574 67.8871 11.2395C68.2169 11.0216 68.6195 10.9126 69.0949 10.9126C69.7545 10.9126 70.2256 11.0695 70.5083 11.3833C70.7909 11.6928 70.9365 12.1658 70.9451 12.8022C70.6367 12.8458 70.2963 12.8915 69.9236 12.9395C69.5553 12.9874 69.1848 13.0419 68.8122 13.103C68.4396 13.164 68.097 13.2337 67.7843 13.3122C67.2661 13.4517 66.8421 13.6849 66.5123 14.0118C66.1825 14.3344 66.0176 14.7855 66.0176 15.3652C66.0176 15.7401 66.1054 16.0867 66.281 16.4049C66.4566 16.7231 66.72 16.9781 67.0712 17.1699C67.4267 17.3616 67.8657 17.4575 68.3882 17.4575ZM68.4974 16.6272C68.1248 16.6272 67.825 16.5661 67.598 16.4441C67.3753 16.3177 67.2126 16.1586 67.1098 15.9668C67.0113 15.7706 66.962 15.5701 66.962 15.3652C66.962 14.9817 67.0884 14.694 67.3411 14.5022C67.5938 14.3104 67.8679 14.1709 68.1634 14.0837C68.5446 13.9791 68.9878 13.8941 69.4932 13.8287C69.9986 13.7633 70.4783 13.7023 70.9323 13.6456C70.9323 13.8069 70.9258 13.9922 70.913 14.2014C70.9044 14.4063 70.8809 14.5959 70.8423 14.7703C70.7524 15.302 70.504 15.7445 70.0971 16.0976C69.6945 16.4506 69.1613 16.6272 68.4974 16.6272Z" fill="white"/>
<path d="M73.5427 17.2614H74.487V11.1218H78.2967V10.1999H73.5427V17.2614Z" fill="white"/>
<path d="M79.5089 20.3998H80.4597V16.4179C80.7081 16.7405 81.0143 16.9955 81.3783 17.1829C81.7424 17.366 82.16 17.4575 82.6311 17.4575C83.2821 17.4575 83.8367 17.2941 84.295 16.9672C84.7533 16.6359 85.1023 16.1891 85.3422 15.6268C85.5863 15.0645 85.7084 14.4303 85.7084 13.7241C85.7084 13.0223 85.5863 12.3903 85.3422 11.828C85.1023 11.2657 84.7554 10.821 84.3014 10.4941C83.8474 10.1672 83.3035 10.0037 82.6696 10.0037C82.1557 10.0037 81.7038 10.1084 81.3141 10.3176C80.9286 10.5225 80.6096 10.808 80.3569 11.1741V10.1999H79.5089V20.3998ZM82.5347 16.5618C82.0422 16.5618 81.6353 16.4397 81.3141 16.1956C80.9929 15.9472 80.753 15.6093 80.5946 15.1822C80.4361 14.755 80.3569 14.269 80.3569 13.7241C80.3569 12.8915 80.5346 12.2137 80.8901 11.6907C81.2499 11.1632 81.7916 10.8995 82.5155 10.8995C83.0123 10.8995 83.4213 11.0237 83.7425 11.2722C84.068 11.5207 84.31 11.8585 84.4685 12.2856C84.6269 12.7128 84.7062 13.1923 84.7062 13.7241C84.7062 14.2603 84.6248 14.7419 84.462 15.1691C84.3036 15.5963 84.0637 15.9363 83.7425 16.1891C83.4213 16.4376 83.0187 16.5618 82.5347 16.5618Z" fill="white"/>
<path d="M87.8575 20.3998H88.8019L92.528 10.1999H91.5643L89.4636 16.006L87.1829 10.1999H86.1807L89.001 17.2418L87.8575 20.3998Z" fill="white"/>
<path d="M96.1429 17.4575C96.6311 17.4575 97.0701 17.3704 97.4599 17.196C97.8539 17.0173 98.1644 16.7667 98.3914 16.4441C98.6227 16.1172 98.7383 15.7292 98.7383 15.2802C98.7383 14.9403 98.6634 14.6111 98.5135 14.2929C98.3636 13.9704 98.1323 13.7306 97.8196 13.5737C98.0552 13.3906 98.2372 13.1727 98.3657 12.9199C98.4942 12.6627 98.5584 12.3685 98.5584 12.0372C98.5584 11.61 98.4514 11.246 98.2372 10.9453C98.0274 10.6401 97.7404 10.4069 97.3764 10.2457C97.0166 10.0844 96.614 10.0037 96.1686 10.0037C95.6032 10.0037 95.0872 10.1062 94.6203 10.311C94.1578 10.5116 93.753 10.8058 93.4061 11.1937L94.01 11.841C94.2627 11.5708 94.5711 11.3507 94.9351 11.1807C95.2992 11.0063 95.6868 10.9191 96.0979 10.9191C96.5048 10.9191 96.8539 11.0172 97.1451 11.2133C97.4406 11.4051 97.5884 11.7015 97.5884 12.1026C97.5884 12.4862 97.4428 12.7651 97.1515 12.9395C96.8603 13.1138 96.4727 13.201 95.9887 13.201H95.1792V14.0249H96.0016C96.5926 14.0249 97.0359 14.112 97.3314 14.2864C97.6269 14.4564 97.7747 14.7572 97.7747 15.1887C97.7747 15.6072 97.6205 15.9363 97.3121 16.176C97.0038 16.4158 96.5947 16.5356 96.0851 16.5356C95.1086 16.5356 94.3612 16.091 93.843 15.2018L93.0849 15.6922C93.3847 16.2458 93.7937 16.6795 94.312 16.9933C94.8345 17.3028 95.4448 17.4575 96.1429 17.4575Z" fill="white"/>
<path d="M105.668 10.1999H104.878L101.068 15.6529V10.1999H100.15V17.2614H100.946L104.749 11.7626V17.2614H105.668V10.1999Z" fill="white"/>
<path d="M109.354 17.2614H110.298V11.0891H112.758V10.1999H106.893V11.0891H109.354V17.2614Z" fill="white"/>
<path d="M116.919 17.4575C117.592 17.4575 118.193 17.2897 118.725 16.9541C119.26 16.6184 119.665 16.1411 119.939 15.5222L119.059 15.1756C118.617 16.0823 117.892 16.5356 116.881 16.5356C116.187 16.5356 115.643 16.3155 115.249 15.8752C114.859 15.435 114.645 14.8095 114.607 13.9987H120.074C120.108 12.7521 119.84 11.7757 119.271 11.0695C118.705 10.359 117.909 10.0037 116.881 10.0037C116.213 10.0037 115.632 10.1563 115.14 10.4614C114.652 10.7666 114.272 11.2003 114.003 11.7626C113.733 12.3249 113.598 12.9918 113.598 13.7633C113.598 14.5087 113.733 15.1582 114.003 15.7118C114.277 16.2654 114.662 16.6947 115.159 16.9999C115.66 17.305 116.247 17.4575 116.919 17.4575ZM116.906 10.8864C118.213 10.8864 118.939 11.6558 119.084 13.1945H114.626C114.699 12.4491 114.93 11.8781 115.32 11.4814C115.709 11.0848 116.238 10.8864 116.906 10.8864Z" fill="white"/>
<path d="M124.065 17.2614H127.297C127.472 17.2614 127.659 17.2549 127.856 17.2418C128.057 17.2287 128.243 17.1982 128.414 17.1502C128.796 17.0369 129.1 16.8277 129.327 16.5226C129.554 16.2174 129.667 15.8229 129.667 15.3391C129.667 14.6417 129.415 14.1382 128.909 13.8287C128.755 13.7328 128.607 13.6718 128.466 13.6456C128.624 13.5759 128.77 13.4669 128.903 13.3187C129.04 13.1749 129.145 13.0049 129.218 12.8087C129.295 12.6082 129.333 12.3815 129.333 12.1287C129.333 11.6754 129.213 11.2896 128.973 10.9714C128.738 10.6489 128.425 10.4331 128.035 10.3241C127.856 10.2762 127.661 10.2435 127.451 10.226C127.245 10.2086 127.07 10.1999 126.924 10.1999H124.065V17.2614ZM125.016 13.3187V11.0237H126.828C126.875 11.0237 126.986 11.0281 127.162 11.0368C127.342 11.0455 127.509 11.0782 127.663 11.1349C127.89 11.209 128.059 11.3419 128.17 11.5337C128.286 11.7212 128.344 11.9369 128.344 12.181C128.344 12.4077 128.29 12.6169 128.183 12.8087C128.08 13.0005 127.918 13.1356 127.695 13.2141C127.588 13.2533 127.466 13.2817 127.329 13.2991C127.192 13.3122 127.068 13.3187 126.956 13.3187H125.016ZM125.016 16.4441V14.1426H127.117C127.202 14.1426 127.299 14.1447 127.406 14.1491C127.517 14.1535 127.62 14.1665 127.714 14.1883C128.005 14.2319 128.241 14.354 128.421 14.5545C128.601 14.7506 128.691 15.0035 128.691 15.3129C128.691 15.5483 128.631 15.7663 128.511 15.9668C128.395 16.1629 128.211 16.2937 127.958 16.3591C127.851 16.3896 127.729 16.4114 127.592 16.4245C127.455 16.4376 127.342 16.4441 127.252 16.4441H125.016Z" fill="white"/>
<defs>
<clipPath id="clip0_7492_4790">
<rect x="0.124023" width="172.124" height="50.9997" rx="4" fill="white"/>
</clipPath>
</defs>
</svg>
