<svg width="48" height="48" viewBox="0 0 48 48" fill="none" xmlns="http://www.w3.org/2000/svg">
    <path d="M41.8402 4.76C39.5948 4.25713 37.3011 4.00227 35.0002 4C32.8271 3.86202 30.6483 4.15499 28.5889 4.86205C26.5295 5.56912 24.6302 6.67632 23.0002 8.12C20.8535 10.2667 18.7268 12.4067 16.6202 14.54C14.2002 14.28 8.46016 14.14 4.62016 18.02C4.24766 18.3947 4.03857 18.9016 4.03857 19.43C4.03857 19.9584 4.24766 20.4653 4.62016 20.84L27.2202 43.48C27.5949 43.8525 28.1018 44.0616 28.6302 44.0616C29.1585 44.0616 29.6654 43.8525 30.0402 43.48C33.9402 39.48 33.8202 33.84 33.5802 31.48L40.0002 25.08C46.3802 18.7 43.4802 6.72 43.3602 6.22C43.2678 5.85927 43.0766 5.53148 42.8081 5.27353C42.5395 5.01559 42.2043 4.83773 41.8402 4.76ZM37.1202 22.26L30.0002 29.34C29.7696 29.5728 29.5997 29.8588 29.5056 30.1726C29.4114 30.4865 29.3958 30.8187 29.4602 31.14C29.8922 33.8156 29.5162 36.5593 28.3802 39.02L9.04016 19.64C11.5399 18.4895 14.3342 18.1402 17.0402 18.64C17.3603 18.6817 17.6858 18.6452 17.9888 18.5338C18.2918 18.4223 18.5633 18.2392 18.7802 18C18.7802 18 21.5802 15.1 25.8002 10.88C28.395 8.79623 31.6803 7.76779 35.0002 8C36.5617 8.00773 38.1201 8.1415 39.6602 8.4C40.1402 11.26 40.9002 18.48 37.1202 22.26Z" fill="#0E46A4"/>
    <path d="M31.4601 20.6001C33.6692 20.6001 35.4601 18.8092 35.4601 16.6001C35.4601 14.391 33.6692 12.6001 31.4601 12.6001C29.2509 12.6001 27.4601 14.391 27.4601 16.6001C27.4601 18.8092 29.2509 20.6001 31.4601 20.6001Z" fill="#0E46A4"/>
    <path d="M10.0001 32C6.00012 34 6.00012 42 6.00012 42C9.70226 41.8944 13.2464 40.4767 16.0001 38L10.0001 32Z" fill="#0E46A4"/>
</svg>
