<svg width="30" height="30" viewBox="0 0 30 30" fill="none" xmlns="http://www.w3.org/2000/svg">
<path d="M23.75 2.5127H7.5C5.9925 2.5127 3.75 3.51145 3.75 6.2627V23.7627C3.75 26.5139 5.9925 27.5127 7.5 27.5127H26.25V25.0127H7.515C6.9375 24.9977 6.25 24.7689 6.25 23.7627C6.25 23.6364 6.26125 23.5239 6.28 23.4214C6.42 22.7027 7.00875 22.5252 7.51375 22.5127H25C25.0225 22.5127 25.0387 22.5014 25.0612 22.5002H26.25V5.0127C26.25 3.63395 25.1287 2.5127 23.75 2.5127ZM23.75 20.0127H6.25V6.2627C6.25 5.2552 6.9375 5.0277 7.5 5.0127H16.25V13.7627L18.75 12.5127L21.25 13.7627V5.0127H23.75V20.0127Z" fill="#0E46A4"/>
</svg>
