<svg width="24" height="24" viewBox="0 0 24 24" fill="none" xmlns="http://www.w3.org/2000/svg">
<path d="M12 0C18.6274 0 24 5.37258 24 12C24 18.6274 18.6274 24 12 24C5.37258 24 0 18.6274 0 12C0 5.37258 5.37258 0 12 0ZM17.0376 8.46967C16.7773 8.20932 16.3731 8.18039 16.0808 8.38289L15.977 8.46967L10.5 13.947L8.03033 11.477L7.92646 11.3902C7.63416 11.1877 7.23002 11.2166 6.96967 11.477C6.70932 11.7373 6.68039 12.1415 6.88289 12.4338L6.96967 12.5376L9.96967 15.5376L10.0735 15.6244C10.3293 15.8016 10.6707 15.8016 10.9265 15.6244L11.0303 15.5376L17.0376 9.53033L17.1244 9.42646C17.3269 9.13416 17.298 8.73002 17.0376 8.46967Z" fill="white"/>
</svg>
