<svg width="40" height="40" viewBox="0 0 40 40" fill="none" xmlns="http://www.w3.org/2000/svg">
<g clip-path="url(#clip0_461_38269)">
<path d="M23.6645 20.0329L39.24 4.45718C40.2535 3.44403 40.2535 1.80586 39.24 0.792824C38.2269 -0.220329 36.5887 -0.220329 35.5757 0.792824L19.9998 16.3684L4.42459 0.792824C3.41095 -0.220329 1.77338 -0.220329 0.760229 0.792824C-0.25341 1.80598 -0.25341 3.44403 0.760229 4.45718L16.3353 20.0329L0.760351 35.6085C-0.253288 36.6217 -0.253288 38.2598 0.760351 39.2729C1.00068 39.5139 1.28625 39.705 1.60068 39.8353C1.9151 39.9656 2.25218 40.0325 2.59253 40.0321C3.25582 40.0321 3.91935 39.7782 4.42471 39.2729L19.9998 23.6973L35.5757 39.2729C35.816 39.5138 36.1016 39.7049 36.416 39.8352C36.7304 39.9655 37.0675 40.0324 37.4078 40.0321C38.0711 40.0321 38.7346 39.7782 39.24 39.2729C40.2535 38.2597 40.2535 36.6217 39.24 35.6085L23.6645 20.0329Z" fill="#6C7FA4"/>
</g>
<defs>
<clipPath id="clip0_461_38269">
<rect width="40" height="40" fill="white"/>
</clipPath>
</defs>
</svg>
