<svg width="173" height="51" viewBox="0 0 173 51" fill="none" xmlns="http://www.w3.org/2000/svg">
<g clip-path="url(#clip0_7492_4787)">
<path d="M165.749 1.01974C167.169 1.02138 168.53 1.58613 169.534 2.59008C170.538 3.59404 171.102 4.95521 171.104 6.37497V44.6248C171.102 46.0445 170.538 47.4057 169.534 48.4096C168.53 49.4136 167.169 49.9783 165.749 49.98H6.37497C4.9552 49.9784 3.59405 49.4136 2.59015 48.4097C1.58624 47.4057 1.02156 46.0445 1.01999 44.6248V6.37497C1.02154 4.95519 1.58621 3.594 2.59012 2.59005C3.59403 1.58609 4.95519 1.02135 6.37497 1.01974H165.749ZM165.749 0H6.37497C4.68574 0.00494455 3.06712 0.678179 1.87265 1.87265C0.678179 3.06712 0.00494455 4.68574 0 6.37497L0 44.6248C0.00494455 46.314 0.678179 47.9326 1.87265 49.1271C3.06712 50.3216 4.68574 50.9948 6.37497 50.9997H165.749C167.438 50.9948 169.057 50.3216 170.251 49.1271C171.446 47.9326 172.119 46.314 172.124 44.6248V6.37497C172.119 4.68574 171.446 3.06712 170.251 1.87265C169.057 0.678179 167.438 0.00494455 165.749 0Z" fill="white"/>
<path d="M86.8728 27.7333C85.8011 27.7374 84.7547 28.0589 83.8657 28.6572C82.9766 29.2555 82.2847 30.1039 81.8775 31.0951C81.4702 32.0864 81.3657 33.176 81.5773 34.2266C81.7888 35.2772 82.3069 36.2415 83.0661 36.9978C83.8254 37.7541 84.7916 38.2686 85.843 38.4761C86.8944 38.6837 87.9836 38.5751 88.9733 38.1641C89.963 37.753 90.8087 37.0579 91.4037 36.1666C91.9986 35.2753 92.3161 34.2276 92.3161 33.156C92.3266 32.4392 92.1929 31.7276 91.9228 31.0636C91.6527 30.3996 91.2518 29.7967 90.744 29.2908C90.2361 28.7848 89.6317 28.3862 88.9666 28.1187C88.3016 27.8511 87.5895 27.7201 86.8728 27.7333ZM86.8728 36.4425C86.2128 36.4896 85.554 36.3369 84.982 36.0042C84.4101 35.6716 83.9515 35.1745 83.666 34.5776C83.3806 33.9807 83.2815 33.3117 83.3815 32.6576C83.4816 32.0036 83.7763 31.3949 84.2272 30.9107C84.6781 30.4265 85.2644 30.0892 85.9096 29.9429C86.5549 29.7965 87.2292 29.8478 87.8449 30.0901C88.4606 30.3323 88.9891 30.7544 89.3616 31.3012C89.734 31.848 89.9333 32.4943 89.9333 33.156C89.9533 33.574 89.8895 33.9918 89.7456 34.3847C89.6018 34.7777 89.3807 35.1379 89.0955 35.4442C88.8104 35.7504 88.4668 35.9965 88.0851 36.168C87.7033 36.3394 87.2911 36.4328 86.8728 36.4425ZM74.9983 27.7333C73.9266 27.7374 72.8802 28.0588 71.9911 28.6571C71.102 29.2555 70.4101 30.1038 70.0028 31.095C69.5955 32.0863 69.4911 33.176 69.7026 34.2265C69.9142 35.2771 70.4322 36.2414 71.1914 36.9978C71.9507 37.7541 72.9169 38.2686 73.9683 38.4761C75.0197 38.6837 76.109 38.5751 77.0986 38.1641C78.0883 37.753 78.9341 37.058 79.529 36.1666C80.124 35.2753 80.4415 34.2276 80.4415 33.156C80.452 32.4392 80.3182 31.7277 80.0482 31.0637C79.7781 30.3996 79.3772 29.7967 78.8694 29.2908C78.3615 28.7849 77.7571 28.3863 77.0921 28.1187C76.427 27.8511 75.715 27.7201 74.9983 27.7333ZM74.9983 36.4425C74.3383 36.4896 73.6794 36.3369 73.1075 36.0042C72.5355 35.6716 72.077 35.1745 71.7915 34.5776C71.5061 33.9807 71.4069 33.3117 71.507 32.6576C71.6071 32.0036 71.9018 31.3949 72.3527 30.9107C72.8036 30.4265 73.3898 30.0892 74.0351 29.9429C74.6803 29.7965 75.3547 29.8478 75.9704 30.0901C76.5861 30.3323 77.1146 30.7544 77.487 31.3012C77.8595 31.848 78.0587 32.4943 78.0588 33.156C78.0788 33.574 78.015 33.9918 77.8711 34.3847C77.7273 34.7777 77.5062 35.1379 77.221 35.4442C76.9359 35.7504 76.5923 35.9965 76.2105 36.168C75.8288 36.3394 75.4166 36.4328 74.9983 36.4425ZM60.8729 29.3972V31.6977H66.3779C66.2985 32.7767 65.8569 33.7973 65.1248 34.5939C64.5732 35.1562 63.9097 35.5967 63.1774 35.8868C62.445 36.1769 61.6599 36.3102 60.8729 36.2782C59.2638 36.2564 57.728 35.6019 56.5978 34.4564C55.4677 33.3108 54.834 31.7663 54.834 30.1571C54.834 28.5479 55.4677 27.0034 56.5978 25.8578C57.728 24.7122 59.2638 24.0577 60.8729 24.036C62.4184 24.0158 63.9095 24.6063 65.0222 25.6792L66.6449 24.0565C65.8857 23.3049 64.9841 22.7124 63.9929 22.3139C63.0018 21.9153 61.941 21.7186 60.8729 21.7354C59.7566 21.7191 58.6482 21.9249 57.6122 22.3409C56.5762 22.7568 55.6332 23.3746 54.8381 24.1582C54.0429 24.9418 53.4115 25.8757 52.9806 26.9056C52.5496 27.9354 52.3276 29.0407 52.3276 30.1571C52.3276 31.2735 52.5496 32.3787 52.9806 33.4086C53.4115 34.4384 54.0429 35.3723 54.8381 36.156C55.6332 36.9396 56.5762 37.5573 57.6122 37.9733C58.6482 38.3892 59.7566 38.595 60.8729 38.5788C61.9636 38.624 63.0514 38.4368 64.0642 38.0295C65.0771 37.6223 65.9917 37.0043 66.7475 36.2166C68.0893 34.752 68.8045 32.8203 68.7401 30.835C68.7453 30.3529 68.704 29.8714 68.6167 29.3972H60.8729ZM118.641 31.1841C118.315 30.2019 117.694 29.3438 116.864 28.7264C116.033 28.109 115.033 27.7623 113.998 27.7333C113.302 27.7376 112.613 27.8832 111.974 28.1612C111.335 28.4392 110.759 28.8439 110.281 29.3507C109.803 29.8576 109.433 30.4561 109.193 31.1102C108.953 31.7642 108.847 32.4602 108.884 33.156C108.868 33.8689 108.996 34.5777 109.261 35.2401C109.525 35.9024 109.92 36.5046 110.423 37.0108C110.925 37.5169 111.524 37.9167 112.184 38.1861C112.845 38.4555 113.552 38.5891 114.266 38.5788C115.159 38.5837 116.039 38.3667 116.828 37.9473C117.617 37.5278 118.289 36.919 118.784 36.1756L116.936 34.9431C116.659 35.4031 116.267 35.7831 115.799 36.046C115.331 36.3088 114.802 36.4455 114.266 36.4425C113.713 36.4637 113.167 36.3183 112.698 36.0253C112.229 35.7323 111.859 35.3052 111.636 34.7993L118.887 31.8004L118.641 31.1841ZM111.246 32.9918C111.221 32.5971 111.274 32.2013 111.403 31.8275C111.533 31.4537 111.735 31.1095 111.999 30.8149C112.263 30.5204 112.583 30.2814 112.94 30.112C113.298 29.9427 113.685 29.8463 114.081 29.8285C114.492 29.8014 114.902 29.8961 115.26 30.1006C115.618 30.3052 115.908 30.6106 116.094 30.9788L111.246 32.9918ZM105.351 38.2501H107.733V22.3106H105.351V38.2501ZM101.448 28.9452H101.366C101.004 28.5516 100.562 28.2399 100.069 28.0309C99.5768 27.8219 99.0454 27.7205 98.5107 27.7333C97.1124 27.7928 95.7911 28.3902 94.8228 29.4006C93.8544 30.4111 93.3138 31.7565 93.3138 33.1561C93.3138 34.5556 93.8544 35.9011 94.8228 36.9115C95.7911 37.9219 97.1124 38.5193 98.5107 38.5788C99.0475 38.5931 99.5811 38.4902 100.074 38.2774C100.567 38.0646 101.008 37.7469 101.366 37.3464H101.448V38.1269C101.448 40.2016 100.339 41.3107 98.5517 41.3107C97.9561 41.2965 97.3783 41.1052 96.8918 40.7614C96.4052 40.4175 96.0321 39.9366 95.8199 39.3799L93.7453 40.2427C94.1363 41.1947 94.8026 42.0082 95.659 42.5791C96.5153 43.15 97.5226 43.4522 98.5517 43.447C101.345 43.447 103.708 41.8038 103.708 37.7982V28.0619H101.448V28.9452ZM98.7162 36.4425C97.8926 36.3727 97.1253 35.9962 96.5661 35.3876C96.0069 34.779 95.6966 33.9826 95.6966 33.1561C95.6966 32.3295 96.0069 31.5331 96.5661 30.9245C97.1253 30.3159 97.8926 29.9394 98.7162 29.8696C99.1259 29.8896 99.5274 29.9919 99.8968 30.1704C100.266 30.3488 100.596 30.5999 100.866 30.9085C101.136 31.2171 101.342 31.5769 101.47 31.9666C101.598 32.3562 101.647 32.7677 101.612 33.1765C101.644 33.5828 101.594 33.9913 101.465 34.3777C101.335 34.7641 101.129 35.1204 100.859 35.4253C100.588 35.7302 100.259 35.9774 99.8911 36.1522C99.523 36.327 99.1234 36.4258 98.7162 36.4425ZM129.802 22.3109H124.101V38.2501H126.48V32.2112H129.802C130.475 32.2481 131.148 32.1474 131.781 31.9153C132.413 31.6832 132.992 31.3246 133.481 30.8613C133.971 30.398 134.361 29.8398 134.627 29.2208C134.893 28.6018 135.031 27.935 135.031 27.2611C135.031 26.5872 134.893 25.9203 134.627 25.3013C134.361 24.6823 133.971 24.1241 133.481 23.6608C132.992 23.1975 132.413 22.8389 131.781 22.6068C131.148 22.3747 130.475 22.274 129.802 22.3109ZM129.863 29.993H126.48V24.5293H129.863C130.227 24.5217 130.588 24.5868 130.926 24.7207C131.264 24.8546 131.572 25.0547 131.832 25.3091C132.092 25.5635 132.298 25.8672 132.439 26.2024C132.58 26.5376 132.652 26.8975 132.652 27.2611C132.652 27.6247 132.58 27.9847 132.439 28.3198C132.298 28.655 132.092 28.9587 131.832 29.2132C131.572 29.4676 131.264 29.6676 130.926 29.8015C130.588 29.9354 130.227 30.0005 129.863 29.993ZM144.566 27.704C143.698 27.6533 142.834 27.8572 142.08 28.2907C141.326 28.7242 140.714 29.3684 140.321 30.1442L142.433 31.026C142.643 30.6409 142.96 30.3252 143.346 30.1176C143.732 29.91 144.17 29.8195 144.607 29.8571C145.211 29.7982 145.813 29.9809 146.282 30.3653C146.751 30.7497 147.048 31.3043 147.109 31.9076V32.0717C146.345 31.6659 145.493 31.4546 144.628 31.4566C142.351 31.4566 140.034 32.7074 140.034 35.0451C140.056 35.5378 140.177 36.021 140.39 36.4661C140.602 36.9112 140.902 37.309 141.271 37.6361C141.64 37.9631 142.071 38.2127 142.538 38.37C143.006 38.5272 143.5 38.589 143.992 38.5516C144.591 38.5869 145.188 38.4609 145.722 38.1868C146.256 37.9127 146.706 37.5006 147.027 36.9932H147.109V38.2236H149.405V32.1128C149.405 29.2829 147.293 27.704 144.566 27.704ZM144.279 36.4395C143.5 36.4395 142.413 36.05 142.413 35.0861C142.413 33.8558 143.766 33.3841 144.935 33.3841C145.694 33.3639 146.445 33.548 147.109 33.9173C147.021 34.6086 146.687 35.245 146.167 35.7086C145.646 36.1723 144.976 36.4319 144.279 36.4395ZM157.772 28.0526L155.045 34.963H154.963L152.133 28.0526H149.57L153.814 37.7109L151.395 43.0835H153.876L160.417 28.0526H157.772ZM136.343 38.2501H138.722V22.3109H136.343V38.2501Z" fill="white"/>
<path d="M13.3052 9.61112C12.8871 10.111 12.676 10.7519 12.7151 11.4024V39.6002C12.6758 40.2508 12.887 40.8917 13.3052 41.3915L13.3995 41.4834L29.1954 25.6876V25.315L13.3995 9.51855L13.3052 9.61112Z" fill="url(#paint0_linear_7492_4787)"/>
<path d="M34.4603 30.9553L29.1953 25.6877V25.3151L34.4615 20.0488L34.5802 20.1165L40.8185 23.6611C42.6005 24.6735 42.6005 26.33 40.8185 27.3429L34.5802 30.8876L34.4603 30.9553Z" fill="url(#paint1_linear_7492_4787)"/>
<path d="M34.5804 30.8869L29.1954 25.5015L13.3052 41.3916C13.6683 41.7118 14.1319 41.8949 14.6158 41.9092C15.0997 41.9235 15.5734 41.7681 15.9547 41.4699L34.5804 30.8869Z" fill="url(#paint2_linear_7492_4787)"/>
<path d="M34.5804 20.1155L15.9547 9.53255C15.5734 9.23432 15.0997 9.07889 14.6158 9.09319C14.1319 9.10749 13.6683 9.29061 13.3052 9.61084L29.1954 25.5011L34.5804 20.1155Z" fill="url(#paint3_linear_7492_4787)"/>
<path opacity="0.2" d="M34.4617 30.7681L15.9547 41.2833C15.5881 41.5625 15.1406 41.7148 14.6797 41.7172C14.2189 41.7197 13.7698 41.5722 13.4002 41.297L13.3052 41.392L13.3995 41.4839L13.4002 41.4832C13.7697 41.7586 14.2189 41.9062 14.6797 41.9037C15.1406 41.9013 15.5881 41.7489 15.9547 41.4696L34.5804 30.8866L34.4617 30.7681Z" fill="#2B313C"/>
<path opacity="0.12" d="M13.3051 41.2058C12.8871 40.7059 12.676 40.065 12.7151 39.4146V39.6008C12.6759 40.2513 12.8871 40.8922 13.3051 41.3921L13.4001 41.2971L13.3051 41.2058Z" fill="#2B313C"/>
<path opacity="0.12" d="M40.8184 27.156L34.4614 30.7683L34.5801 30.8869L40.8184 27.3423C41.1854 27.183 41.5029 26.9283 41.738 26.6046C41.9731 26.281 42.1171 25.9002 42.155 25.502C42.0761 25.8626 41.9142 26.1999 41.6822 26.487C41.4502 26.7741 41.1544 27.0032 40.8184 27.156Z" fill="#2B313C"/>
<path opacity="0.25" d="M15.9545 9.71947L40.8184 23.8464C41.1545 23.9992 41.4504 24.2283 41.6824 24.5156C41.9145 24.8029 42.0763 25.1403 42.155 25.5011C42.1173 25.1027 41.9734 24.7217 41.7383 24.3979C41.5032 24.0741 41.1855 23.8193 40.8184 23.6601L15.9545 9.53319C14.1725 8.52072 12.7148 9.3617 12.7148 11.4027V11.589C12.7148 9.54811 14.1725 8.70712 15.9545 9.71947Z" fill="white"/>
</g>
<path d="M52.2749 17.8498H53.0854V16.5971H58.7592V17.8498H59.5643V15.8612H58.9963V9.08138L54.1 9.07616C54.0706 9.62593 54.043 10.1322 54.0173 10.595C53.9916 11.0577 53.9622 11.5049 53.9291 11.9363C53.8997 12.3678 53.8592 12.8149 53.8078 13.2777C53.771 13.5943 53.7269 13.9075 53.6754 14.2171C53.6276 14.5233 53.5523 14.8 53.4494 15.047C53.3501 15.2941 53.2068 15.4924 53.0193 15.642C52.8318 15.7881 52.5837 15.8612 52.2749 15.8612V17.8498ZM53.8243 15.8612C54.0816 15.642 54.2581 15.3445 54.3536 14.9687C54.4529 14.5929 54.5338 14.1058 54.5963 13.5073C54.6661 12.8532 54.7176 12.2321 54.7506 11.644C54.7874 11.056 54.8223 10.4454 54.8554 9.81208L58.1858 9.8173V15.8612H53.8243Z" fill="white"/>
<path d="M63.9898 16.7537C64.7838 16.7537 65.4528 16.5884 65.9968 16.2579C66.5409 15.9273 66.9526 15.468 67.2319 14.88C67.5113 14.2885 67.651 13.6082 67.651 12.8393C67.651 12.0668 67.5113 11.3866 67.2319 10.7985C66.9526 10.2105 66.5409 9.75119 65.9968 9.42064C65.4528 9.09008 64.7838 8.9248 63.9898 8.9248C63.1994 8.9248 62.5323 9.09008 61.9882 9.42064C61.4442 9.75119 61.0325 10.2105 60.7531 10.7985C60.4737 11.3866 60.3341 12.0668 60.3341 12.8393C60.3341 13.6082 60.4737 14.2885 60.7531 14.88C61.0325 15.468 61.4442 15.9273 61.9882 16.2579C62.5323 16.5884 63.1994 16.7537 63.9898 16.7537ZM63.9898 16.0178C63.3685 16.0143 62.8484 15.8786 62.4293 15.6107C62.014 15.3428 61.7033 14.9705 61.4975 14.4938C61.2916 14.0171 61.1906 13.4656 61.1942 12.8393C61.2016 12.2129 61.3082 11.6614 61.514 11.1847C61.7199 10.7046 62.0287 10.3305 62.4404 10.0626C62.8521 9.7912 63.3685 9.65724 63.9898 9.66072C64.611 9.6642 65.1293 9.7999 65.5447 10.0678C65.9601 10.3357 66.2707 10.7081 66.4765 11.1847C66.6861 11.6614 66.7908 12.2129 66.7908 12.8393C66.7908 13.4656 66.6861 14.0188 66.4765 14.499C66.2707 14.9757 65.9601 15.348 65.5447 15.6159C65.1293 15.8838 64.611 16.0178 63.9898 16.0178Z" fill="white"/>
<path d="M71.9698 16.7537C72.8925 16.7537 73.6461 16.531 74.2305 16.0856C74.815 15.6368 75.2157 15.0366 75.4326 14.285L74.6055 14.0814C74.4364 14.673 74.1331 15.1444 73.6957 15.4959C73.2583 15.8438 72.683 16.0178 71.9698 16.0178C71.3486 16.0178 70.8285 15.8838 70.4094 15.6159C69.994 15.3445 69.6816 14.9705 69.472 14.4938C69.2662 14.0171 69.1651 13.4656 69.1688 12.8393C69.1761 12.2129 69.2827 11.6614 69.4886 11.1847C69.6944 10.7046 70.0032 10.3305 70.4149 10.0626C70.8303 9.79468 71.3486 9.66072 71.9698 9.66072C72.683 9.66072 73.2583 9.83644 73.6957 10.1879C74.1331 10.5358 74.4364 11.0056 74.6055 11.5971L75.4326 11.3935C75.2157 10.6419 74.815 10.0435 74.2305 9.59809C73.6461 9.14923 72.8925 8.9248 71.9698 8.9248C71.1795 8.9248 70.5123 9.09008 69.9683 9.42064C69.4243 9.75119 69.0126 10.2105 68.7332 10.7985C68.4538 11.3866 68.3141 12.0668 68.3141 12.8393C68.3141 13.6082 68.4538 14.2885 68.7332 14.88C69.0126 15.468 69.4243 15.9273 69.9683 16.2579C70.5123 16.5884 71.1795 16.7537 71.9698 16.7537Z" fill="white"/>
<path d="M78.761 16.5971H79.5715V9.8173H82.345V9.08138H75.9875V9.8173H78.761V16.5971Z" fill="white"/>
<path d="M84.5691 16.5971H85.4513L89.1456 9.08138H88.2799L85.8869 13.9927L83.538 9.08138H82.6392L85.4623 14.8174L84.5691 16.5971Z" fill="white"/>
<path d="M90.1 16.5971H90.9106V9.8173H95.3713V16.5971H96.1819V9.08138H90.1V16.5971Z" fill="white"/>
<path d="M97.7247 16.5971H98.5353V13.2046H102.924V16.5971H103.729V9.08138H102.924V12.4687H98.5353V9.08138H97.7247V16.5971Z" fill="white"/>
<path d="M108.489 16.7537C109.283 16.7537 109.952 16.5884 110.496 16.2579C111.04 15.9273 111.451 15.468 111.731 14.88C112.01 14.2885 112.15 13.6082 112.15 12.8393C112.15 12.0668 112.01 11.3866 111.731 10.7985C111.451 10.2105 111.04 9.75119 110.496 9.42064C109.952 9.09008 109.283 8.9248 108.489 8.9248C107.698 8.9248 107.031 9.09008 106.487 9.42064C105.943 9.75119 105.531 10.2105 105.252 10.7985C104.973 11.3866 104.833 12.0668 104.833 12.8393C104.833 13.6082 104.973 14.2885 105.252 14.88C105.531 15.468 105.943 15.9273 106.487 16.2579C107.031 16.5884 107.698 16.7537 108.489 16.7537ZM108.489 16.0178C107.867 16.0143 107.347 15.8786 106.928 15.6107C106.513 15.3428 106.202 14.9705 105.996 14.4938C105.79 14.0171 105.689 13.4656 105.693 12.8393C105.7 12.2129 105.807 11.6614 106.013 11.1847C106.219 10.7046 106.528 10.3305 106.939 10.0626C107.351 9.7912 107.867 9.65724 108.489 9.66072C109.11 9.6642 109.628 9.7999 110.044 10.0678C110.459 10.3357 110.77 10.7081 110.975 11.1847C111.185 11.6614 111.29 12.2129 111.29 12.8393C111.29 13.4656 111.185 14.0188 110.975 14.499C110.77 14.9757 110.459 15.348 110.044 15.6159C109.628 15.8838 109.11 16.0178 108.489 16.0178Z" fill="white"/>
<path d="M115.462 16.5971H118.781C119.483 16.5971 120.049 16.4092 120.479 16.0335C120.91 15.6542 121.125 15.1392 121.125 14.4885C121.125 14.0536 121.007 13.6743 120.772 13.3507C120.54 13.0272 120.218 12.7801 119.807 12.6096C120.093 12.453 120.32 12.2356 120.485 11.9572C120.654 11.6754 120.739 11.3622 120.739 11.0177C120.739 10.6628 120.647 10.3392 120.463 10.0469C120.279 9.75119 120.022 9.51632 119.691 9.34235C119.36 9.16837 118.972 9.08138 118.528 9.08138H115.462V16.5971ZM116.278 12.286V9.80686H118.522C118.923 9.80686 119.252 9.91821 119.509 10.1409C119.77 10.3636 119.9 10.6524 119.9 11.0073C119.9 11.3831 119.766 11.691 119.498 11.9311C119.23 12.1677 118.904 12.286 118.522 12.286H116.278ZM116.278 15.8612V13.0115H118.732C119.029 13.0115 119.296 13.0776 119.531 13.2098C119.766 13.342 119.95 13.5212 120.082 13.7474C120.218 13.9701 120.286 14.2206 120.286 14.499C120.286 14.927 120.123 15.261 119.796 15.5011C119.469 15.7412 119.064 15.8612 118.583 15.8612H116.278Z" fill="white"/>
<defs>
<linearGradient id="paint0_linear_7492_4787" x1="27.7946" y1="11.105" x2="6.39715" y2="32.5025" gradientUnits="userSpaceOnUse">
<stop stop-color="#00A0FF"/>
<stop offset="0.00657" stop-color="#00A1FF"/>
<stop offset="0.2601" stop-color="#00BEFF"/>
<stop offset="0.5122" stop-color="#00D2FF"/>
<stop offset="0.7604" stop-color="#00DFFF"/>
<stop offset="1" stop-color="#00E3FF"/>
</linearGradient>
<linearGradient id="paint1_linear_7492_4787" x1="43.1386" y1="25.502" x2="12.2877" y2="25.502" gradientUnits="userSpaceOnUse">
<stop stop-color="#FFE000"/>
<stop offset="0.4087" stop-color="#FFBD00"/>
<stop offset="0.7754" stop-color="#FFA500"/>
<stop offset="1" stop-color="#FF9C00"/>
</linearGradient>
<linearGradient id="paint2_linear_7492_4787" x1="31.6543" y1="28.4277" x2="2.63765" y2="57.4444" gradientUnits="userSpaceOnUse">
<stop stop-color="#FF3A44"/>
<stop offset="1" stop-color="#C31162"/>
</linearGradient>
<linearGradient id="paint3_linear_7492_4787" x1="9.30416" y1="0.224563" x2="22.2613" y2="13.1817" gradientUnits="userSpaceOnUse">
<stop stop-color="#32A071"/>
<stop offset="0.0685" stop-color="#2DA771"/>
<stop offset="0.4762" stop-color="#15CF74"/>
<stop offset="0.8009" stop-color="#06E775"/>
<stop offset="1" stop-color="#00F076"/>
</linearGradient>
<clipPath id="clip0_7492_4787">
<rect width="172.124" height="51" rx="4" fill="white"/>
</clipPath>
</defs>
</svg>
