<svg width="24" height="24" viewBox="0 0 24 24" fill="none" xmlns="http://www.w3.org/2000/svg">
<path d="M12 0C18.6274 0 24 5.37258 24 12C24 18.6274 18.6274 24 12 24C5.37258 24 0 18.6274 0 12C0 5.37258 5.37258 0 12 0ZM12 15.75C11.3787 15.75 10.875 16.2537 10.875 16.875C10.875 17.4963 11.3787 18 12 18C12.6213 18 13.125 17.4963 13.125 16.875C13.125 16.2537 12.6213 15.75 12 15.75ZM12 6C11.6318 6 11.3256 6.26531 11.2621 6.61519L11.25 6.75V13.5L11.2621 13.6348C11.3256 13.9847 11.6318 14.25 12 14.25C12.3682 14.25 12.6744 13.9847 12.7379 13.6348L12.75 13.5V6.75L12.7379 6.61519C12.6744 6.26531 12.3682 6 12 6Z" fill="white"/>
</svg>
