<svg width="30" height="30" viewBox="0 0 30 30" fill="none" xmlns="http://www.w3.org/2000/svg">
    <path d="M25 7.5H21.25V5C21.25 3.62125 20.1287 2.5 18.75 2.5H11.25C9.87125 2.5 8.75 3.62125 8.75 5V7.5H5C3.62125 7.5 2.5 8.62125 2.5 10V22.5C2.5 23.8787 3.62125 25 5 25H25C26.3787 25 27.5 23.8787 27.5 22.5V10C27.5 8.62125 26.3787 7.5 25 7.5ZM11.25 5H18.75V7.5H11.25V5ZM5 22.5V10H25L25.0012 22.5H5Z" fill="white"/>
    <path d="M16.25 11.25H13.75V15H10V17.5H13.75V21.25H16.25V17.5H20V15H16.25V11.25Z" fill="white"/>
</svg>
