<svg width="48" height="48" viewBox="0 0 48 48" fill="none" xmlns="http://www.w3.org/2000/svg">
    <path d="M24 32C28.4183 32 32 28.4183 32 24C32 19.5817 28.4183 16 24 16C19.5817 16 16 19.5817 16 24C16 28.4183 19.5817 32 24 32Z" fill="#0E46A4"/>
    <path d="M26 8.138V4H22V8.138C18.4806 8.58736 15.2099 10.1923 12.7011 12.7011C10.1923 15.2099 8.58736 18.4806 8.138 22H4V26H8.138C8.58671 29.5197 10.1915 32.7907 12.7004 35.2996C15.2093 37.8085 18.4803 39.4133 22 39.862V44H26V39.862C29.5198 39.4136 32.791 37.809 35.3 35.3C37.809 32.791 39.4136 29.5198 39.862 26H44V22H39.862C39.4133 18.4803 37.8085 15.2093 35.2996 12.7004C32.7907 10.1915 29.5197 8.58671 26 8.138ZM24 36C17.382 36 12 30.618 12 24C12 17.382 17.382 12 24 12C30.618 12 36 17.382 36 24C36 30.618 30.618 36 24 36Z" fill="#0E46A4"/>
</svg>
