<svg width="48" height="48" viewBox="0 0 48 48" fill="none" xmlns="http://www.w3.org/2000/svg">
    <path d="M19 22C20.6569 22 22 20.6569 22 19C22 17.3431 20.6569 16 19 16C17.3431 16 16 17.3431 16 19C16 20.6569 17.3431 22 19 22Z" fill="#0E46A4"/>
    <path d="M29 22C30.6569 22 32 20.6569 32 19C32 17.3431 30.6569 16 29 16C27.3431 16 26 17.3431 26 19C26 20.6569 27.3431 22 29 22Z" fill="#0E46A4"/>
    <path d="M24 4C12.972 4 4 11.178 4 20C4 25.816 7.794 31.03 14 33.868V44L24.68 35.992C35.394 35.704 44 28.64 44 20C44 11.178 35.028 4 24 4ZM24 32H23.334L18 36V31.166L16.718 30.672C11.342 28.602 8 24.512 8 20C8 13.382 15.178 8 24 8C32.822 8 40 13.382 40 20C40 26.618 32.822 32 24 32Z" fill="#0E46A4"/>
</svg>
