<svg width="30" height="30" viewBox="0 0 30 30" fill="none" xmlns="http://www.w3.org/2000/svg">
    <path d="M11.875 13.75C12.9105 13.75 13.75 12.9105 13.75 11.875C13.75 10.8395 12.9105 10 11.875 10C10.8395 10 10 10.8395 10 11.875C10 12.9105 10.8395 13.75 11.875 13.75Z" fill="white"/>
    <path d="M18.125 13.75C19.1605 13.75 20 12.9105 20 11.875C20 10.8395 19.1605 10 18.125 10C17.0895 10 16.25 10.8395 16.25 11.875C16.25 12.9105 17.0895 13.75 18.125 13.75Z" fill="white"/>
    <path d="M15 2.5C8.1075 2.5 2.5 6.98625 2.5 12.5C2.5 16.135 4.87125 19.3937 8.75 21.1675V27.5L15.425 22.495C22.1213 22.315 27.5 17.9 27.5 12.5C27.5 6.98625 21.8925 2.5 15 2.5ZM15 20H14.5837L11.25 22.5V19.4788L10.4488 19.17C7.08875 17.8763 5 15.32 5 12.5C5 8.36375 9.48625 5 15 5C20.5138 5 25 8.36375 25 12.5C25 16.6362 20.5138 20 15 20Z" fill="white"/>
</svg>
