<svg width="40" height="41" viewBox="0 0 40 41" fill="none" xmlns="http://www.w3.org/2000/svg">
    <path d="M19.9999 27.1666C23.6766 27.1666 26.6666 24.1766 26.6666 20.4999C26.6666 16.8233 23.6766 13.8333 19.9999 13.8333C16.3233 13.8333 13.3333 16.8233 13.3333 20.4999C13.3333 24.1766 16.3233 27.1666 19.9999 27.1666ZM19.9999 17.1666C21.8066 17.1666 23.3333 18.6933 23.3333 20.4999C23.3333 22.3066 21.8066 23.8333 19.9999 23.8333C18.1933 23.8333 16.6666 22.3066 16.6666 20.4999C16.6666 18.6933 18.1933 17.1666 19.9999 17.1666Z" fill="#0E46A4"/>
    <path d="M4.74155 27.3933L6.40822 30.2766C7.29322 31.8049 9.42321 32.3783 10.9582 31.4933L11.8399 30.9833C12.8041 31.7417 13.8672 32.3653 14.9999 32.8366V33.8333C14.9999 35.6716 16.4949 37.1666 18.3332 37.1666H21.6665C23.5049 37.1666 24.9999 35.6716 24.9999 33.8333V32.8366C26.1321 32.3652 27.1952 31.7423 28.1599 30.9849L29.0415 31.4949C30.5799 32.3783 32.7049 31.8083 33.5932 30.2766L35.2582 27.3949C35.6999 26.6294 35.8197 25.7199 35.5913 24.8661C35.3628 24.0124 34.8048 23.2842 34.0399 22.8416L33.1982 22.3549C33.3772 21.1258 33.3772 19.8773 33.1982 18.6483L34.0399 18.1616C34.8045 17.7186 35.3622 16.9905 35.5906 16.1368C35.819 15.2832 35.6995 14.3739 35.2582 13.6083L33.5932 10.7266C32.7082 9.19325 30.5799 8.61825 29.0415 9.50659L28.1599 10.0166C27.1957 9.2581 26.1325 8.63458 24.9999 8.16325V7.16659C24.9999 5.32825 23.5049 3.83325 21.6665 3.83325H18.3332C16.4949 3.83325 14.9999 5.32825 14.9999 7.16659V8.16325C13.8676 8.63465 12.8046 9.25756 11.8399 10.0149L10.9582 9.50492C9.41821 8.61992 7.29155 9.19325 6.40655 10.7249L4.74155 13.6066C4.29985 14.3721 4.18007 15.2816 4.40851 16.1354C4.63695 16.9891 5.19493 17.7173 5.95988 18.1599L6.80155 18.6466C6.62194 19.8751 6.62194 21.1231 6.80155 22.3516L5.95988 22.8383C5.19515 23.2815 4.63743 24.01 4.40904 24.8639C4.18064 25.7178 4.30022 26.6274 4.74155 27.3933ZM10.2849 22.7966C10.0967 22.0455 10.001 21.2742 9.99988 20.4999C9.99988 19.7299 10.0965 18.9566 10.2832 18.2033C10.3711 17.8521 10.3422 17.4819 10.2009 17.1487C10.0595 16.8155 9.81343 16.5374 9.49988 16.3566L7.62822 15.2733L9.29155 12.3916L11.1999 13.4949C11.5111 13.675 11.8723 13.7493 12.2293 13.7066C12.5863 13.6639 12.9199 13.5066 13.1799 13.2583C14.3074 12.1858 15.6671 11.3879 17.1532 10.9266C17.4946 10.8224 17.7935 10.6113 18.0059 10.3245C18.2183 10.0376 18.3331 9.69018 18.3332 9.33325V7.16659H21.6665V9.33325C21.6667 9.69018 21.7814 10.0376 21.9939 10.3245C22.2063 10.6113 22.5052 10.8224 22.8465 10.9266C24.3324 11.3886 25.6919 12.1864 26.8199 13.2583C27.0802 13.5061 27.4137 13.6631 27.7705 13.7058C28.1274 13.7484 28.4885 13.6745 28.7999 13.4949L30.7065 12.3933L32.3732 15.2749L30.4999 16.3566C30.1865 16.5376 29.9406 16.8157 29.7993 17.1489C29.658 17.482 29.6289 17.8521 29.7165 18.2033C29.9032 18.9566 29.9999 19.7299 29.9999 20.4999C29.9999 21.2683 29.9032 22.0416 29.7149 22.7966C29.6274 23.1479 29.6567 23.5181 29.7983 23.8513C29.94 24.1845 30.1862 24.4625 30.4999 24.6433L32.3715 25.7249L30.7082 28.6066L28.7999 27.5049C28.4888 27.3246 28.1275 27.2501 27.7704 27.2928C27.4133 27.3355 27.0797 27.493 26.8199 27.7416C25.6923 28.814 24.3327 29.6119 22.8465 30.0733C22.5052 30.1775 22.2063 30.3885 21.9939 30.6754C21.7814 30.9622 21.6667 31.3097 21.6665 31.6666L21.6699 33.8333H18.3332V31.6666C18.3331 31.3097 18.2183 30.9622 18.0059 30.6754C17.7935 30.3885 17.4946 30.1775 17.1532 30.0733C15.6674 29.6112 14.3078 28.8134 13.1799 27.7416C12.9204 27.4923 12.5866 27.3344 12.2293 27.292C11.872 27.2496 11.5105 27.3249 11.1999 27.5066L9.29322 28.6099L7.62655 25.7283L9.49988 24.6433C9.81354 24.4625 10.0598 24.1845 10.2014 23.8513C10.3431 23.5181 10.3724 23.1479 10.2849 22.7966Z" fill="#0E46A4"/>
</svg>
