<svg width="30" height="30" viewBox="0 0 30 30" fill="none" xmlns="http://www.w3.org/2000/svg">
    <path d="M8.14503 17.9036L6.28253 25.9686C6.22486 26.2128 6.24217 26.4688 6.33221 26.703C6.42225 26.9372 6.58083 27.1388 6.78724 27.2815C6.99365 27.4242 7.2383 27.5013 7.48922 27.5028C7.74015 27.5043 7.98569 27.4301 8.19378 27.2899L15 22.7524L21.8063 27.2899C22.0192 27.4312 22.2703 27.504 22.5258 27.4984C22.7813 27.4928 23.029 27.4091 23.2355 27.2585C23.442 27.108 23.5975 26.8978 23.681 26.6562C23.7645 26.4147 23.772 26.1533 23.7025 25.9074L21.4163 17.9074L27.0863 12.8049C27.2679 12.6414 27.3976 12.4282 27.4593 12.1918C27.521 11.9553 27.5121 11.706 27.4337 11.4746C27.3552 11.2431 27.2106 11.0398 27.0178 10.8897C26.825 10.7395 26.5924 10.6492 26.3488 10.6299L19.2225 10.0624L16.1388 3.23613C16.0405 3.01633 15.8806 2.82967 15.6785 2.69871C15.4765 2.56774 15.2408 2.49805 15 2.49805C14.7592 2.49805 14.5236 2.56774 14.3215 2.69871C14.1195 2.82967 13.9596 3.01633 13.8613 3.23613L10.7775 10.0624L3.65128 10.6286C3.41185 10.6476 3.18296 10.7351 2.99198 10.8808C2.801 11.0264 2.65602 11.224 2.5744 11.4499C2.49277 11.6758 2.47796 11.9204 2.53171 12.1545C2.58547 12.3886 2.70553 12.6022 2.87753 12.7699L8.14503 17.9036ZM11.7113 12.4961C11.9344 12.4786 12.1487 12.4013 12.3317 12.2724C12.5146 12.1435 12.6596 11.9678 12.7513 11.7636L15 6.78738L17.2488 11.7636C17.3405 11.9678 17.4854 12.1435 17.6684 12.2724C17.8514 12.4013 18.0657 12.4786 18.2888 12.4961L23.2538 12.8899L19.165 16.5699C18.81 16.8899 18.6688 17.3824 18.7988 17.8424L20.365 23.3236L15.695 20.2099C15.4901 20.0723 15.2488 19.9988 15.0019 19.9988C14.755 19.9988 14.5138 20.0723 14.3088 20.2099L9.42878 23.4636L10.7413 17.7811C10.7894 17.5721 10.7829 17.3543 10.7225 17.1485C10.6621 16.9427 10.5498 16.7559 10.3963 16.6061L6.59878 12.9036L11.7113 12.4961Z" fill="white"/>
</svg>
