<svg width="24" height="24" viewBox="0 0 24 24" fill="none" xmlns="http://www.w3.org/2000/svg">
<path fill-rule="evenodd" clip-rule="evenodd" d="M12 0C5.37258 0 0 5.37258 0 12C0 18.6274 5.37258 24 12 24C18.6274 24 24 18.6274 24 12C24 5.37258 18.6274 0 12 0ZM16.2851 17.524C15.8369 18.1177 14.482 18.6077 13.1146 18.6077C9.71644 18.6077 7.87844 17.3478 7.87844 14.6767V11.3308H6.4863C6.45472 11.3308 6.42913 11.305 6.42913 11.2732V8.55658C6.42913 8.53181 6.44485 8.50983 6.4682 8.50199L6.62029 8.45089C7.98337 7.99237 8.70871 7.03736 8.90294 5.44546C8.94989 5.0605 9.27091 4.85283 9.5491 4.85283H13.4393C13.4709 4.85283 13.4965 4.87859 13.4965 4.91038V7.99425C13.4965 8.02602 13.5221 8.05178 13.5537 8.05178H15.7719C15.8035 8.05178 15.8291 8.07754 15.8291 8.10932V11.2732C15.8291 11.305 15.8035 11.3308 15.7719 11.3308H13.5441C13.5125 11.3308 13.4869 11.3565 13.4869 11.3883V14.481C13.489 14.6084 13.5022 14.7115 13.5242 14.7958C13.5307 14.8208 13.5539 14.8372 13.5795 14.8372H15.4731C15.4976 14.8372 15.5194 14.853 15.5273 14.8764L16.3748 17.4051L16.2851 17.524Z" fill="white"/>
<path d="M15.4833 17.273C15.0685 17.6816 14.217 17.9851 13.401 17.9992C13.3702 17.9997 13.3399 18 13.3096 18H13.3093C10.6252 17.9999 9.90906 15.9013 9.90906 14.6613V10.8509C9.90906 10.8194 9.88418 10.7939 9.85348 10.7939H8.55558C8.5249 10.7939 8.5 10.7685 8.5 10.737V9.00118C8.5 8.97798 8.51419 8.95728 8.53531 8.94885C9.92252 8.39578 10.6972 7.29682 10.901 5.59703C10.9123 5.50259 10.9884 5.5 10.9892 5.5H12.7217C12.7524 5.5 12.7773 5.52548 12.7773 5.55693V8.60775C12.7773 8.63917 12.8022 8.66465 12.8329 8.66465H14.9895C15.0202 8.66465 15.0451 8.69016 15.0451 8.72158V10.737C15.0451 10.7685 15.0202 10.7939 14.9895 10.7939H12.8236C12.7929 10.7939 12.768 10.8194 12.768 10.8509L12.7681 14.4722C12.7808 15.2876 13.1661 15.7009 13.9133 15.7009C14.2143 15.7009 14.5592 15.6292 14.874 15.506C14.9034 15.4945 14.9359 15.5098 14.946 15.5404L15.4969 17.2131C15.5039 17.2342 15.499 17.2576 15.4833 17.273Z" fill="white"/>
<path d="M9.5 12.5H8V11.5H9.45113C9.47812 11.5 9.5 11.5253 9.5 11.5564V12.5Z" fill="white"/>
</svg>
