<svg width="40" height="40" viewBox="0 0 40 40" fill="none" xmlns="http://www.w3.org/2000/svg">
<path fill-rule="evenodd" clip-rule="evenodd" d="M20 0C8.9543 0 0 8.9543 0 20C0 31.0457 8.9543 40 20 40C31.0457 40 40 31.0457 40 20C40 8.9543 31.0457 0 20 0ZM27.1418 29.2067C26.3948 30.1962 24.1367 31.0128 21.8577 31.0128C16.1941 31.0128 13.1307 28.9129 13.1307 24.4612V18.8846H10.8105C10.7579 18.8846 10.7152 18.8417 10.7152 18.7887V14.261C10.7152 14.2197 10.7414 14.1831 10.7803 14.17L11.0338 14.0848C13.3056 13.3206 14.5145 11.7289 14.8382 9.07577C14.9165 8.43417 15.4515 8.08805 15.9152 8.08805H22.3989C22.4515 8.08805 22.4942 8.13099 22.4942 8.18396V13.3238C22.4942 13.3767 22.5369 13.4196 22.5894 13.4196H26.2866C26.3392 13.4196 26.3819 13.4626 26.3819 13.5155V18.7887C26.3819 18.8417 26.3392 18.8846 26.2866 18.8846H22.5735C22.5209 18.8846 22.4782 18.9276 22.4782 18.9805V24.135C22.4816 24.3474 22.5036 24.5192 22.5404 24.6597C22.5512 24.7013 22.5898 24.7287 22.6326 24.7287H25.7885C25.8294 24.7287 25.8657 24.755 25.8788 24.794L27.2914 29.0084L27.1418 29.2067Z" fill="#2B313C"/>
<path d="M25.8059 28.7885C25.1144 29.4693 23.6954 29.9752 22.3353 29.9987C22.2839 29.9996 22.2335 30.0001 22.183 30.0001H22.1825C17.709 29.9998 16.5154 26.5023 16.5154 24.4356V18.0848C16.5154 18.0325 16.474 17.99 16.4228 17.99H14.2596C14.2085 17.99 14.167 17.9475 14.167 17.8951V15.0021C14.167 14.9634 14.1906 14.9289 14.2258 14.9148C16.5379 13.993 17.829 12.1614 18.1686 9.32846C18.1875 9.17107 18.3143 9.16675 18.3156 9.16675H21.2032C21.2543 9.16675 21.2958 9.20922 21.2958 9.26163V14.3463C21.2958 14.3987 21.3373 14.4412 21.3884 14.4412H24.9828C25.034 14.4412 25.0755 14.4837 25.0755 14.5361V17.8951C25.0755 17.9475 25.034 17.99 24.9828 17.99H21.373C21.3218 17.99 21.2803 18.0325 21.2803 18.0849L21.2804 24.1204C21.3017 25.4794 21.9439 26.1683 23.1891 26.1683C23.6909 26.1683 24.2656 26.0487 24.7903 25.8434C24.8393 25.8243 24.8935 25.8498 24.9102 25.9008L25.8285 28.6887C25.8401 28.7238 25.832 28.7627 25.8059 28.7885Z" fill="#2B313C"/>
<path d="M15.833 20.8334H13.333V19.1667H15.7516C15.7965 19.1667 15.833 19.2088 15.833 19.2608V20.8334Z" fill="#2B313C"/>
</svg>
