<svg width="40" height="41" viewBox="0 0 40 41" fill="none" xmlns="http://www.w3.org/2000/svg">
    <path d="M20.0002 3.8335C10.8102 3.8335 3.3335 11.3102 3.3335 20.5002C3.3335 29.6902 10.8102 37.1668 20.0002 37.1668C29.1902 37.1668 36.6668 29.6902 36.6668 20.5002C36.6668 11.3102 29.1902 3.8335 20.0002 3.8335ZM20.0002 33.8335C12.6485 33.8335 6.66683 27.8518 6.66683 20.5002C6.66683 13.1485 12.6485 7.16683 20.0002 7.16683C27.3518 7.16683 33.3335 13.1485 33.3335 20.5002C33.3335 27.8518 27.3518 33.8335 20.0002 33.8335Z" fill="#0E46A4"/>
    <path d="M21.6668 12.1668H18.3335V21.1902L23.8218 26.6785L26.1785 24.3218L21.6668 19.8102V12.1668Z" fill="#0E46A4"/>
</svg>
