<svg width="24" height="24" viewBox="0 0 24 24" fill="none" xmlns="http://www.w3.org/2000/svg">
    <g clip-path="url(#clip0_7682_3979)">
        <path d="M15.6941 10.9215L10.3918 8.0204C10.087 7.85357 9.72664 7.85981 9.42781 8.03686C9.1288 8.21409 8.95044 8.52722 8.95044 8.87475V14.6272C8.95044 14.9731 9.12772 15.2857 9.42472 15.4631C9.57978 15.5557 9.75172 15.6022 9.92403 15.6022C10.0853 15.602 10.2439 15.5617 10.3857 15.4849L15.688 12.6337C15.8425 12.5507 15.9716 12.4275 16.0619 12.2772C16.1521 12.1268 16.2001 11.9549 16.2007 11.7795C16.2014 11.6041 16.1547 11.4318 16.0655 11.2808C15.9763 11.1297 15.848 11.0056 15.6941 10.9215ZM10.3569 13.9035V9.60426L14.3197 11.7726L10.3569 13.9035Z" fill="white"/>
        <path d="M23.8234 7.19656L23.8223 7.18559C23.802 6.99242 23.5996 5.27418 22.7643 4.4002C21.7988 3.37223 20.7041 3.24736 20.1777 3.1875C20.138 3.18311 20.0982 3.17834 20.0585 3.1732L20.0166 3.16884C16.8438 2.93812 12.0521 2.90662 12.0042 2.90644L12 2.90625L11.9957 2.90644C11.9478 2.90662 7.1561 2.93812 3.95469 3.16884L3.91241 3.1732C3.87833 3.1778 3.84078 3.18201 3.79995 3.1868C3.2796 3.2468 2.19669 3.3719 1.22845 4.43699C0.432842 5.30165 0.202874 6.98309 0.179249 7.17205L0.176531 7.19656C0.169359 7.27695 0 9.19062 0 11.1117V12.9076C0 14.8288 0.169359 16.7424 0.176531 16.823L0.177796 16.835C0.19814 17.0251 0.400264 18.7119 1.23173 19.5862C2.1396 20.5797 3.28747 20.7112 3.90491 20.7819C4.0025 20.793 4.08655 20.8025 4.14383 20.8126L4.19933 20.8203C6.03129 20.9946 11.7751 21.0805 12.0186 21.084L12.026 21.0842L12.0333 21.084C12.0812 21.0838 16.8727 21.0523 20.0456 20.8216L20.0875 20.8172C20.1276 20.8119 20.1727 20.8071 20.2221 20.802C20.7396 20.747 21.8166 20.633 22.7715 19.5823C23.5671 18.7175 23.7972 17.0361 23.8207 16.8473L23.8234 16.8228C23.8305 16.7422 24.0001 14.8287 24.0001 12.9076V11.1117C23.9999 9.19057 23.8305 7.27714 23.8234 7.19656ZM22.5935 12.9076C22.5935 14.6858 22.4382 16.517 22.4236 16.6851C22.3639 17.1482 22.1212 18.212 21.7336 18.6333C21.136 19.2908 20.522 19.356 20.0738 19.4035C20.0238 19.4086 19.9739 19.4142 19.924 19.4203C16.8552 19.6422 12.2444 19.6762 12.032 19.6775C11.7938 19.6741 6.13399 19.5875 4.3579 19.4225C4.26687 19.4076 4.16853 19.3963 4.06494 19.3846C3.53924 19.3243 2.81961 19.2419 2.2663 18.6333L2.25327 18.6194C1.87241 18.2226 1.63677 17.2278 1.57687 16.6905C1.56571 16.5635 1.40643 14.7106 1.40643 12.9076V11.1117C1.40643 9.33565 1.56135 7.5064 1.57635 7.33484C1.6476 6.78936 1.89477 5.78999 2.2663 5.38602C2.88224 4.70854 3.53174 4.63349 3.9613 4.58385C4.00231 4.57907 4.04056 4.57471 4.07591 4.57012C7.18942 4.34709 11.8333 4.31395 12 4.31268C12.1666 4.31376 16.8088 4.34709 19.8947 4.57012C19.9326 4.5749 19.974 4.57963 20.0185 4.58479C20.4603 4.63513 21.1281 4.71131 21.741 5.36497L21.7466 5.37102C22.1275 5.76782 22.3631 6.78003 22.423 7.32805C22.4336 7.448 22.5935 9.30485 22.5935 11.1117V12.9076Z" fill="white"/>
    </g>
    <defs>
        <clipPath id="clip0_7682_3979">
            <rect width="24" height="24" fill="white"/>
        </clipPath>
    </defs>
</svg>
