<svg width="140" height="39" viewBox="0 0 140 39" fill="none" xmlns="http://www.w3.org/2000/svg">
<path d="M71.2773 12.2754H75.8708V36.3015H71.2773V12.2754ZM88.1304 25.104C87.3993 26.4006 86.4406 27.3766 85.2509 28.0353C84.0611 28.6939 82.7852 29.025 81.4161 29.025C80.0263 29.025 78.8193 28.6732 77.7951 27.9663C76.7709 27.2593 75.9812 26.2593 75.4294 24.9626C74.8742 23.666 74.5983 22.1486 74.5983 20.4036C74.5983 18.638 74.8742 17.1137 75.4294 15.8274C75.9812 14.5445 76.7709 13.5479 77.7951 12.8409C78.8193 12.134 80.0263 11.7822 81.4161 11.7822C82.7817 11.7822 84.0611 12.1133 85.2509 12.772C86.4406 13.4306 87.3993 14.4031 88.1304 15.686C88.8615 16.9689 89.2271 18.5414 89.2271 20.4036C89.2271 22.2417 88.8615 23.8073 88.1304 25.104ZM83.8922 17.931C83.4921 17.2482 82.9542 16.7309 82.2851 16.3757C81.6127 16.0205 80.8781 15.8446 80.0781 15.8446C79.3952 15.8446 78.7297 16.0171 78.0813 16.355C77.433 16.6964 76.9019 17.2103 76.4916 17.8931C76.0777 18.5759 75.8743 19.4104 75.8743 20.4002C75.8743 21.3899 76.0812 22.2244 76.4916 22.9073C76.9019 23.5901 77.433 24.1039 78.0813 24.4453C78.7297 24.7867 79.3952 24.9592 80.0781 24.9592C80.8781 24.9592 81.6161 24.7833 82.2851 24.4281C82.9576 24.0729 83.4921 23.5556 83.8922 22.8728C84.2922 22.19 84.4922 21.3658 84.4922 20.4002C84.4922 19.438 84.2922 18.6138 83.8922 17.931Z" fill="white"/>
<path d="M96.7874 28.5314H92.3008V12.2784H96.7874V28.5314ZM100.622 16.3925C100.305 16.2408 99.9083 16.1615 99.4393 16.1615C98.8737 16.1615 98.3909 16.3167 97.9909 16.6201C97.5909 16.9271 97.2908 17.3581 97.0908 17.9099C96.8908 18.4617 96.7908 19.1307 96.7908 19.9066L95.5183 18.6341C95.5183 17.3374 95.7666 16.1925 96.2597 15.189C96.7529 14.1889 97.4012 13.3854 98.2047 12.7853C99.0048 12.1853 99.829 11.8853 100.677 11.8853C101.267 11.8853 101.826 11.9922 102.357 12.2025C102.888 12.4129 103.315 12.7336 103.647 13.1578L101.564 17.0443C101.253 16.765 100.939 16.5477 100.622 16.3925Z" fill="white"/>
<path d="M109.331 24.6969C109.565 25.0383 109.889 25.297 110.303 25.4728C110.713 25.6487 111.169 25.7384 111.662 25.7384C112.369 25.7384 113.003 25.5935 113.569 25.2969C114.134 25.0038 114.593 24.5796 114.948 24.0244C115.3 23.4727 115.479 22.8071 115.479 22.0277L116.045 24.1486C116.045 25.1866 115.755 26.0556 115.179 26.7626C114.603 27.4695 113.858 28.0006 112.951 28.3524C112.045 28.7076 111.096 28.8835 110.106 28.8835C109.093 28.8835 108.151 28.6834 107.279 28.2834C106.406 27.8834 105.706 27.3006 105.175 26.535C104.644 25.7694 104.382 24.8348 104.382 23.7244C104.382 22.1484 104.934 20.8966 106.044 19.9793C107.151 19.062 108.717 18.5999 110.744 18.5999C111.782 18.5999 112.693 18.7068 113.483 18.9171C114.272 19.1275 114.938 19.3896 115.479 19.693C116.021 20 116.41 20.2931 116.645 20.5759V22.6967C116.01 22.2277 115.297 21.8725 114.507 21.638C113.717 21.4035 112.886 21.2863 112.017 21.2863C111.31 21.2863 110.734 21.3759 110.286 21.5518C109.837 21.7277 109.506 21.976 109.296 22.2933C109.086 22.6105 108.979 23.0071 108.979 23.4761C108.979 23.9486 109.096 24.3555 109.331 24.6969ZM105.516 13.7615C106.365 13.3132 107.399 12.8856 108.624 12.4718C109.848 12.0579 111.213 11.8545 112.724 11.8545C114.114 11.8545 115.352 12.0545 116.435 12.4545C117.517 12.8546 118.366 13.4374 118.98 14.203C119.593 14.9685 119.897 15.9031 119.897 17.0135V28.5317H115.479V17.9653C115.479 17.517 115.41 17.1342 115.269 16.817C115.128 16.4997 114.91 16.2342 114.614 16.0204C114.317 15.8065 113.972 15.6548 113.572 15.5617C113.172 15.4686 112.724 15.4203 112.231 15.4203C111.476 15.4203 110.758 15.5031 110.075 15.6686C109.393 15.8341 108.803 16.0341 108.31 16.2686C107.817 16.5031 107.451 16.7032 107.213 16.8687L105.516 13.7615Z" fill="white"/>
<path d="M126.186 12.2747L130.18 22.0651L134.17 12.2747H139.08L130.18 30.2244L121.275 12.2747H126.186Z" fill="white"/>
<path d="M50.5215 28.2212V25.29H55.9116V15.6271H50.9146V12.6959H60.5188V25.29H65.433V28.2212H50.5215ZM57.9773 10.6026C56.2185 10.6026 55.2391 9.96118 55.2391 8.45416C55.2391 7.00232 56.1599 6.21948 57.9773 6.21948C59.7636 6.21948 60.743 6.94369 60.743 8.45416C60.743 9.93014 59.7636 10.6026 57.9773 10.6026Z" fill="white"/>
<path d="M25.2889 2.28536C30.0272 1.84739 34.5207 1.16457 37.5416 4.4338C39.6866 6.75123 38.7073 10.1274 37.8313 13.4587C37.7141 13.9104 37.3623 14.745 37.2485 15.2071C37.4623 15.9658 37.6761 16.1623 37.7865 16.9383C37.9899 15.7727 38.2865 14.6277 38.5796 13.5069C39.4866 10.0549 40.3453 6.78916 37.8417 4.0855C34.4966 0.467963 29.979 0.88869 25.1958 1.33011C24.0302 1.43701 22.8336 1.54736 21.6162 1.60599C22.8198 1.71289 24.0164 1.94739 25.1855 2.2957C25.2234 2.29225 25.2579 2.28881 25.2889 2.28536Z" fill="white"/>
<path d="M2.86021 13.8307C2.24292 9.21651 1.75667 5.57485 5.06039 2.80221C7.57783 0.691696 10.6367 1.25726 14.1749 1.91593C14.5715 1.98835 14.9715 2.06422 15.375 2.13319C16.4165 1.85731 17.4752 1.67798 18.5442 1.59522C17.1165 1.48141 15.7164 1.22277 14.3508 0.97103C10.7298 0.298562 7.30884 -0.335975 4.44309 2.06767C0.73245 5.17826 2.00841 10.3994 2.61535 14.917C2.73605 15.8136 2.81193 15.7377 2.90504 16.6654C3.04988 15.755 2.59812 14.8825 2.8809 13.9962C2.874 13.9376 2.86711 13.8824 2.86021 13.8307Z" fill="white"/>
<path d="M37.7587 22.2901C37.6345 23.0936 37.4828 23.4419 37.2518 24.2282C37.3483 24.6765 37.7346 25.2421 37.8346 25.6835C38.6691 29.3976 39.4209 33.2979 36.9621 35.8739C34.2239 38.7362 30.3202 37.9603 26.1922 37.3292C25.6163 37.2396 24.161 36.8292 23.5713 36.7464C20.6435 37.4879 19.5158 37.4982 16.5846 36.7464C16.4053 36.7671 16.4708 36.7257 16.2949 36.7464C16.1052 36.7671 14.5844 37.0361 14.3982 37.0568C9.75298 37.6086 5.26297 38.3914 2.32135 34.998C0.248771 32.6082 1.16264 29.032 2.03167 25.6835C2.16272 25.1765 2.49032 24.4523 2.61447 23.9385C2.39376 23.1764 2.33859 22.9833 2.22134 22.2004C2.02477 23.4281 1.7144 24.6317 1.40748 25.8145C0.510853 29.2769 -0.334038 32.5461 2.0696 35.3222C5.34573 39.0984 9.82885 38.181 14.5465 37.6224C16.3673 37.4051 17.8467 37.6293 19.7848 37.6224C21.8057 37.6155 22.8713 37.1568 24.7335 37.6224C27.0613 38.2052 30.396 38.8225 32.3858 38.5914C34.1791 38.381 35.8413 37.7155 37.3069 36.1843C40.1244 33.2393 39.314 29.6321 38.4553 25.8111C38.2001 24.6592 37.938 23.4867 37.7587 22.2901Z" fill="white"/>
<path d="M29.5075 22.8243L35.746 27.1522C36.2978 26.0142 36.7185 24.8279 37.0081 23.6175C36.7633 22.3312 36.584 21.0069 36.5771 19.6447C36.5702 18.2688 36.7771 16.9445 37.0599 15.6582C36.6702 13.927 36.0184 12.2441 35.0977 10.675L29.042 15.0995C30.2214 17.5101 30.38 20.3034 29.5075 22.8243Z" fill="white"/>
<path d="M16.0608 28.7836C16.0091 28.7629 15.9574 28.7353 15.9056 28.7146L11.626 34.8841C13.3468 35.8221 15.1918 36.4497 17.0781 36.7635C18.0817 36.6704 19.1024 36.6083 20.1473 36.6014C21.0991 36.598 22.0303 36.6601 22.9441 36.7566C24.7581 36.4497 26.5306 35.8566 28.1928 34.9772C28.1928 34.9772 26.4823 34.7047 24.7339 32.0838C23.6304 30.4285 23.5959 28.4525 23.7235 28.856C21.2681 29.8354 18.5024 29.8147 16.0608 28.7836Z" fill="white"/>
<path d="M19.871 9.44386C20.8814 9.43006 21.8711 9.56801 22.8126 9.84045C22.8126 9.84045 23.3575 7.69545 24.4403 6.17809C25.8956 4.13999 27.3509 3.55719 27.3509 3.55719C26.2439 3.0606 24.9162 2.6778 23.7471 2.42261C22.5298 2.52606 21.2849 2.60882 20.0055 2.61227C18.8571 2.61572 17.7398 2.50193 16.6431 2.33984C14.9258 2.6709 13.2532 3.25716 11.6807 4.1055L16.1362 10.206C17.3087 9.7232 18.5709 9.45765 19.871 9.44386Z" fill="white"/>
<path d="M9.9261 19.6381C9.90886 18.3345 10.1434 17.0689 10.5951 15.8895L4.38772 11.5857C3.79802 12.7479 3.34971 13.9652 3.03589 15.2067C3.22211 16.6792 3.37385 18.1966 3.38074 19.7795C3.38419 21.0485 3.20487 22.2797 2.95312 23.4832C3.24625 24.7454 3.4911 25.6696 4.06356 26.8524C4.06356 26.8524 5.22917 24.8144 6.68446 23.9419C8.83291 22.6521 10.4227 22.6555 10.4227 22.6555C10.1089 21.6899 9.9399 20.6761 9.9261 19.6381Z" fill="white"/>
<path d="M3.03855 15.2068C2.35574 17.9208 2.32816 20.7624 2.95579 23.4799C3.20754 22.2798 3.39031 21.0486 3.38341 19.7796C3.37651 18.1932 3.22478 16.6793 3.03855 15.2068Z" fill="white"/>
<path d="M23.751 2.42283C21.4128 1.91244 18.992 1.88831 16.6504 2.34007C17.7436 2.50215 18.8644 2.61595 20.0127 2.6125C21.2887 2.60905 22.5336 2.52629 23.751 2.42283Z" fill="white"/>
<path d="M17.0811 36.7633C19.0226 37.0875 21.0055 37.0875 22.947 36.7564C22.0332 36.6598 21.1021 36.5978 20.1503 36.6012C19.1053 36.6081 18.0811 36.6736 17.0811 36.7633Z" fill="white"/>
<path d="M37.0074 23.6143C37.6316 21.0003 37.6488 18.2725 37.0591 15.655C36.7764 16.9413 36.5694 18.2656 36.5763 19.6416C36.5832 21.0072 36.7626 22.328 37.0074 23.6143Z" fill="white"/>
<path d="M28.1445 14.4683C28.2687 14.6717 28.3859 14.8786 28.4963 15.089C28.3894 14.8786 28.2721 14.6717 28.1445 14.4683Z" fill="white"/>
<path d="M25.344 11.5581C24.8336 11.2132 24.2922 10.9201 23.73 10.6787C23.3714 10.527 22.9989 10.3994 22.623 10.2925L22.8403 10.358C23.7404 10.6408 24.5784 11.0408 25.344 11.5581Z" fill="white"/>
<path d="M26.6885 12.655C26.854 12.8171 27.0126 12.9861 27.1644 13.1585C27.0126 12.9861 26.8575 12.8171 26.6885 12.655Z" fill="white"/>
<path d="M31.2852 5.50586C31.4369 5.62656 31.5852 5.75416 31.7335 5.88176C31.5852 5.75416 31.4334 5.63001 31.2852 5.50586Z" fill="white"/>
<path d="M30.5928 4.97461C30.748 5.08841 30.8997 5.20222 31.0514 5.32292C30.8997 5.20567 30.748 5.08841 30.5928 4.97461Z" fill="white"/>
<path d="M27.6477 3.22611L27.4615 3.13989L27.458 3.1468C27.6753 3.2468 27.8925 3.35025 28.1098 3.45715C27.9581 3.37784 27.8029 3.29853 27.6477 3.22611Z" fill="white"/>
<path d="M32.5625 6.63672C32.7591 6.82984 32.9487 7.02639 33.135 7.22641C32.9487 7.02294 32.7591 6.82639 32.5625 6.63672Z" fill="white"/>
<path d="M28.1934 3.49536C28.7003 3.754 29.2003 4.04025 29.6866 4.35407C29.2038 4.0437 28.7037 3.75745 28.1934 3.49536Z" fill="white"/>
<path d="M33.8701 8.05762C34.0322 8.25418 34.1908 8.45419 34.346 8.65421C34.1908 8.45075 34.0322 8.25418 33.8701 8.05762Z" fill="white"/>
<path d="M35.4999 10.3753L35.3826 10.1857C35.2309 9.93739 35.0722 9.69599 34.9102 9.45459C35.1136 9.75806 35.3067 10.0684 35.4895 10.3823L35.4999 10.3753Z" fill="white"/>
<path d="M34.3867 8.71289C34.5591 8.9405 34.7212 9.17155 34.8799 9.40605C34.7212 9.17155 34.5591 8.93705 34.3867 8.71289Z" fill="white"/>
<path d="M27.7275 13.8481C27.8655 14.0344 27.9965 14.2275 28.1207 14.4275C27.9965 14.2309 27.8655 14.0378 27.7275 13.8481Z" fill="white"/>
<path d="M25.3526 10.9825C25.3075 10.9547 25.2624 10.9269 25.2207 10.8992C25.2658 10.9304 25.3109 10.9547 25.3526 10.9825Z" fill="white"/>
<path d="M27.8955 3.89209C27.9302 3.90944 27.9684 3.93026 28.0031 3.94762C27.9684 3.92679 27.9302 3.90944 27.8955 3.89209Z" fill="white"/>
<path d="M28.4651 14.0696C28.4478 14.0418 28.4304 14.0175 28.4131 13.9897C28.4304 14.014 28.4478 14.0418 28.4651 14.0696Z" fill="white"/>
<path d="M28.0177 13.4217C28.0104 13.4108 27.9995 13.4035 27.9922 13.3926C27.9995 13.4035 28.0067 13.4108 28.0177 13.4217Z" fill="white"/>
<path d="M27.5969 12.9106C27.5621 12.8689 27.524 12.8307 27.4893 12.7891C27.5274 12.8272 27.5621 12.8689 27.5969 12.9106Z" fill="white"/>
<path d="M24.8515 10.6893C24.8307 10.6789 24.8099 10.665 24.7891 10.6545C24.8099 10.665 24.8307 10.6754 24.8515 10.6893Z" fill="white"/>
<path d="M30.7822 5.72681C30.8512 5.78198 30.9167 5.8337 30.9857 5.88888C30.9167 5.8337 30.8477 5.77853 30.7822 5.72681Z" fill="white"/>
<path d="M33.1143 7.93018C33.2591 8.09571 33.4039 8.26122 33.5419 8.4302C33.4039 8.26122 33.2625 8.09571 33.1143 7.93018Z" fill="white"/>
<path d="M32.2207 6.98511C32.4552 7.21616 32.6828 7.45068 32.9035 7.69208C32.6828 7.45068 32.4587 7.21271 32.2207 6.98511Z" fill="white"/>
<path d="M30.1338 5.24023C30.1855 5.27817 30.2338 5.31611 30.2855 5.35059C30.2338 5.31611 30.1821 5.27817 30.1338 5.24023Z" fill="white"/>
<path d="M3.98687 11.3027C3.542 12.1718 3.17301 13.0719 2.87988 13.9892C2.90402 14.1754 2.92816 14.3616 2.95575 14.5513C3.26612 13.4857 3.67305 12.4442 4.18689 11.4407L3.98687 11.3027Z" fill="white"/>
<path d="M37.6416 21.3758C37.6726 21.6827 37.714 21.9862 37.7588 22.2897C38.0347 20.5171 38.0451 18.7101 37.7899 16.9341C37.7382 17.2238 37.6968 17.5169 37.6588 17.81C37.7726 18.9963 37.7657 20.1895 37.6416 21.3758Z" fill="white"/>
<path d="M12.9403 25.9979C12.8986 25.9527 12.8604 25.9076 12.8223 25.866C12.8639 25.9111 12.9021 25.9562 12.9403 25.9979Z" fill="white"/>
<path d="M12.5988 25.6073C12.5574 25.5556 12.516 25.5039 12.4746 25.4521C12.516 25.5004 12.5574 25.5556 12.5988 25.6073Z" fill="white"/>
<path d="M25.3438 11.5581C25.3785 11.5824 25.4166 11.6102 25.4513 11.6345C25.4166 11.6102 25.3819 11.5824 25.3438 11.5581Z" fill="white"/>
<path d="M13.6738 12.3134C13.7221 12.272 13.7704 12.2272 13.8187 12.1858C13.7704 12.2272 13.7221 12.2686 13.6738 12.3134Z" fill="white"/>
<path d="M13.1357 12.8203C13.2461 12.7065 13.3564 12.5996 13.4737 12.4927C13.3564 12.5961 13.2461 12.7065 13.1357 12.8203Z" fill="white"/>
<path d="M12.8154 13.1649C12.9189 13.0477 13.0258 12.9339 13.1362 12.8201C13.0258 12.9304 12.9189 13.0477 12.8154 13.1649Z" fill="white"/>
<path d="M28.3413 35.1804C26.8894 35.9529 25.3514 36.5116 23.7754 36.853C23.9961 36.8806 24.2168 36.9082 24.4375 36.9392C25.8307 36.5874 27.1929 36.0667 28.4861 35.377L28.3413 35.1804Z" fill="white"/>
<path d="M35.9482 27.2903L36.1483 27.4283C36.5862 26.5351 36.9414 25.6178 37.2208 24.6763C37.1863 24.5108 37.1518 24.3452 37.1173 24.1763C36.8311 25.2453 36.4379 26.2868 35.9482 27.2903Z" fill="white"/>
<path d="M33.1348 7.22314C33.1764 7.26827 33.2181 7.30992 33.2562 7.35504C33.2181 7.31339 33.1764 7.26827 33.1348 7.22314Z" fill="white"/>
<path d="M33.7793 7.95093C33.8105 7.98564 33.8383 8.02382 33.8661 8.05853C33.8383 8.02035 33.8105 7.98564 33.7793 7.95093Z" fill="white"/>
<path d="M34.8799 9.40283C34.8903 9.42019 34.9007 9.43755 34.9146 9.4549C34.9042 9.43755 34.8938 9.42019 34.8799 9.40283Z" fill="white"/>
<path d="M14.329 27.2426C14.2566 27.1909 14.1877 27.1357 14.1152 27.084C14.1877 27.1357 14.2566 27.1874 14.329 27.2426Z" fill="white"/>
<path d="M13.9781 26.9695C13.9023 26.9074 13.8229 26.8419 13.7471 26.7764C13.8229 26.8419 13.8988 26.9074 13.9781 26.9695Z" fill="white"/>
<path d="M11.9502 24.7217C11.9294 24.6905 11.9085 24.6558 11.8877 24.6245C11.9051 24.6558 11.9294 24.687 11.9502 24.7217Z" fill="white"/>
<path d="M27.9658 24.8384C27.9141 24.9177 27.8589 24.997 27.8037 25.0763C27.8589 24.997 27.9106 24.9177 27.9658 24.8384Z" fill="white"/>
<path d="M4.04885 27.3073C3.53502 26.252 3.12809 25.1588 2.83497 24.0415C2.80048 24.2001 2.76254 24.3622 2.72461 24.5209C3.01429 25.5209 3.38674 26.5038 3.85229 27.4521L4.04885 27.3073Z" fill="white"/>
<path d="M27.3658 25.6387C27.3072 25.7076 27.252 25.7766 27.1934 25.8421C27.2554 25.7766 27.3106 25.7042 27.3658 25.6387Z" fill="white"/>
<path d="M27.6924 13.8032C27.7028 13.8171 27.7132 13.8345 27.7271 13.8518C27.7167 13.8345 27.7063 13.8171 27.6924 13.8032Z" fill="white"/>
<path d="M11.5389 3.90584C12.9459 3.14371 14.4322 2.5885 15.9599 2.2333C15.7633 2.19882 15.5668 2.16779 15.3737 2.1333C14.0046 2.4954 12.6665 3.01956 11.3975 3.70927L11.5389 3.90584Z" fill="white"/>
<path d="M28.8483 23.1826C28.8242 23.2447 28.7966 23.3033 28.7725 23.3654C28.8 23.3033 28.8242 23.2412 28.8483 23.1826Z" fill="white"/>
<path d="M28.6512 23.6248C28.6202 23.6868 28.5926 23.7489 28.5615 23.811C28.5926 23.7489 28.6236 23.6868 28.6512 23.6248Z" fill="white"/>
<path d="M10.8495 22.3867C10.5736 21.5073 10.4254 20.5796 10.415 19.6313C10.4012 18.4036 10.615 17.207 11.0426 16.0931L11.0116 16.1724L10.8081 16.031C10.0219 18.107 9.96669 20.39 10.6357 22.4936L10.8392 22.3453L10.8495 22.3867Z" fill="white"/>
<path d="M26.1797 12.1929C26.2213 12.2311 26.2665 12.2658 26.3081 12.3039C26.2665 12.2658 26.2248 12.2311 26.1797 12.1929Z" fill="white"/>
<path d="M27.168 13.1582C27.1992 13.1929 27.2304 13.2311 27.2617 13.2658C27.2304 13.2276 27.1992 13.1929 27.168 13.1582Z" fill="white"/>
<path d="M25.7617 11.8547C25.81 11.8927 25.8583 11.9271 25.9066 11.9651C25.8583 11.9306 25.81 11.8927 25.7617 11.8547Z" fill="white"/>
<path d="M23.7198 28.3491C24.744 27.918 25.6716 27.3179 26.4889 26.5662C23.5335 29.2905 19.2539 29.8147 15.7881 28.1215C15.8329 28.1456 15.8812 28.1697 15.926 28.1904L16.1881 28.3111L16.0502 28.5112C18.4435 29.5595 21.1644 29.6078 23.5853 28.6629L23.4404 28.4663L23.7198 28.3491Z" fill="white"/>
<path d="M26.8576 26.2078C26.7438 26.325 26.6266 26.4388 26.5059 26.5492C26.6231 26.4388 26.7404 26.325 26.8576 26.2078Z" fill="white"/>
<path d="M11.4846 35.0876L11.3467 35.2876C11.8743 35.5773 12.4157 35.8429 12.9641 36.0739C13.7883 36.4222 14.6332 36.7085 15.4953 36.9292C15.7298 36.9016 15.9677 36.8774 16.2057 36.8499C14.5745 36.4947 12.9847 35.9084 11.4846 35.0876Z" fill="white"/>
<path d="M16.3679 10.6411C17.468 10.1928 18.6543 9.94798 19.8785 9.93074C20.82 9.92039 21.7407 10.0445 22.6235 10.2963L22.5235 10.2652L22.6684 10.0549C20.5716 9.46518 18.3232 9.58589 16.292 10.4101L16.4368 10.6101L16.3679 10.6411Z" fill="white"/>
<path d="M28.5202 15.131C28.5133 15.1172 28.503 15.1034 28.4961 15.093C29.7548 17.5208 29.9135 20.3797 28.9548 22.9178C28.9651 22.8902 28.9754 22.8661 28.9858 22.8385L29.0961 22.5454L29.303 22.6867C30.1272 20.2555 29.9755 17.5725 28.8479 15.2413L28.6513 15.3862L28.5202 15.131Z" fill="white"/>
<path d="M8.14944 33.0533C8.09427 33.005 8.03565 32.9533 7.98047 32.905C8.03909 32.9533 8.09427 33.005 8.14944 33.0533Z" fill="white"/>
<path d="M5.71509 30.4491C5.67026 30.3905 5.62198 30.3318 5.57715 30.2698C5.62198 30.3318 5.66681 30.3905 5.71509 30.4491Z" fill="white"/>
<path d="M5.28418 9.16157C5.32211 9.10984 5.3566 9.05811 5.39454 9.00293C5.3566 9.05466 5.32211 9.10639 5.28418 9.16157Z" fill="white"/>
<path d="M4.81055 9.86129C4.84503 9.80611 4.87952 9.7544 4.91745 9.69922C4.88297 9.7544 4.84503 9.80611 4.81055 9.86129Z" fill="white"/>
<path d="M6.84338 31.7835C6.78131 31.718 6.72269 31.649 6.66406 31.5835C6.72269 31.6525 6.78131 31.718 6.84338 31.7835Z" fill="white"/>
<path d="M6.27307 31.1423C6.211 31.0699 6.15238 31.0009 6.09375 30.9285C6.15238 31.0009 6.211 31.0733 6.27307 31.1423Z" fill="white"/>
<path d="M35.2998 10.5235C36.1516 11.9719 36.7827 13.5099 37.1896 15.0997C37.2276 14.9411 37.2655 14.7859 37.3034 14.6272C36.8896 13.1547 36.2895 11.727 35.4964 10.3821L35.2998 10.5235Z" fill="white"/>
<path d="M27.4591 3.14376C26.7176 2.8058 25.9589 2.52646 25.1899 2.29541C24.9692 2.3161 24.752 2.33679 24.5312 2.35748C25.4831 2.60578 26.4141 2.93339 27.3211 3.34376L27.4591 3.14376Z" fill="white"/>
<path d="M2.3352 17.779C2.30761 17.4134 2.27658 17.0479 2.23864 16.6892C1.94897 18.5135 1.94208 20.3757 2.21451 22.2C2.26279 21.8965 2.30417 21.5965 2.33866 21.2896C2.2214 20.124 2.2214 18.9446 2.3352 17.779Z" fill="white"/>
<path d="M9.81543 4.68137C9.86716 4.64688 9.91889 4.60895 9.97407 4.57446C9.92234 4.60895 9.86716 4.64343 9.81543 4.68137Z" fill="white"/>
<path d="M29.6865 4.354C29.7282 4.38177 29.7698 4.40954 29.8115 4.4373C29.7733 4.40954 29.7316 4.38177 29.6865 4.354Z" fill="white"/>
<path d="M6.4082 7.72321C6.45993 7.66458 6.50821 7.60941 6.55994 7.55078C6.50821 7.60941 6.45993 7.66803 6.4082 7.72321Z" fill="white"/>
<path d="M8.37402 5.78222C8.41915 5.74404 8.4608 5.70585 8.50592 5.67114C8.4608 5.70932 8.41567 5.74751 8.37402 5.78222Z" fill="white"/>
<path d="M31.8829 33.0183C31.8071 33.0873 31.7243 33.1528 31.6484 33.2183C31.7243 33.1528 31.8036 33.0873 31.8829 33.0183Z" fill="white"/>
<path d="M15.0919 27.7456C15.0126 27.6973 14.9367 27.6525 14.8574 27.6042C14.9333 27.6525 15.0126 27.6973 15.0919 27.7456Z" fill="white"/>
<path d="M32.7441 32.2045C32.7855 32.1597 32.8304 32.1217 32.8752 32.0769C32.8821 32.07 32.8924 32.0597 32.8993 32.0493C32.8924 32.0597 32.8821 32.0665 32.8752 32.0769C32.8304 32.1217 32.7855 32.1631 32.7441 32.2045Z" fill="white"/>
<path d="M34.1459 30.6255C34.0941 30.6876 34.0459 30.7531 33.9941 30.8152C34.0424 30.7531 34.0941 30.691 34.1459 30.6255Z" fill="white"/>
<path d="M32.3862 32.5564C32.3138 32.6254 32.2414 32.6909 32.1689 32.7564C32.2414 32.6909 32.3172 32.6254 32.3862 32.5564Z" fill="white"/>
<path d="M7.40527 32.3594C7.41569 32.3698 7.42262 32.3802 7.43304 32.3906C7.42262 32.3802 7.41222 32.3698 7.40527 32.3594Z" fill="white"/>
<path d="M29.694 34.6699C29.632 34.7079 29.5699 34.7492 29.5078 34.7872C29.5699 34.7458 29.632 34.7079 29.694 34.6699Z" fill="white"/>
<path d="M10.0996 34.5398C10.0579 34.5121 10.0163 34.4843 9.97461 34.4565C10.0197 34.4843 10.0579 34.5121 10.0996 34.5398Z" fill="white"/>
<path d="M10.833 34.9945C10.8017 34.9771 10.7705 34.9563 10.7393 34.939C10.7705 34.9598 10.8017 34.9771 10.833 34.9945Z" fill="white"/>
<path d="M9.4835 34.1115C9.42487 34.0701 9.36624 34.0253 9.30762 33.9839C9.36279 34.0287 9.42487 34.0701 9.4835 34.1115Z" fill="white"/>
<path d="M29.0995 35.0325C29.0512 35.0635 28.9995 35.0911 28.9512 35.1187C28.9995 35.0911 29.0512 35.0601 29.0995 35.0325Z" fill="white"/>
<path d="M30.8209 33.8843C30.745 33.9429 30.6657 33.9981 30.5898 34.0533C30.6692 33.9981 30.745 33.9429 30.8209 33.8843Z" fill="white"/>
<path d="M31.3581 33.4629C31.2788 33.5284 31.1994 33.5905 31.1201 33.6526C31.1994 33.587 31.2788 33.525 31.3581 33.4629Z" fill="white"/>
<path d="M30.2656 34.2876C30.1966 34.3359 30.1242 34.3842 30.0518 34.4324C30.1242 34.3842 30.1931 34.3359 30.2656 34.2876Z" fill="white"/>
<path d="M31.7344 5.88184C31.8033 5.94046 31.8723 5.99909 31.9378 6.05772C31.8689 5.99909 31.7999 5.94046 31.7344 5.88184Z" fill="white"/>
<path d="M31.0508 5.32275C31.1301 5.38483 31.206 5.44344 31.2818 5.50552C31.206 5.44344 31.1301 5.38138 31.0508 5.32275Z" fill="white"/>
<path d="M21.6196 1.6056C20.5954 1.51249 19.5643 1.5125 18.54 1.59527C19.0263 1.6332 19.516 1.65389 20.0057 1.65389C20.5471 1.65044 21.0851 1.63319 21.6196 1.6056Z" fill="white"/>
<path d="M37.1904 15.0996C37.418 15.9928 37.5732 16.8998 37.6594 17.8136C37.6974 17.5205 37.7422 17.2274 37.7905 16.9377C37.6801 16.1618 37.5146 15.3893 37.3008 14.6306C37.2628 14.7824 37.2284 14.941 37.1904 15.0996Z" fill="white"/>
<path d="M15.9574 2.23273C18.7748 1.57751 21.7233 1.61543 24.5305 2.35343C24.7512 2.33273 24.9719 2.31205 25.1891 2.29481C24.0201 1.94305 22.8234 1.712 21.6199 1.6051C21.0853 1.63268 20.5474 1.64993 20.006 1.64993C19.5128 1.65338 19.0266 1.62924 18.5403 1.59131C17.4713 1.67752 16.4126 1.85685 15.3711 2.12928C15.5677 2.16722 15.7608 2.2017 15.9574 2.23273Z" fill="white"/>
<path d="M37.1221 24.1794C37.1566 24.3449 37.191 24.5139 37.2255 24.6795C37.46 23.8932 37.6393 23.0965 37.7635 22.2896C37.7187 21.9861 37.6773 21.6792 37.6462 21.3757C37.5428 22.3206 37.3704 23.2586 37.1221 24.1794Z" fill="white"/>
<path d="M2.83507 24.0385C2.59712 23.135 2.43159 22.2143 2.34193 21.29C2.30744 21.5935 2.26605 21.897 2.21777 22.2005C2.33502 22.9833 2.50745 23.7557 2.72471 24.5179C2.76265 24.3592 2.79713 24.2006 2.83507 24.0385Z" fill="white"/>
<path d="M2.95559 14.5518C2.93145 14.3656 2.90731 14.176 2.87972 13.9897C2.59694 14.8726 2.38312 15.7761 2.23828 16.6865C2.27622 17.0486 2.30725 17.4107 2.33484 17.7763C2.44175 16.69 2.64867 15.6105 2.95559 14.5518Z" fill="white"/>
<path d="M16.2055 36.8496C15.9676 36.8737 15.7296 36.9013 15.4951 36.9289C18.4264 37.6807 21.5059 37.6807 24.4372 36.9393C24.2165 36.9082 23.9958 36.8806 23.7751 36.8531C21.2818 37.3945 18.6988 37.391 16.2055 36.8496Z" fill="white"/>
<path d="M22.6682 10.0542L22.8165 9.84041C21.8716 9.56797 20.8853 9.43002 19.8749 9.44381C18.5713 9.46106 17.3126 9.72315 16.1436 10.206L16.2918 10.4094C18.3196 9.58522 20.5715 9.46451 22.6682 10.0542Z" fill="white"/>
<path d="M4.24939 27.1591C3.67693 25.9762 3.24586 24.7417 2.95618 23.4795C2.91825 23.6657 2.87686 23.8519 2.83203 24.0382C3.12516 25.1555 3.53209 26.2521 4.04593 27.3039L4.24939 27.1591Z" fill="white"/>
<path d="M35.7451 27.149L35.9486 27.2904C36.4383 26.2834 36.8314 25.242 37.1176 24.1798C37.0797 23.9902 37.0418 23.8039 37.0038 23.6143C36.7176 24.8247 36.2969 26.011 35.7451 27.149Z" fill="white"/>
<path d="M35.0996 10.6683C36.0169 12.2374 36.6721 13.9203 37.0618 15.6515C37.1032 15.4652 37.1446 15.2825 37.1894 15.0963C36.7825 13.5065 36.1514 11.9684 35.2996 10.52L35.0996 10.6683Z" fill="white"/>
<path d="M10.8055 16.0343L10.5986 15.8894C10.1434 17.0688 9.91237 18.3344 9.92961 19.638C9.9434 20.676 10.1124 21.6899 10.4262 22.6486L10.6366 22.4968C9.96409 20.3932 10.0227 18.1103 10.8055 16.0343Z" fill="white"/>
<path d="M2.3359 17.7791C2.2221 18.9481 2.2221 20.1241 2.33935 21.2897C2.39108 20.7896 2.42211 20.2862 2.42211 19.7827C2.41867 19.1033 2.38763 18.4377 2.3359 17.7791Z" fill="white"/>
<path d="M37.6417 21.3758C37.7659 20.1895 37.7728 18.9963 37.659 17.8135C37.5831 18.4135 37.5348 19.0239 37.5383 19.6378C37.5417 20.2206 37.5797 20.7999 37.6417 21.3758Z" fill="white"/>
<path d="M16.0471 28.511L15.9092 28.711C15.9609 28.7351 16.0126 28.7593 16.0644 28.78C18.5059 29.8145 21.2717 29.8318 23.727 28.8593L23.5822 28.6627C21.1579 29.6111 18.437 29.5628 16.0471 28.511Z" fill="white"/>
<path d="M11.6844 4.10572C13.257 3.26082 14.9295 2.67457 16.6469 2.34006C16.4158 2.30557 16.1848 2.27109 15.9572 2.23315C14.4329 2.58836 12.9431 3.14356 11.5361 3.90569L11.6844 4.10572Z" fill="white"/>
<path d="M4.39065 11.5821L4.18719 11.4407C3.67336 12.4442 3.26642 13.4857 2.95605 14.5513C2.98364 14.7685 3.01123 14.9858 3.03882 15.203C3.35264 13.9616 3.7975 12.7477 4.39065 11.5821Z" fill="white"/>
<path d="M29.299 22.6833L29.5024 22.8247C30.3749 20.3072 30.2197 17.5104 29.0403 15.0964L28.8438 15.2413C29.9714 17.569 30.1266 20.252 29.299 22.6833Z" fill="white"/>
<path d="M27.1798 3.54672L27.3212 3.33982C26.4142 2.92944 25.4797 2.60181 24.5313 2.35352C24.2727 2.37766 24.0106 2.39835 23.752 2.42249C24.921 2.67768 26.0728 3.05013 27.1798 3.54672Z" fill="white"/>
<path d="M22.9482 36.7567C23.2241 36.7843 23.5035 36.8188 23.7759 36.8533C25.3519 36.5119 26.8899 35.9532 28.3418 35.1807L28.1935 34.9807C26.5347 35.8566 24.7622 36.4498 22.9482 36.7567Z" fill="white"/>
<path d="M11.6258 34.8843L11.4844 35.0878C12.981 35.9085 14.5743 36.4948 16.202 36.85C16.4917 36.8189 16.7848 36.7913 17.0779 36.7637C15.1916 36.4499 13.35 35.8223 11.6258 34.8843Z" fill="white"/>
<path d="M37.0068 23.6143C37.0413 23.804 37.0793 23.9937 37.1206 24.1799C37.3724 23.2557 37.5448 22.3177 37.6414 21.3762C37.5793 20.8003 37.5414 20.2209 37.5379 19.6381C37.5345 19.0243 37.5827 18.4174 37.6586 17.8139C37.5724 16.9 37.4172 15.993 37.1896 15.0999C37.1448 15.2861 37.1034 15.4688 37.062 15.6551C37.6483 18.2725 37.631 21.0003 37.0068 23.6143Z" fill="white"/>
<path d="M3.03892 15.2065C3.01133 14.9892 2.98375 14.7719 2.95616 14.5547C2.64924 15.6134 2.44577 16.6928 2.33887 17.7791C2.38715 18.4378 2.42163 19.1033 2.42508 19.7827C2.42853 20.2896 2.3975 20.7931 2.34232 21.2897C2.43543 22.2139 2.59751 23.1347 2.83546 24.0382C2.87684 23.852 2.91823 23.6658 2.95616 23.4795C2.32852 20.7586 2.35266 17.917 3.03892 15.2065Z" fill="white"/>
<path d="M17.081 36.7635C16.7879 36.7911 16.4948 36.8187 16.2051 36.8497C18.6984 37.3911 21.2848 37.3946 23.7747 36.8532C23.4988 36.8187 23.2229 36.7876 22.947 36.7566C21.0055 37.0877 19.0226 37.0877 17.081 36.7635Z" fill="white"/>
<path d="M23.7508 2.4229C24.0128 2.40221 24.2715 2.37806 24.5301 2.35392C21.723 1.61593 18.7779 1.57456 15.957 2.23323C16.1846 2.27117 16.4157 2.30565 16.6467 2.34014C18.9918 1.88838 21.4126 1.91596 23.7508 2.4229Z" fill="white"/>
<path d="M11.1977 34.6495C10.9977 34.5288 10.7942 34.4081 10.5977 34.2805C10.7942 34.4081 10.9942 34.5323 11.1977 34.6495Z" fill="white"/>
<path d="M12.5986 26.345C12.7159 26.4726 12.84 26.6002 12.9642 26.7209C12.84 26.5967 12.7159 26.4726 12.5986 26.345Z" fill="white"/>
<path d="M11.3213 24.6277C11.3903 24.7415 11.4592 24.8553 11.5317 24.9691C11.4592 24.8587 11.3868 24.7449 11.3213 24.6277Z" fill="white"/>
<path d="M10.4774 34.2048C10.2602 34.0634 10.0429 33.9186 9.8291 33.7668C10.0429 33.9151 10.2567 34.0634 10.4774 34.2048Z" fill="white"/>
<path d="M9.78104 33.7292C9.58447 33.5878 9.39136 33.443 9.19824 33.2913C9.39136 33.4395 9.58447 33.5878 9.78104 33.7292Z" fill="white"/>
<path d="M13.5771 27.2729C13.753 27.4212 13.9358 27.5592 14.122 27.6937C13.9358 27.5592 13.7565 27.4178 13.5771 27.2729Z" fill="white"/>
<path d="M12.9639 26.7212C13.1328 26.8867 13.3053 27.0385 13.4812 27.1902C13.3053 27.0385 13.1294 26.8833 12.9639 26.7212Z" fill="white"/>
<path d="M12.2529 25.9524C12.3219 26.0352 12.3977 26.1179 12.4702 26.2007C12.3977 26.1179 12.3253 26.0386 12.2529 25.9524Z" fill="white"/>
<path d="M4.9975 28.5385C4.86645 28.3213 4.73886 28.1006 4.61816 27.8799C4.74231 28.104 4.86645 28.3213 4.9975 28.5385Z" fill="white"/>
<path d="M15.4147 28.4801C15.2009 28.3698 14.9906 28.256 14.7871 28.1318C14.994 28.256 15.2044 28.3732 15.4147 28.4801Z" fill="white"/>
<path d="M11.9297 25.5417C11.9918 25.6245 12.0573 25.7073 12.1228 25.7866C12.0538 25.7038 11.9918 25.6245 11.9297 25.5417Z" fill="white"/>
<path d="M9.06275 33.184C8.86619 33.0288 8.67652 32.8667 8.4834 32.7012C8.67307 32.8667 8.86619 33.0253 9.06275 33.184Z" fill="white"/>
<path d="M5.99074 30.0145C5.65278 29.5662 5.33896 29.1041 5.05273 28.6282C5.34241 29.1075 5.65623 29.5696 5.99074 30.0145Z" fill="white"/>
<path d="M4.46582 27.6004C4.50375 27.6763 4.54858 27.7487 4.58651 27.8211C4.54513 27.7453 4.51065 27.6694 4.47271 27.5935L4.46582 27.6004Z" fill="white"/>
<path d="M11.6191 25.1003C11.6812 25.1935 11.7467 25.2866 11.8123 25.3762C11.7467 25.2866 11.6812 25.1969 11.6191 25.1003Z" fill="white"/>
<path d="M8.35658 32.5838C8.16346 32.4148 7.97379 32.2389 7.79102 32.0562C7.97379 32.2389 8.16346 32.4114 8.35658 32.5838Z" fill="white"/>
<path d="M10.5947 23.1245C10.7809 23.6177 11.0086 24.0935 11.2741 24.5522C11.012 24.097 10.7844 23.6211 10.5947 23.1245Z" fill="white"/>
<path d="M7.03617 31.2769C6.90168 31.132 6.77408 30.9838 6.64648 30.832C6.77408 30.9803 6.90513 31.1286 7.03617 31.2769Z" fill="white"/>
<path d="M13.2703 12.0198C13.222 12.0612 13.1737 12.1025 13.1289 12.1474C13.1737 12.106 13.222 12.0646 13.2703 12.0198Z" fill="white"/>
<path d="M4.61523 11.1471L4.62213 11.1505C4.67386 11.054 4.72558 10.954 4.78076 10.8574C4.72558 10.954 4.66696 11.0505 4.61523 11.1471Z" fill="white"/>
<path d="M5.80859 9.26481C5.96033 9.05445 6.11551 8.84409 6.28104 8.64062C6.11551 8.84409 5.96033 9.051 5.80859 9.26481Z" fill="white"/>
<path d="M10.791 15.4308C10.9703 15.0273 11.1738 14.6376 11.4014 14.2617C11.1704 14.6376 10.9669 15.0273 10.791 15.4308Z" fill="white"/>
<path d="M11.2576 4.34375C11.1542 4.40582 11.0507 4.46789 10.9473 4.52996C11.0507 4.46789 11.1576 4.40928 11.2611 4.35065L11.2576 4.34375Z" fill="white"/>
<path d="M8.18457 6.59541C8.37769 6.41953 8.57425 6.24366 8.77082 6.07812C8.57425 6.2471 8.37769 6.41953 8.18457 6.59541Z" fill="white"/>
<path d="M11.6287 13.9067C11.5598 14.0102 11.4908 14.1137 11.4287 14.2206C11.4942 14.1137 11.5598 14.0102 11.6287 13.9067Z" fill="white"/>
<path d="M6.31152 8.59905C6.46671 8.40593 6.62534 8.21625 6.78743 8.03003C6.62534 8.21625 6.46326 8.40593 6.31152 8.59905Z" fill="white"/>
<path d="M11.8844 13.5444C11.8223 13.6272 11.7637 13.7134 11.7051 13.7962C11.7637 13.7134 11.8223 13.6306 11.8844 13.5444Z" fill="white"/>
<path d="M12.165 13.186C12.1132 13.2516 12.0615 13.3171 12.0098 13.3861C12.058 13.3171 12.1098 13.2516 12.165 13.186Z" fill="white"/>
<path d="M7.46777 7.28843C7.65744 7.09532 7.84712 6.90909 8.04369 6.72632C7.84712 6.90909 7.654 7.09532 7.46777 7.28843Z" fill="white"/>
<path d="M9.54395 5.47474C9.75431 5.31956 9.96467 5.16437 10.1785 5.01953C9.96467 5.16437 9.75086 5.31611 9.54395 5.47474Z" fill="white"/>
<path d="M13.6751 11.6753C13.6096 11.727 13.544 11.7822 13.4785 11.8374C13.544 11.7822 13.6096 11.7305 13.6751 11.6753Z" fill="white"/>
<path d="M10.1846 5.01576C10.4191 4.85712 10.6536 4.70539 10.895 4.56055C10.6536 4.70539 10.4156 4.85712 10.1846 5.01576Z" fill="white"/>
<path d="M15.6889 10.4097C15.2923 10.5959 14.9061 10.8097 14.5371 11.0476C14.9061 10.8131 15.2923 10.5993 15.6889 10.4097Z" fill="white"/>
<path d="M4.83203 10.7645C4.96652 10.53 5.10792 10.2989 5.25276 10.0713C5.10792 10.2989 4.96997 10.53 4.83203 10.7645Z" fill="white"/>
<path d="M6.92578 7.87532C7.10166 7.67875 7.28098 7.48218 7.46721 7.28906C7.28098 7.47873 7.10166 7.6753 6.92578 7.87532Z" fill="white"/>
<path d="M5.29004 10.0165C5.42108 9.81649 5.55558 9.61646 5.69352 9.42334C5.55558 9.61991 5.41764 9.81649 5.29004 10.0165Z" fill="white"/>
<path d="M34.1318 9.19214C34.218 9.30939 34.3008 9.42665 34.3836 9.54735C34.3043 9.42665 34.218 9.30939 34.1318 9.19214Z" fill="white"/>
<path d="M28.8107 14.6411C28.7038 14.4479 28.5865 14.2583 28.4658 14.0686C28.5865 14.2548 28.7003 14.4445 28.8107 14.6411Z" fill="white"/>
<path d="M28.4137 13.9892C28.2861 13.796 28.1551 13.6064 28.0137 13.4236C28.1551 13.6064 28.2896 13.796 28.4137 13.9892Z" fill="white"/>
<path d="M27.9933 13.3925C27.8657 13.2269 27.7346 13.0683 27.5967 12.9097C27.7346 13.0649 27.8657 13.2269 27.9933 13.3925Z" fill="white"/>
<path d="M30.9824 5.88867C31.1342 6.00937 31.2824 6.13698 31.4307 6.26457C31.2859 6.13698 31.1342 6.00937 30.9824 5.88867Z" fill="white"/>
<path d="M30.2852 5.35059C30.4507 5.47129 30.6162 5.59544 30.7817 5.72649C30.6162 5.59889 30.4507 5.47473 30.2852 5.35059Z" fill="white"/>
<path d="M28.7412 4.34692C29.2171 4.61936 29.6792 4.91937 30.1344 5.24009C29.6827 4.91937 29.2206 4.62281 28.7412 4.34692Z" fill="white"/>
<path d="M23.2959 9.9993C23.8132 10.1786 24.3098 10.3959 24.7857 10.6545C24.3063 10.3959 23.8097 10.1752 23.2994 9.99585L23.2959 9.9993Z" fill="white"/>
<path d="M25.2206 10.9028C25.0999 10.8304 24.9757 10.7579 24.8516 10.689C24.9757 10.7579 25.0999 10.8269 25.2206 10.9028Z" fill="white"/>
<path d="M27.6275 3.75391L27.624 3.76081C27.7137 3.80564 27.8068 3.84703 27.8965 3.89186C27.8068 3.84703 27.7171 3.79874 27.6275 3.75391Z" fill="white"/>
<path d="M26.492 11.8198C26.4058 11.7473 26.3196 11.6749 26.2334 11.606C26.3231 11.6749 26.4058 11.7473 26.492 11.8198Z" fill="white"/>
<path d="M28.0029 3.94727C28.2167 4.05762 28.4271 4.17144 28.6375 4.28869C28.4271 4.17144 28.2167 4.05417 28.0029 3.94727Z" fill="white"/>
<path d="M34.8522 10.2478C34.7936 10.1547 34.7281 10.065 34.666 9.97192C34.7281 10.065 34.7867 10.1581 34.8453 10.2547L34.8522 10.2478Z" fill="white"/>
<path d="M31.6211 6.427C31.8246 6.60978 32.0246 6.79255 32.2211 6.98567C32.0246 6.79255 31.8246 6.60633 31.6211 6.427Z" fill="white"/>
<path d="M27.5439 3.44713C27.6301 3.48851 27.7163 3.53334 27.8025 3.57473C27.9163 3.6299 28.0267 3.68507 28.1405 3.74025C28.2957 3.81957 28.4509 3.90577 28.606 3.99199C28.7302 4.06096 28.8578 4.13338 28.9819 4.2058C29.1578 4.30925 29.3337 4.41618 29.5096 4.52653C29.6027 4.58516 29.6923 4.64722 29.782 4.70584C29.9199 4.79895 30.0579 4.88861 30.1958 4.98517C30.2889 5.05069 30.3786 5.11622 30.4717 5.18519C30.6062 5.2852 30.7407 5.38521 30.8752 5.48867C30.9614 5.55419 31.0476 5.62315 31.1304 5.69212C31.2752 5.80937 31.4166 5.93009 31.558 6.05078C31.627 6.10941 31.6994 6.17149 31.7684 6.23012C31.9787 6.41634 32.1856 6.606 32.3891 6.80602C32.5857 6.99569 32.7719 7.19226 32.9581 7.39228C32.9961 7.43366 33.0374 7.47504 33.0754 7.51987C33.2547 7.71299 33.4271 7.90954 33.5961 8.10956C33.6237 8.14405 33.6513 8.17855 33.6789 8.20958C33.8306 8.39236 33.9789 8.57858 34.1237 8.76825C34.1513 8.80273 34.1789 8.83722 34.2065 8.87515C34.3617 9.08206 34.51 9.29243 34.6548 9.50279C34.6858 9.55107 34.7203 9.59934 34.7514 9.64417C34.8928 9.85798 35.0341 10.0718 35.1686 10.2925C35.1721 10.2959 35.1755 10.3028 35.179 10.3063C35.2204 10.3753 35.2583 10.4477 35.2997 10.5167L35.4963 10.3753C35.3135 10.0614 35.1204 9.75107 34.9169 9.4476C34.9066 9.43036 34.8928 9.41313 34.8824 9.39589C34.7238 9.16138 34.5582 8.93033 34.3893 8.70272C34.3755 8.68203 34.3582 8.6648 34.3444 8.6441C34.1927 8.44064 34.0341 8.24406 33.8685 8.04749C33.841 8.013 33.8099 7.97507 33.7823 7.94059C33.6134 7.74057 33.4375 7.54056 33.2581 7.34744C33.2168 7.30261 33.1754 7.26123 33.1375 7.2164C32.9512 7.01638 32.7615 6.81981 32.565 6.62669C32.3615 6.42667 32.1512 6.237 31.9408 6.04733C31.8718 5.98871 31.8029 5.93008 31.7373 5.87145C31.5891 5.74386 31.4407 5.61972 31.289 5.49557C31.2131 5.4335 31.1338 5.37141 31.058 5.31279C30.9062 5.19554 30.7545 5.07828 30.5993 4.96448C30.5269 4.91275 30.4545 4.85759 30.382 4.80586C30.1958 4.67482 30.0096 4.54721 29.8199 4.42651C29.7785 4.39892 29.7372 4.37133 29.6958 4.34375C29.2095 4.03338 28.7095 3.74715 28.2026 3.48506C28.175 3.47127 28.1474 3.45747 28.1198 3.44368C27.906 3.33677 27.6887 3.23331 27.468 3.1333L27.3301 3.33332C27.3956 3.37815 27.468 3.41609 27.5439 3.44713Z" fill="white"/>
<path d="M22.6234 10.2922C22.9993 10.3991 23.3718 10.5267 23.7304 10.6784C24.2925 10.9163 24.834 11.2095 25.3444 11.5578C25.3788 11.5819 25.4168 11.6061 25.4513 11.6336C25.5547 11.7061 25.6582 11.7785 25.7582 11.8578C25.8065 11.8957 25.8547 11.9302 25.903 11.9681C25.9961 12.0406 26.0892 12.1164 26.1789 12.1923C26.2203 12.2268 26.2651 12.2647 26.3065 12.2992C26.4376 12.413 26.5651 12.5303 26.6893 12.651C26.8548 12.8131 27.0135 12.982 27.1652 13.1544C27.1962 13.1889 27.2273 13.2269 27.2583 13.2613C27.41 13.4372 27.5549 13.6166 27.6894 13.7993C27.6997 13.8166 27.7101 13.8304 27.7239 13.8476C27.8618 14.0373 27.9929 14.2304 28.117 14.427C28.1273 14.4408 28.1342 14.4545 28.1446 14.4683C28.2687 14.6718 28.386 14.8787 28.4963 15.0891C28.5032 15.1029 28.5101 15.1167 28.5205 15.1305L28.6515 15.3822L28.8481 15.2374C28.8136 15.165 28.7722 15.0891 28.7343 15.0167C28.6757 14.9029 28.6136 14.7925 28.5515 14.6787C28.5481 14.6753 28.5481 14.6718 28.5481 14.6684C28.3722 14.358 28.1791 14.058 27.9687 13.7648C27.9446 13.7338 27.9239 13.7028 27.9032 13.6717C27.8549 13.6062 27.8032 13.5407 27.7514 13.4752C27.7066 13.4165 27.6618 13.3614 27.617 13.3062C27.5721 13.251 27.5273 13.1958 27.4825 13.1441C27.4204 13.0717 27.3583 13.0027 27.2962 12.9337C27.2583 12.8924 27.2238 12.851 27.1859 12.8096C27.0824 12.6992 26.9755 12.5889 26.8652 12.482C26.8652 12.482 26.8652 12.482 26.8617 12.4785C26.7272 12.3475 26.5893 12.2233 26.4513 12.1026C26.41 12.0647 26.3651 12.0302 26.3238 11.9957C26.2237 11.9095 26.1203 11.8268 26.0168 11.7475C25.972 11.713 25.9237 11.675 25.8754 11.6405C25.7685 11.5612 25.6616 11.4853 25.5547 11.4095C25.5133 11.3819 25.4719 11.3543 25.4306 11.3267C25.303 11.244 25.1754 11.1612 25.0443 11.0819C25.0202 11.0681 24.9995 11.0543 24.9754 11.0405C24.3167 10.6542 23.627 10.3508 22.9131 10.1301C22.8304 10.1059 22.751 10.0783 22.6683 10.0542L22.5234 10.2646L22.6234 10.2922Z" fill="white"/>
<path d="M28.6064 3.99561C28.7306 4.06458 28.8582 4.13699 28.9823 4.20941C28.8582 4.13355 28.734 4.06458 28.6064 3.99561Z" fill="white"/>
<path d="M34.6553 9.5061C34.6863 9.55438 34.7208 9.60265 34.7518 9.64748C34.7208 9.59921 34.6898 9.55438 34.6553 9.5061Z" fill="white"/>
<path d="M27.5457 3.45041C27.4698 3.41592 27.3974 3.37799 27.325 3.34351L27.1836 3.55043C27.2595 3.58492 27.3319 3.62285 27.4043 3.65734L27.5457 3.45041Z" fill="white"/>
<path d="M34.1279 8.77173C34.1557 8.80644 34.1835 8.84115 34.2112 8.87933C34.18 8.84462 34.1522 8.80644 34.1279 8.77173Z" fill="white"/>
<path d="M27.8066 3.57471C27.9204 3.62988 28.0308 3.68506 28.1446 3.74368C28.0308 3.68506 27.917 3.62988 27.8066 3.57471Z" fill="white"/>
<path d="M34.9795 10.4578C35.0209 10.5268 35.0588 10.5992 35.1002 10.6716L35.3002 10.5268C35.2588 10.4578 35.2209 10.3854 35.1795 10.313L34.9795 10.4578Z" fill="white"/>
<path d="M26.8589 12.479C26.8589 12.479 26.8589 12.479 26.8555 12.4756C26.8555 12.4756 26.8555 12.4756 26.8589 12.479Z" fill="white"/>
<path d="M35.1689 10.2959C35.173 10.3041 35.1771 10.3082 35.1812 10.3122C35.173 10.3082 35.1689 10.3 35.1689 10.2959Z" fill="white"/>
<path d="M27.6133 13.3062C27.6581 13.3613 27.7029 13.42 27.7478 13.4786C27.7029 13.4165 27.6581 13.3613 27.6133 13.3062Z" fill="white"/>
<path d="M28.7334 15.0169C28.7713 15.0893 28.8093 15.1652 28.8472 15.2376L29.0438 15.0928C29.0093 15.0203 28.9714 14.9479 28.9334 14.8721L28.7334 15.0169Z" fill="white"/>
<path d="M25.875 11.6377C25.9233 11.6722 25.9681 11.7067 26.0164 11.7446C25.9681 11.7101 25.9198 11.6756 25.875 11.6377Z" fill="white"/>
<path d="M22.9128 10.1305L23.0577 9.9201C22.9783 9.89251 22.8956 9.86838 22.8163 9.84424L22.668 10.058C22.7507 10.0787 22.8301 10.1029 22.9128 10.1305Z" fill="white"/>
<path d="M30.876 5.49194C30.9622 5.55747 31.0484 5.62643 31.1312 5.6954C31.0484 5.62643 30.9622 5.56091 30.876 5.49194Z" fill="white"/>
<path d="M24.9717 11.0371C24.996 11.051 25.0168 11.0649 25.0411 11.0788C25.0203 11.0649 24.996 11.051 24.9717 11.0371Z" fill="white"/>
<path d="M32.9629 7.39575C33.0011 7.4374 33.0427 7.48255 33.0809 7.5242C33.0427 7.47907 33.0011 7.4374 32.9629 7.39575Z" fill="white"/>
<path d="M27.8994 13.6721C27.9237 13.7034 27.9445 13.7346 27.9654 13.7658C27.9445 13.7381 27.9237 13.7034 27.8994 13.6721Z" fill="white"/>
<path d="M33.5996 8.11328C33.6274 8.14799 33.6551 8.18271 33.6829 8.21395C33.6551 8.17924 33.6274 8.14452 33.5996 8.11328Z" fill="white"/>
<path d="M28.5479 14.6721C28.5479 14.6765 28.5522 14.6809 28.5522 14.6852C28.5522 14.6765 28.5479 14.6721 28.5479 14.6721Z" fill="white"/>
<path d="M26.3203 11.9927C26.362 12.0274 26.4071 12.0621 26.4487 12.1003C26.4071 12.0656 26.362 12.0309 26.3203 11.9927Z" fill="white"/>
<path d="M27.9688 13.7686C28.1791 14.0617 28.3722 14.3617 28.5481 14.6721C28.3722 14.3617 28.1791 14.0582 27.9688 13.7686Z" fill="white"/>
<path d="M28.5518 14.679C28.6138 14.7893 28.6759 14.9031 28.7345 15.0169C28.6759 14.9031 28.6173 14.7893 28.5518 14.679Z" fill="white"/>
<path d="M34.207 8.87891C34.3622 9.08582 34.5105 9.29618 34.6553 9.50655C34.5105 9.29274 34.3622 9.08582 34.207 8.87891Z" fill="white"/>
<path d="M27.5449 3.44702C27.6311 3.49185 27.7173 3.53323 27.8036 3.57462C27.7173 3.53323 27.6346 3.4884 27.5449 3.44702Z" fill="white"/>
<path d="M33.0801 7.52002C33.2594 7.71314 33.4318 7.90969 33.6008 8.10971C33.4318 7.91314 33.2594 7.71659 33.0801 7.52002Z" fill="white"/>
<path d="M34.751 9.64746C34.8924 9.86127 35.0337 10.0751 35.1648 10.2958C35.0337 10.0751 34.8958 9.86127 34.751 9.64746Z" fill="white"/>
<path d="M27.4795 13.1409C27.5243 13.196 27.5692 13.2478 27.614 13.3029C27.5692 13.2512 27.5243 13.196 27.4795 13.1409Z" fill="white"/>
<path d="M26.4473 12.0994C26.5852 12.2201 26.7232 12.3442 26.8576 12.4753C26.7232 12.3477 26.5852 12.2235 26.4473 12.0994Z" fill="white"/>
<path d="M28.9814 4.20581C29.1573 4.30927 29.3332 4.41619 29.5091 4.52654C29.3332 4.41619 29.1573 4.31272 28.9814 4.20581Z" fill="white"/>
<path d="M31.1309 5.6958C31.2757 5.81305 31.4171 5.93376 31.5585 6.05446C31.4205 5.93376 31.2757 5.81305 31.1309 5.6958Z" fill="white"/>
<path d="M25.5498 11.4097C25.6567 11.4855 25.7636 11.5614 25.8705 11.6407C25.7671 11.5579 25.6602 11.4821 25.5498 11.4097Z" fill="white"/>
<path d="M29.7822 4.70947C29.9202 4.80258 30.0581 4.89569 30.1961 4.9888C30.0581 4.89225 29.9202 4.79914 29.7822 4.70947Z" fill="white"/>
<path d="M26.0127 11.7444C26.1162 11.8237 26.2162 11.9099 26.3196 11.9927C26.2196 11.9099 26.1162 11.8237 26.0127 11.7444Z" fill="white"/>
<path d="M24.9714 11.0378C24.3127 10.6516 23.623 10.3481 22.9092 10.1274C23.623 10.3481 24.3162 10.6516 24.9714 11.0378Z" fill="white"/>
<path d="M32.9627 7.39553C32.7764 7.19896 32.5902 7.00239 32.3937 6.81272C32.1902 6.61615 31.9833 6.42304 31.7764 6.23682C31.9867 6.42304 32.1936 6.6127 32.3937 6.81272C32.5868 7.00239 32.7764 7.19551 32.9627 7.39553Z" fill="white"/>
<path d="M27.627 3.75391C27.7167 3.79875 27.8063 3.84703 27.896 3.89186C27.9305 3.90911 27.9684 3.92634 28.0029 3.94703C28.2167 4.05739 28.4271 4.17121 28.6374 4.28846C28.6719 4.30915 28.7064 4.32638 28.7409 4.34708C29.2203 4.62296 29.6824 4.91952 30.1341 5.24024C30.1858 5.27473 30.2341 5.31266 30.2859 5.3506C30.4548 5.4713 30.6204 5.5989 30.7824 5.7265C30.8514 5.78167 30.9169 5.83339 30.9859 5.88857C31.1376 6.00927 31.2859 6.13687 31.4342 6.26447C31.4963 6.31965 31.5584 6.37137 31.6204 6.42654C31.8239 6.60932 32.0274 6.79209 32.2205 6.98521C32.455 7.21626 32.6826 7.45423 32.9033 7.69218C32.9757 7.77149 33.0447 7.85081 33.1137 7.93013C33.2585 8.09566 33.4033 8.26117 33.5413 8.43015C33.6241 8.53016 33.7034 8.63362 33.7861 8.73708C33.9034 8.88881 34.0206 9.04055 34.131 9.19229C34.2172 9.30954 34.3 9.4268 34.3827 9.5475C34.4793 9.68544 34.5724 9.82682 34.6655 9.96821C34.7276 10.0613 34.7931 10.151 34.8517 10.2441L34.8483 10.2475C34.8897 10.3165 34.9379 10.3855 34.9793 10.4545L35.1794 10.3096C35.1759 10.3062 35.1724 10.2993 35.169 10.2958C35.0345 10.0786 34.8966 9.86131 34.7517 9.6475C34.7207 9.59922 34.6896 9.55095 34.6552 9.50612C34.5103 9.29576 34.362 9.08539 34.2069 8.87848C34.1793 8.844 34.1517 8.80951 34.1241 8.77158C33.9793 8.58191 33.831 8.39569 33.6792 8.21291C33.6516 8.17843 33.624 8.14393 33.5965 8.11289C33.4275 7.91287 33.255 7.71632 33.0757 7.5232C33.0378 7.48182 32.9964 7.43697 32.9585 7.39559C32.7723 7.19902 32.586 7.00247 32.3895 6.80935C32.186 6.61278 31.9791 6.4231 31.7687 6.23688C31.6998 6.1748 31.6273 6.11619 31.5584 6.05411C31.417 5.93341 31.2721 5.8127 31.1308 5.69545C31.0445 5.62648 30.9618 5.56097 30.8756 5.492C30.7411 5.38854 30.6066 5.28853 30.4721 5.18852C30.379 5.123 30.2893 5.05402 30.1962 4.9885C30.0582 4.89194 29.9203 4.79883 29.7824 4.70917C29.6927 4.6471 29.5996 4.58846 29.5099 4.52984C29.3341 4.41948 29.1616 4.31258 28.9823 4.20913C28.8581 4.13671 28.734 4.06429 28.6064 3.99532C28.4512 3.9091 28.296 3.8229 28.1408 3.74358C28.0305 3.68495 27.9167 3.62978 27.8029 3.5746C27.7167 3.53322 27.627 3.49182 27.5408 3.45044L27.3994 3.65391C27.4718 3.6884 27.5477 3.72633 27.6201 3.76082L27.627 3.75391Z" fill="white"/>
<path d="M24.9714 11.0371C24.9955 11.0509 25.0162 11.0647 25.0404 11.0785C25.1714 11.1578 25.299 11.2371 25.4266 11.3233C25.468 11.3509 25.5094 11.3785 25.5508 11.4061C25.6577 11.482 25.7646 11.5578 25.8715 11.6372C25.9198 11.6716 25.9646 11.7061 26.0129 11.7441C26.1163 11.8234 26.2198 11.9096 26.3198 11.9923C26.3612 12.0268 26.406 12.0613 26.4474 12.0992C26.5853 12.2199 26.7233 12.3441 26.8578 12.4751C26.8578 12.4751 26.8578 12.4751 26.8612 12.4751C26.9716 12.5821 27.0785 12.6924 27.1819 12.8028C27.2199 12.8441 27.2578 12.8855 27.2958 12.9269C27.3578 12.9959 27.4199 13.0683 27.482 13.1373C27.5268 13.1924 27.5716 13.2442 27.6165 13.2994C27.6613 13.3545 27.7061 13.4132 27.7509 13.4683C27.8027 13.5339 27.8544 13.5994 27.9027 13.6649C27.9268 13.6959 27.9475 13.727 27.9682 13.758C28.1786 14.0511 28.3751 14.3512 28.5476 14.6615C28.551 14.665 28.551 14.6684 28.551 14.6719C28.6131 14.7822 28.6752 14.896 28.7338 15.0098L28.9304 14.865C28.889 14.7857 28.8476 14.7098 28.8062 14.6305C28.6993 14.4339 28.5821 14.2442 28.4614 14.058C28.4441 14.0304 28.4269 14.0063 28.4096 13.9787C28.282 13.7856 28.151 13.5959 28.0096 13.4131C28.0027 13.4028 27.9958 13.3925 27.9855 13.3856C27.8579 13.22 27.7268 13.058 27.5889 12.9028C27.5544 12.8614 27.5165 12.8235 27.482 12.7821C27.3337 12.6165 27.1819 12.4545 27.0233 12.2993C26.8957 12.1751 26.7647 12.0544 26.6336 11.9406C26.5853 11.8992 26.5371 11.8578 26.4853 11.8165C26.3991 11.744 26.3163 11.6716 26.2267 11.6027C26.1715 11.5578 26.1129 11.5164 26.0543 11.4716C25.9715 11.4095 25.8853 11.344 25.7991 11.2819C25.7439 11.244 25.6887 11.2061 25.6335 11.1681C25.537 11.1026 25.4404 11.0371 25.3439 10.9785C25.299 10.9509 25.2542 10.9233 25.2128 10.8957C25.0921 10.8233 24.968 10.7509 24.8438 10.6819C24.8231 10.6716 24.8024 10.6578 24.7817 10.6474C24.3058 10.3922 23.8092 10.1715 23.292 9.99219L23.2954 9.98873C23.2161 9.96115 23.1333 9.93701 23.054 9.90942L22.9092 10.1198C23.623 10.3474 24.3162 10.6508 24.9714 11.0371Z" fill="white"/>
<path d="M28.9443 24.1346C28.9823 24.0587 29.0202 23.9829 29.0547 23.907C29.0168 23.9829 28.9823 24.0587 28.9443 24.1346Z" fill="white"/>
<path d="M29.2647 23.4453C29.2302 23.5315 29.1922 23.6143 29.1543 23.7005C29.1922 23.6143 29.2302 23.5281 29.2647 23.4453Z" fill="white"/>
<path d="M32.5034 31.7598C32.3241 31.9425 32.1413 32.1184 31.9551 32.2943C32.1413 32.1184 32.3275 31.9425 32.5034 31.7598Z" fill="white"/>
<path d="M26.5996 27.1188C26.6274 27.0945 26.6551 27.0702 26.6794 27.0459C26.6517 27.0702 26.6239 27.0945 26.5996 27.1188Z" fill="white"/>
<path d="M25.9814 27.6116C26.0057 27.5943 26.0266 27.5769 26.0508 27.5596C26.03 27.5769 26.0057 27.5943 25.9814 27.6116Z" fill="white"/>
<path d="M28.7129 24.5593C28.7474 24.4972 28.7819 24.4351 28.8163 24.373C28.7784 24.4351 28.7474 24.4972 28.7129 24.5593Z" fill="white"/>
<path d="M35.5311 27.5938L35.5277 27.5903C35.2966 28.0386 35.0449 28.4766 34.7725 28.9043C35.0414 28.4766 35.2966 28.0421 35.5311 27.5938Z" fill="white"/>
<path d="M28.1787 25.3874C28.2099 25.3458 28.2342 25.3041 28.2655 25.2625C28.2342 25.3041 28.2065 25.3458 28.1787 25.3874Z" fill="white"/>
<path d="M27.875 25.7878C27.9028 25.7531 27.9305 25.7149 27.9583 25.6768C27.9305 25.7149 27.9028 25.7497 27.875 25.7878Z" fill="white"/>
<path d="M28.4551 24.9764C28.4861 24.9282 28.5172 24.8764 28.5482 24.8247C28.5172 24.8764 28.4896 24.9282 28.4551 24.9764Z" fill="white"/>
<path d="M33.0686 31.1526C32.8996 31.3423 32.7272 31.5319 32.5479 31.7147C32.7272 31.5285 32.8996 31.3423 33.0686 31.1526Z" fill="white"/>
<path d="M28.6236 34.7462C28.7684 34.6634 28.9132 34.5772 29.0546 34.491C28.9098 34.5772 28.765 34.6565 28.6201 34.7393L28.6236 34.7462Z" fill="white"/>
<path d="M31.7887 32.4456C31.6231 32.5973 31.4541 32.7456 31.2852 32.887C31.4576 32.7421 31.6231 32.5973 31.7887 32.4456Z" fill="white"/>
<path d="M29.7727 34.0354C29.5485 34.1871 29.3209 34.332 29.0898 34.4734C29.3174 34.3354 29.5451 34.1871 29.7727 34.0354Z" fill="white"/>
<path d="M24.7197 28.4086C24.727 28.405 24.7379 28.3977 24.7452 28.394C24.7343 28.4013 24.727 28.405 24.7197 28.4086Z" fill="white"/>
<path d="M31.19 32.9736C30.99 33.1426 30.7831 33.3012 30.5762 33.4599C30.7865 33.3012 30.99 33.1392 31.19 32.9736Z" fill="white"/>
<path d="M10.8496 22.3867C11.0945 23.173 11.4428 23.9248 11.8876 24.6248C11.5014 24.011 11.1876 23.3558 10.9462 22.6591L10.8496 22.3867Z" fill="white"/>
<path d="M7.40489 32.3596C7.21177 32.1699 7.02555 31.9803 6.84277 31.7837C7.02555 31.9803 7.21177 32.1734 7.40489 32.3596Z" fill="white"/>
<path d="M5.57727 30.2702C5.05654 29.5736 4.59443 28.8494 4.1875 28.1045C4.59788 28.8597 5.05998 29.5839 5.57727 30.2702Z" fill="white"/>
<path d="M6.6641 31.5872C6.53306 31.4423 6.40201 31.294 6.27441 31.1458C6.40201 31.294 6.52961 31.4389 6.6641 31.5872Z" fill="white"/>
<path d="M7.98323 32.9045C7.8039 32.7424 7.62802 32.5804 7.45215 32.4114C7.62458 32.5769 7.8039 32.7424 7.98323 32.9045Z" fill="white"/>
<path d="M3.8457 27.4525L3.93882 27.6352C4.00779 27.7697 4.08021 27.9008 4.14918 28.0318C4.04572 27.8387 3.94571 27.6421 3.84916 27.4456L3.8457 27.4525Z" fill="white"/>
<path d="M14.857 27.604C14.8018 27.5695 14.7466 27.5316 14.6914 27.4937C14.7466 27.5316 14.8018 27.5661 14.857 27.604Z" fill="white"/>
<path d="M8.63319 33.4599C8.4711 33.3289 8.30902 33.1909 8.15039 33.053C8.30902 33.1909 8.4711 33.3254 8.63319 33.4599Z" fill="white"/>
<path d="M11.1493 35.184L11.3424 35.2944L11.3459 35.2909C11.1734 35.1978 11.001 35.1013 10.832 34.9978C10.9389 35.0599 11.0424 35.1219 11.1493 35.184Z" fill="white"/>
<path d="M14.1189 27.0801C14.0706 27.0421 14.0258 27.0077 13.9775 26.9697C14.0224 27.0077 14.0706 27.0456 14.1189 27.0801Z" fill="white"/>
<path d="M9.97752 34.4567C9.81199 34.3463 9.64646 34.2291 9.48438 34.1118C9.64646 34.2291 9.81199 34.3429 9.97752 34.4567Z" fill="white"/>
<path d="M15.3987 27.9217C15.2953 27.8666 15.1918 27.8079 15.0918 27.7458C15.1918 27.8045 15.2953 27.8631 15.3987 27.9217Z" fill="white"/>
<path d="M15.7845 28.1215C15.7189 28.0904 15.6534 28.0594 15.5879 28.0249C15.6534 28.0559 15.7189 28.0904 15.7845 28.1215Z" fill="white"/>
<path d="M14.4843 27.3523C14.4326 27.3144 14.3808 27.2765 14.3291 27.2385C14.3808 27.2799 14.4326 27.3178 14.4843 27.3523Z" fill="white"/>
<path d="M12.1665 25.0385C12.0906 24.9316 12.0182 24.8281 11.9492 24.7178C12.0182 24.8281 12.0906 24.935 12.1665 25.0385Z" fill="white"/>
<path d="M15.4193 28.3044C15.4193 28.3044 13.833 29.6632 12.7984 31.215C11.6328 32.9634 11.4121 34.7705 11.4121 34.7705C11.4845 34.8119 11.5569 34.8464 11.6259 34.8877L15.9056 28.7183C15.8297 28.6803 15.4952 28.3389 15.4193 28.3044Z" fill="white"/>
<path d="M14.7783 28.1248C14.7827 28.1291 14.7871 28.1291 14.7915 28.1335C14.7871 28.1335 14.7827 28.1291 14.7783 28.1248Z" fill="white"/>
<path d="M7.74609 32.0149C7.75651 32.0253 7.76345 32.0357 7.77387 32.0427C7.76345 32.0323 7.75304 32.0253 7.74609 32.0149Z" fill="white"/>
<path d="M6.64639 30.8322C6.59466 30.7701 6.54294 30.7081 6.49121 30.646C6.53949 30.7081 6.59466 30.7701 6.64639 30.8322Z" fill="white"/>
<path d="M6.06757 30.1152C6.04328 30.084 6.01551 30.0493 5.99121 30.0181C6.01551 30.0493 6.04328 30.0805 6.06757 30.1152Z" fill="white"/>
<path d="M8.48444 32.7017C8.43931 32.6636 8.39766 32.6254 8.35254 32.5837C8.39766 32.6219 8.44279 32.6636 8.48444 32.7017Z" fill="white"/>
<path d="M9.82887 33.7637C9.81152 33.7533 9.79416 33.7394 9.78027 33.729C9.79763 33.7394 9.81152 33.7533 9.82887 33.7637Z" fill="white"/>
<path d="M7.20069 31.4599C7.14551 31.4013 7.09033 31.3392 7.03516 31.2771C7.09033 31.3357 7.14551 31.3978 7.20069 31.4599Z" fill="white"/>
<path d="M9.19939 33.2917C9.15427 33.257 9.10567 33.2188 9.06055 33.1841C9.10914 33.2188 9.15427 33.2535 9.19939 33.2917Z" fill="white"/>
<path d="M12.1191 25.7866C12.164 25.8418 12.2088 25.9004 12.2536 25.9556C12.2088 25.897 12.164 25.8418 12.1191 25.7866Z" fill="white"/>
<path d="M13.4814 27.1904C13.5127 27.2182 13.5474 27.246 13.5786 27.2737C13.5474 27.246 13.5162 27.2182 13.4814 27.1904Z" fill="white"/>
<path d="M11.2773 24.552C11.2912 24.5798 11.3086 24.6041 11.3225 24.6284C11.3051 24.6041 11.2912 24.5763 11.2773 24.552Z" fill="white"/>
<path d="M10.599 34.2809C10.5574 34.2566 10.5192 34.2289 10.4775 34.2046C10.5157 34.2289 10.5574 34.2566 10.599 34.2809Z" fill="white"/>
<path d="M5.05261 28.6322C5.03525 28.601 5.01443 28.5698 4.99707 28.542C5.01443 28.5698 5.03178 28.601 5.05261 28.6322Z" fill="white"/>
<path d="M16.184 28.3114L15.9219 28.1907C15.8736 28.17 15.8288 28.1459 15.784 28.1218C15.7185 28.0907 15.6529 28.0597 15.5874 28.0252C15.5219 27.9907 15.4598 27.9562 15.3943 27.9217C15.2908 27.8666 15.1874 27.8079 15.0874 27.7459C15.0081 27.6976 14.9322 27.6527 14.8529 27.6045C14.7977 27.57 14.7425 27.532 14.6908 27.4941C14.6218 27.4493 14.5494 27.401 14.4839 27.3527C14.4321 27.3148 14.3804 27.2769 14.3287 27.2389C14.2563 27.1872 14.1873 27.132 14.1183 27.0803C14.07 27.0423 14.0252 27.0079 13.9769 26.9699C13.9011 26.9079 13.8217 26.8423 13.7459 26.7768C13.7079 26.7458 13.67 26.7147 13.6321 26.6803C13.5183 26.5803 13.4079 26.4768 13.301 26.3733C13.1769 26.2526 13.0562 26.125 12.9389 25.9974C12.8975 25.9526 12.8596 25.9078 12.8217 25.8664C12.7458 25.7802 12.6699 25.694 12.5975 25.6077C12.5561 25.556 12.5147 25.5043 12.4734 25.4526C12.4044 25.3664 12.3389 25.2767 12.2734 25.1905C12.2354 25.1422 12.2009 25.0905 12.1665 25.0422C12.0906 24.9387 12.0216 24.8318 11.9492 24.7215C11.9285 24.6904 11.9078 24.656 11.8871 24.6249C11.4457 23.9249 11.0974 23.1731 10.8491 22.3868L10.8353 22.3489L10.6318 22.4972C10.656 22.5765 10.6836 22.6592 10.7146 22.7386C10.8939 23.2627 11.1215 23.7731 11.394 24.2663C11.3974 24.2697 11.3974 24.2732 11.4009 24.2766C11.4836 24.4249 11.5698 24.5732 11.663 24.718C11.6837 24.7525 11.7043 24.7835 11.725 24.8146C11.8009 24.9318 11.8768 25.0456 11.9561 25.1594C11.9871 25.2008 12.0182 25.2456 12.0492 25.287C12.1251 25.3905 12.2009 25.4905 12.2802 25.594C12.3147 25.6388 12.3527 25.6871 12.3871 25.7319C12.4699 25.8319 12.5561 25.9319 12.6423 26.0319C12.6768 26.0699 12.7113 26.1112 12.7458 26.1526C12.87 26.2871 12.9976 26.4216 13.1286 26.5492C13.132 26.5527 13.1321 26.5526 13.1355 26.5561C13.2459 26.663 13.3562 26.7665 13.47 26.8665C13.5148 26.9044 13.5597 26.9423 13.6045 26.9803C13.6769 27.0424 13.7459 27.101 13.8183 27.1596C13.8769 27.2044 13.9321 27.2527 13.9907 27.2975C14.0494 27.3424 14.108 27.3872 14.1666 27.4286C14.2356 27.4803 14.3045 27.5286 14.3735 27.5803C14.4149 27.6114 14.4597 27.639 14.5011 27.6665C14.9218 27.9528 15.3633 28.2011 15.815 28.4149C15.8909 28.4494 15.9633 28.4838 16.0392 28.5183L16.184 28.3114Z" fill="white"/>
<path d="M11.2708 34.9701C11.257 34.9632 11.2467 34.9563 11.2329 34.946C11.1639 34.908 11.0984 34.8667 11.0294 34.8287C10.8674 34.7356 10.7053 34.6356 10.5466 34.5356C10.4811 34.4942 10.4156 34.4528 10.3501 34.4115C10.1466 34.2804 9.94659 34.1459 9.75002 34.0045C9.68795 33.9631 9.62933 33.9183 9.5707 33.8735C9.39482 33.7459 9.21895 33.6114 9.04652 33.4769C9.00859 33.4493 8.9741 33.4217 8.93617 33.3941C8.7327 33.232 8.53613 33.0665 8.33956 32.8941C8.29129 32.8527 8.24301 32.8079 8.19473 32.7665C7.99472 32.5872 7.7947 32.4044 7.60158 32.2147C7.60158 32.2147 7.60158 32.2147 7.60158 32.2113C7.40156 32.0147 7.20499 31.8147 7.01532 31.6112C6.95325 31.5457 6.89463 31.4767 6.836 31.4112C6.7084 31.2698 6.58426 31.1284 6.46011 30.987C6.39459 30.9077 6.32906 30.8284 6.26354 30.7491C6.14974 30.6111 6.03939 30.4732 5.93248 30.3318C5.87041 30.249 5.80833 30.1697 5.74626 30.087C5.63245 29.9318 5.5221 29.7766 5.41175 29.6214C5.36347 29.5524 5.31519 29.4869 5.27035 29.418C5.12207 29.1972 4.98068 28.9765 4.84274 28.7524C4.79791 28.68 4.75652 28.6041 4.71514 28.5317C4.62203 28.373 4.52892 28.2144 4.4427 28.0558C4.39098 27.9592 4.33924 27.8626 4.28751 27.7661C4.24613 27.6868 4.2013 27.6075 4.15992 27.5247L4.16337 27.5212C4.12544 27.4488 4.0875 27.3764 4.05302 27.3005L3.85645 27.4454C3.953 27.6419 4.04957 27.8385 4.15303 28.0316C4.16682 28.0558 4.17716 28.0765 4.19096 28.1006C4.59788 28.8489 5.05999 29.5731 5.58072 30.2697C5.62555 30.3284 5.67383 30.3904 5.71866 30.4491C5.84281 30.6112 5.97041 30.7698 6.09801 30.9284C6.15663 31.0008 6.21871 31.0733 6.27734 31.1422C6.40493 31.2905 6.53252 31.4388 6.66701 31.5836C6.72564 31.6492 6.78772 31.7181 6.84635 31.7837C7.02912 31.9768 7.21534 32.1699 7.40846 32.3596C7.41881 32.3699 7.4257 32.3803 7.43605 32.3906C7.44294 32.3975 7.44984 32.4044 7.45674 32.4113C7.62916 32.5803 7.80849 32.7424 7.98782 32.9044C8.04299 32.9562 8.10161 33.0044 8.15679 33.0527C8.31543 33.1907 8.47406 33.3286 8.63615 33.4596C8.67063 33.4872 8.70166 33.5148 8.73615 33.5424C8.92582 33.6941 9.11894 33.8424 9.31206 33.9838C9.37068 34.0287 9.42931 34.07 9.48794 34.1114C9.65002 34.2287 9.81555 34.3425 9.98108 34.4563C10.0225 34.4839 10.0638 34.5115 10.1052 34.539C10.3156 34.677 10.5294 34.8115 10.7432 34.9391C10.7742 34.9563 10.8053 34.977 10.8363 34.9943C11.0053 35.0943 11.1777 35.1908 11.3502 35.2874L11.4881 35.0874C11.4157 35.0494 11.3433 35.0115 11.2708 34.9701Z" fill="white"/>
<path d="M14.1681 27.4247C14.1094 27.3834 14.0508 27.3385 13.9922 27.2937C14.0543 27.3385 14.1094 27.3799 14.1681 27.4247Z" fill="white"/>
<path d="M15.8186 28.4077L15.6807 28.6112C15.7565 28.6457 15.829 28.6801 15.9048 28.7112L16.0428 28.5112C15.9669 28.4801 15.8945 28.4422 15.8186 28.4077Z" fill="white"/>
<path d="M14.5064 27.6632C14.4647 27.6354 14.4196 27.6042 14.3779 27.5764C14.4196 27.6042 14.4612 27.632 14.5064 27.6632Z" fill="white"/>
<path d="M6.45979 30.9875C6.39427 30.9081 6.32529 30.8288 6.25977 30.7495C6.32529 30.8288 6.39082 30.9081 6.45979 30.9875Z" fill="white"/>
<path d="M9.0476 33.4812C9.00942 33.4535 8.9747 33.4257 8.93652 33.3979C8.9747 33.4257 9.01289 33.4535 9.0476 33.4812Z" fill="white"/>
<path d="M8.34309 32.8942C8.29481 32.8528 8.24652 32.808 8.19824 32.7666C8.24307 32.8114 8.29136 32.8528 8.34309 32.8942Z" fill="white"/>
<path d="M11.4119 34.7666L11.2705 34.9701C11.3429 35.0114 11.4153 35.0459 11.4843 35.0873L11.6257 34.8838C11.5533 34.8459 11.4809 34.808 11.4119 34.7666Z" fill="white"/>
<path d="M10.6322 22.4968L10.4219 22.6486C10.4495 22.7279 10.477 22.8106 10.5046 22.89L10.7116 22.7382C10.684 22.6589 10.6564 22.5761 10.6322 22.4968Z" fill="white"/>
<path d="M4.36265 27.3767C4.32471 27.3043 4.28678 27.2319 4.25229 27.156L4.04883 27.3043C4.08331 27.3767 4.1247 27.4491 4.15918 27.525L4.36265 27.3767Z" fill="white"/>
<path d="M13.8193 27.1559C13.7469 27.0973 13.6744 27.0386 13.6055 26.9766C13.6779 27.0386 13.7503 27.0973 13.8193 27.1559Z" fill="white"/>
<path d="M10.5462 34.5394C10.4806 34.498 10.4151 34.4567 10.3496 34.4153C10.4151 34.4567 10.4841 34.498 10.5462 34.5394Z" fill="white"/>
<path d="M12.0478 25.291C12.0166 25.2494 11.9853 25.2042 11.9541 25.1626C11.9853 25.2042 12.0166 25.2459 12.0478 25.291Z" fill="white"/>
<path d="M12.7502 26.1498C12.7155 26.1116 12.6808 26.07 12.6426 26.0283C12.6773 26.07 12.712 26.1116 12.7502 26.1498Z" fill="white"/>
<path d="M11.4004 24.279C11.396 24.2746 11.396 24.2702 11.3916 24.2659C11.396 24.2702 11.4004 24.2746 11.4004 24.279Z" fill="white"/>
<path d="M12.3888 25.7325C12.3507 25.6874 12.316 25.6423 12.2812 25.5972C12.316 25.6388 12.3507 25.6874 12.3888 25.7325Z" fill="white"/>
<path d="M9.75256 34.008C9.69394 33.9666 9.63187 33.9218 9.57324 33.877C9.63187 33.9218 9.69049 33.9632 9.75256 34.008Z" fill="white"/>
<path d="M9.57399 33.8766C9.39812 33.749 9.22223 33.6145 9.0498 33.48C9.22223 33.6145 9.39467 33.749 9.57399 33.8766Z" fill="white"/>
<path d="M4.15625 27.5281C4.19763 27.6109 4.24247 27.6902 4.28386 27.7695C4.24247 27.6902 4.20108 27.6074 4.1597 27.5247L4.15625 27.5281Z" fill="white"/>
<path d="M6.83292 31.4146C6.70533 31.2733 6.58118 31.1319 6.45703 30.9905C6.58118 31.1319 6.70877 31.2733 6.83292 31.4146Z" fill="white"/>
<path d="M11.0297 34.8319C10.8676 34.7388 10.7055 34.6388 10.5469 34.5388C10.709 34.6388 10.8676 34.7354 11.0297 34.8319Z" fill="white"/>
<path d="M8.93938 33.3977C8.73591 33.2357 8.53934 33.0701 8.34277 32.8977C8.53934 33.0667 8.73591 33.2357 8.93938 33.3977Z" fill="white"/>
<path d="M5.26648 29.4212C5.1182 29.2039 4.97681 28.9798 4.83887 28.7556C4.97681 28.9798 5.12165 29.2005 5.26648 29.4212Z" fill="white"/>
<path d="M6.25977 30.7491C6.14597 30.6111 6.03562 30.4732 5.92871 30.3318C6.03906 30.4732 6.14942 30.6111 6.25977 30.7491Z" fill="white"/>
<path d="M11.2706 34.9706C11.2567 34.9602 11.2463 34.9567 11.2324 34.9463C11.2463 34.9567 11.2567 34.9636 11.2706 34.9706Z" fill="white"/>
<path d="M7.60091 32.2153C7.40089 32.0187 7.20432 31.8187 7.01465 31.6152C7.20432 31.8187 7.39744 32.0187 7.60091 32.2153Z" fill="white"/>
<path d="M8.19764 32.7666C7.99763 32.5873 7.79761 32.4045 7.60449 32.2148C7.79761 32.408 7.99418 32.5873 8.19764 32.7666Z" fill="white"/>
<path d="M5.74271 30.0905C5.62891 29.9388 5.51856 29.7802 5.4082 29.625C5.51856 29.7802 5.62891 29.9354 5.74271 30.0905Z" fill="white"/>
<path d="M10.7119 22.7385C10.8947 23.2627 11.1188 23.7731 11.3913 24.2662C11.1223 23.7731 10.8947 23.2627 10.7119 22.7385Z" fill="white"/>
<path d="M14.3778 27.5731C14.3088 27.5248 14.2399 27.4731 14.1709 27.4248C14.2364 27.4765 14.3054 27.5248 14.3778 27.5731Z" fill="white"/>
<path d="M15.8188 28.4078C15.367 28.194 14.9256 27.9457 14.5049 27.6594C14.9256 27.9457 15.367 28.1974 15.8188 28.4078Z" fill="white"/>
<path d="M13.6055 26.9773C13.5604 26.9392 13.5153 26.901 13.4736 26.8628C13.5188 26.901 13.5639 26.9392 13.6055 26.9773Z" fill="white"/>
<path d="M12.2779 25.5933C12.1986 25.4933 12.1193 25.3898 12.0469 25.2864C12.1227 25.3933 12.1986 25.4933 12.2779 25.5933Z" fill="white"/>
<path d="M11.9527 25.1593C11.8734 25.0455 11.7941 24.9317 11.7217 24.8145C11.7975 24.9317 11.8734 25.0455 11.9527 25.1593Z" fill="white"/>
<path d="M12.6419 26.0283C12.5557 25.9283 12.4695 25.8317 12.3867 25.7283C12.4695 25.8317 12.5557 25.9317 12.6419 26.0283Z" fill="white"/>
<path d="M11.1986 34.6492C10.9951 34.5319 10.7951 34.4078 10.5986 34.2802C10.5572 34.256 10.5192 34.2284 10.4779 34.2009C10.2606 34.0595 10.0433 33.9146 9.82952 33.7629C9.81228 33.7525 9.79503 33.7387 9.78124 33.7284C9.58467 33.587 9.39155 33.4387 9.20188 33.2904C9.15705 33.2559 9.10877 33.218 9.06394 33.1835C8.86737 33.0283 8.67425 32.8663 8.48803 32.7007C8.4432 32.6628 8.40182 32.6249 8.35699 32.5835C8.16387 32.4111 7.9742 32.2386 7.79143 32.0593C7.78453 32.0524 7.78108 32.049 7.77419 32.0421C7.76384 32.0317 7.75694 32.0248 7.74659 32.0145C7.56037 31.8317 7.38105 31.6455 7.20518 31.4592C7.15 31.3972 7.09482 31.3385 7.03964 31.2765C6.90515 31.1316 6.77755 30.9833 6.64996 30.8316C6.59823 30.7695 6.54649 30.7075 6.49477 30.6454C6.34993 30.4695 6.20854 30.2936 6.0706 30.1143C6.04646 30.0833 6.01887 30.0488 5.99473 30.0178C5.66022 29.5694 5.3464 29.1073 5.05672 28.6314C5.03948 28.6004 5.01879 28.5694 5.00155 28.5418C4.8705 28.3245 4.7429 28.1038 4.6222 27.8831C4.61186 27.8624 4.60151 27.8452 4.59117 27.8279C4.54979 27.7555 4.5084 27.6796 4.47047 27.6072L4.47737 27.6038C4.43944 27.5313 4.4015 27.4589 4.36701 27.3831L4.16699 27.5313C4.20837 27.6141 4.24976 27.6934 4.29115 27.7762C4.34287 27.8728 4.39116 27.9693 4.44633 28.0659C4.536 28.2245 4.62565 28.3831 4.71876 28.5418C4.76015 28.6142 4.80153 28.6901 4.84636 28.7625C4.9843 28.9866 5.1257 29.2073 5.27399 29.428C5.31882 29.497 5.37054 29.5625 5.41882 29.6315C5.52917 29.7867 5.63609 29.9419 5.74989 30.0971C5.81196 30.1798 5.87403 30.2592 5.9361 30.3419C6.04301 30.4833 6.15337 30.6212 6.26717 30.7592C6.33269 30.8385 6.39821 30.9178 6.46718 30.9971C6.58788 31.142 6.71548 31.2834 6.84307 31.4248C6.90515 31.4903 6.96377 31.5593 7.02239 31.6248C7.21206 31.8282 7.40519 32.0283 7.60865 32.2248C7.60865 32.2248 7.60866 32.2248 7.6121 32.2283C7.80522 32.4179 8.00524 32.6007 8.20526 32.7801C8.25354 32.8214 8.30181 32.8663 8.35009 32.9076C8.54666 33.0801 8.74668 33.2456 8.94669 33.4077C8.98118 33.4353 9.01912 33.4629 9.05705 33.4905C9.22948 33.6249 9.40535 33.7594 9.58123 33.887C9.63985 33.9319 9.70192 33.9732 9.76055 34.0181C9.95711 34.1595 10.1571 34.294 10.3606 34.425C10.4261 34.4664 10.4916 34.5078 10.5572 34.5492C10.7158 34.6492 10.8779 34.7492 11.04 34.8423C11.1089 34.8802 11.1745 34.9216 11.2434 34.9595C11.2572 34.9664 11.271 34.9733 11.2814 34.9802L11.4228 34.7768C11.34 34.7285 11.271 34.6871 11.1986 34.6492Z" fill="white"/>
<path d="M10.5954 23.1248C10.7851 23.6214 11.0127 24.0972 11.2748 24.5524C11.2886 24.5766 11.3058 24.6042 11.3196 24.6283C11.3886 24.7421 11.4575 24.8559 11.53 24.9697C11.5575 25.0146 11.5851 25.0594 11.6162 25.1008C11.6782 25.1939 11.7438 25.287 11.8093 25.3801C11.8472 25.4353 11.8852 25.487 11.9265 25.5422C11.9886 25.625 12.0541 25.7077 12.1197 25.787C12.1645 25.8422 12.2093 25.9008 12.2542 25.956C12.3231 26.0388 12.399 26.1216 12.4714 26.2043C12.5128 26.2526 12.5542 26.3009 12.599 26.3492C12.7163 26.4767 12.8404 26.6044 12.9646 26.7251C13.1301 26.8871 13.306 27.0423 13.4818 27.1941C13.5129 27.2216 13.5474 27.2492 13.5784 27.2768C13.7543 27.4217 13.9371 27.5631 14.1233 27.6975C14.144 27.7113 14.1647 27.7251 14.1853 27.7424C14.3785 27.8803 14.575 28.0113 14.7785 28.132C14.7819 28.1355 14.7854 28.1355 14.7888 28.139C14.9923 28.2631 15.2027 28.3769 15.4165 28.4873C15.5027 28.5321 15.5923 28.5769 15.682 28.6183L15.8234 28.4148C15.3716 28.201 14.9302 27.9527 14.5095 27.6665C14.4681 27.6389 14.4233 27.6079 14.3819 27.5803C14.3129 27.532 14.244 27.4803 14.175 27.4285C14.1164 27.3872 14.0578 27.3423 13.9991 27.2975C13.9405 27.2527 13.8819 27.2078 13.8267 27.1596C13.7543 27.1009 13.6853 27.0423 13.6129 26.9802C13.568 26.9423 13.5232 26.9044 13.4818 26.8664C13.368 26.7664 13.2577 26.663 13.1473 26.5561C13.1439 26.5526 13.1439 26.5526 13.1404 26.5492C13.0059 26.4181 12.8783 26.2871 12.7576 26.1491C12.7232 26.1112 12.6887 26.0698 12.6542 26.0284C12.568 25.9284 12.4818 25.8319 12.399 25.7284C12.3611 25.6836 12.3266 25.6387 12.2921 25.5939C12.2128 25.4939 12.1334 25.3904 12.061 25.287C12.03 25.2456 11.999 25.2008 11.9679 25.1594C11.8886 25.0456 11.8093 24.9318 11.7369 24.8145C11.7162 24.7835 11.6955 24.749 11.6748 24.718C11.5851 24.5732 11.4955 24.4249 11.4127 24.2766C11.4127 24.2731 11.4093 24.2697 11.4058 24.2662C11.1334 23.7731 10.9092 23.2627 10.7264 22.7385L10.5195 22.8903C10.5333 22.9696 10.5644 23.0489 10.5954 23.1248Z" fill="white"/>
<path d="M12.6221 13.3924C12.6841 13.3165 12.7497 13.2407 12.8152 13.1648C12.7497 13.2372 12.6876 13.3165 12.6221 13.3924Z" fill="white"/>
<path d="M7.11816 6.94745C7.31128 6.75088 7.50785 6.56122 7.70786 6.375C7.50785 6.56122 7.31128 6.75433 7.11816 6.94745Z" fill="white"/>
<path d="M11.3954 3.70557L11.2057 3.81247C10.785 4.04697 10.3746 4.30215 9.97461 4.57114C10.4367 4.26077 10.9126 3.97111 11.3954 3.70557Z" fill="white"/>
<path d="M8.50488 5.6714C8.7118 5.49897 8.91871 5.33344 9.13252 5.1748C8.91871 5.33689 8.70835 5.50242 8.50488 5.6714Z" fill="white"/>
<path d="M9.28418 5.06099C9.46006 4.92995 9.63592 4.80579 9.81525 4.68164C9.63592 4.80234 9.46006 4.92995 9.28418 5.06099Z" fill="white"/>
<path d="M12.5185 13.5168C11.8874 14.2997 11.3908 15.1687 11.0391 16.0929L11.1218 15.8929C11.4736 15.0308 11.9391 14.2376 12.5185 13.5168Z" fill="white"/>
<path d="M16.3678 10.6406C15.4505 11.0165 14.5884 11.5338 13.8193 12.1856C14.5228 11.5924 15.3091 11.1027 16.1574 10.7337L16.3678 10.6406Z" fill="white"/>
<path d="M4.08439 11.1131L3.98438 11.3028L3.98783 11.3062C4.23957 10.8165 4.51545 10.3337 4.81548 9.86475C4.55339 10.2682 4.30854 10.6855 4.08439 11.1131Z" fill="white"/>
<path d="M6.56055 7.55101C6.74332 7.34754 6.9261 7.14408 7.11922 6.94751C6.92955 7.14408 6.74332 7.34754 6.56055 7.55101Z" fill="white"/>
<path d="M15.9124 10.303C15.9883 10.2685 16.0642 10.2375 16.14 10.2064L11.6845 4.10596C11.6121 4.14389 11.5431 4.18527 11.4707 4.22665L15.9124 10.303Z" fill="white"/>
<path d="M10.6911 15.6584L4.50442 11.3684C4.46649 11.4408 4.42511 11.5132 4.39062 11.5822L10.598 15.8895C10.6256 15.8101 10.6566 15.7343 10.6911 15.6584Z" fill="white"/>
<path d="M10.1777 5.0214C10.1777 5.0214 10.1828 5.01636 10.1878 5.01636C10.1828 5.01636 10.1828 5.01636 10.1777 5.0214Z" fill="white"/>
<path d="M14.5369 11.0479C14.5195 11.0583 14.5056 11.0687 14.4883 11.0791C14.5056 11.0687 14.523 11.0583 14.5369 11.0479Z" fill="white"/>
<path d="M4.62213 11.1511C4.5842 11.2235 4.54282 11.296 4.50488 11.3649L10.6916 15.6549C10.7226 15.5791 10.7571 15.5032 10.7881 15.4273L4.62213 11.1511Z" fill="white"/>
<path d="M15.6882 10.4061C15.7641 10.3717 15.8365 10.3372 15.9124 10.3027L11.4706 4.22632C11.3982 4.26425 11.3293 4.30565 11.2568 4.34703C11.2568 4.34703 12.7156 7.33347 13.3777 8.2163C14.2536 9.38191 15.6882 10.4061 15.6882 10.4061Z" fill="white"/>
<path d="M9.41211 5.57203C9.45376 5.54079 9.49888 5.50609 9.54401 5.47485C9.49888 5.50609 9.45723 5.53732 9.41211 5.57203Z" fill="white"/>
<path d="M14.1882 11.2856C14.15 11.3134 14.1153 11.3377 14.0771 11.3655C14.1153 11.3412 14.15 11.3134 14.1882 11.2856Z" fill="white"/>
<path d="M12.0089 13.386C11.9675 13.4412 11.9261 13.4929 11.8848 13.5481C11.9261 13.4929 11.9675 13.4377 12.0089 13.386Z" fill="white"/>
<path d="M12.3439 12.9719C12.2818 13.0443 12.2198 13.1133 12.1611 13.1857C12.2232 13.1133 12.2818 13.0409 12.3439 12.9719Z" fill="white"/>
<path d="M12.7871 12.4788C12.6767 12.5926 12.5663 12.7098 12.4629 12.827C12.5698 12.7098 12.6767 12.596 12.7871 12.4788Z" fill="white"/>
<path d="M13.1295 12.1472C13.0122 12.2541 12.9019 12.3645 12.7881 12.4783C12.8984 12.3645 13.0122 12.2541 13.1295 12.1472Z" fill="white"/>
<path d="M8.77344 6.08006C8.77782 6.07568 8.7822 6.07567 8.78658 6.07129C8.77782 6.07567 8.77782 6.08006 8.77344 6.08006Z" fill="white"/>
<path d="M6.27734 8.6373C6.28776 8.62341 6.29817 8.613 6.30858 8.59912C6.30164 8.613 6.28776 8.62688 6.27734 8.6373Z" fill="white"/>
<path d="M5.69434 9.42327C5.73227 9.37154 5.7702 9.31638 5.80813 9.26465C5.76675 9.31638 5.73227 9.36809 5.69434 9.42327Z" fill="white"/>
<path d="M5.25293 10.0719C5.26334 10.0545 5.27722 10.0372 5.28763 10.0164C5.27722 10.0372 5.26681 10.0545 5.25293 10.0719Z" fill="white"/>
<path d="M11.0393 16.0929C11.391 15.1687 11.8876 14.2996 12.5187 13.5168C12.5532 13.4754 12.5876 13.434 12.6256 13.3927C12.6877 13.3168 12.7532 13.2375 12.8187 13.1651C12.9222 13.0478 13.0291 12.934 13.1394 12.8202C13.2498 12.7064 13.3636 12.5995 13.4774 12.4926C13.5429 12.4305 13.6119 12.3719 13.6808 12.3133C13.7291 12.2719 13.7774 12.227 13.8257 12.1857C14.5947 11.5339 15.4534 11.0166 16.3742 10.6407L16.4431 10.6097L16.2983 10.4097C16.2224 10.4407 16.1431 10.4717 16.0673 10.5062C15.7845 10.6304 15.5086 10.7649 15.2361 10.9166C15.1016 10.9925 14.9672 11.0683 14.8361 11.1511C14.8292 11.158 14.8189 11.1615 14.812 11.1649C14.6878 11.2408 14.5671 11.3201 14.443 11.4063C14.4223 11.4201 14.405 11.4339 14.3844 11.4477C14.274 11.5235 14.1671 11.6029 14.0602 11.6822C14.0257 11.7098 13.9912 11.7374 13.9567 11.7649C13.8671 11.8374 13.774 11.9063 13.6877 11.9822C13.6291 12.0305 13.5739 12.0822 13.5153 12.1339C13.4498 12.1891 13.3843 12.2443 13.3222 12.3029C13.2015 12.4133 13.0842 12.5305 12.967 12.6478C12.8497 12.765 12.7394 12.8892 12.629 13.0099C12.5739 13.0719 12.5221 13.1375 12.467 13.203C12.4152 13.2616 12.3635 13.3202 12.3152 13.3823C12.2428 13.472 12.1773 13.5616 12.1083 13.6547C12.0807 13.6927 12.0531 13.7272 12.0255 13.7651C11.9462 13.8755 11.8738 13.9858 11.7979 14.0962C11.7841 14.1169 11.7703 14.1341 11.7565 14.1548C11.6772 14.2789 11.6014 14.4031 11.5255 14.5272C11.5186 14.5341 11.5151 14.5445 11.5083 14.5514C11.4289 14.6859 11.3565 14.8204 11.2841 14.9549C11.2841 14.9549 11.2841 14.9583 11.2806 14.9583C11.1358 15.2342 11.0082 15.5135 10.891 15.7998C10.8599 15.8756 10.8289 15.9549 10.7979 16.0308L11.0013 16.1722L11.0393 16.0929Z" fill="white"/>
<path d="M4.29825 11.227C4.36377 11.0994 4.4362 10.9753 4.50517 10.8511C4.56034 10.7511 4.61897 10.6477 4.6776 10.5476C4.7776 10.3787 4.87762 10.2097 4.98452 10.0442C5.0397 9.95796 5.09487 9.87518 5.15005 9.78896C5.2466 9.64067 5.34661 9.4924 5.45007 9.34756C5.49835 9.27859 5.54663 9.2096 5.59491 9.14063C5.7432 8.93372 5.89493 8.73372 6.05356 8.5337C6.0984 8.47853 6.14323 8.42334 6.18806 8.36816C6.31566 8.20953 6.45015 8.05089 6.58464 7.89571C6.63637 7.83708 6.6881 7.77502 6.74328 7.7164C6.9226 7.51638 7.10193 7.31981 7.2916 7.12669L7.29505 7.12324L7.2985 7.11979C7.48817 6.92667 7.68128 6.74044 7.8744 6.55767C7.93303 6.50249 7.99165 6.45077 8.05028 6.3956C8.20202 6.25766 8.3572 6.11972 8.51238 5.98867C8.56756 5.94384 8.61929 5.89555 8.67447 5.85072C8.87104 5.68864 9.07105 5.53 9.27107 5.37482C9.33659 5.32309 9.40556 5.27481 9.47453 5.22653C9.61937 5.11963 9.76422 5.01616 9.90906 4.91615C9.99182 4.85753 10.0746 4.80236 10.1574 4.74718C10.3229 4.63682 10.4884 4.52992 10.6539 4.42647C10.7505 4.36439 10.8505 4.30578 10.9505 4.24716C11.0747 4.17474 11.1988 4.09887 11.323 4.02989V4.03333C11.3954 3.99194 11.4644 3.95057 11.5368 3.91263L11.3954 3.71606C10.9091 3.97815 10.4367 4.26783 9.97113 4.5782C9.9194 4.61269 9.86422 4.65063 9.8125 4.68856C9.63317 4.81271 9.45729 4.93685 9.28142 5.06789C9.22969 5.10583 9.17796 5.14377 9.12623 5.1817C8.91587 5.34378 8.70551 5.50931 8.4986 5.67829C8.45377 5.71623 8.41238 5.75416 8.36755 5.78865C8.20202 5.93004 8.03649 6.07488 7.87096 6.22317C7.81578 6.2749 7.75715 6.32663 7.70197 6.37836C7.50196 6.56458 7.30539 6.75424 7.11227 6.95081C6.91915 7.14738 6.73293 7.35084 6.55361 7.55431C6.50188 7.61293 6.4536 7.66811 6.40187 7.72673C6.25703 7.89571 6.11564 8.0647 5.9777 8.23368C5.94321 8.27851 5.90528 8.31988 5.87079 8.36471C5.70526 8.57507 5.54318 8.78889 5.388 9.0027C5.35006 9.05443 5.31557 9.10617 5.27764 9.16134C5.15349 9.34067 5.02935 9.51999 4.91209 9.69932C4.87761 9.75449 4.83968 9.80621 4.80519 9.86139C4.50517 10.3338 4.22928 10.8132 3.97754 11.3029L4.17755 11.4408C4.22238 11.3684 4.26377 11.2994 4.29825 11.227Z" fill="white"/>
<path d="M5.4502 9.34755C5.49848 9.27858 5.54676 9.2096 5.59504 9.14062C5.54676 9.20615 5.49848 9.27858 5.4502 9.34755Z" fill="white"/>
<path d="M4.9873 10.0408C5.04248 9.95462 5.09766 9.87186 5.15284 9.78564C5.09421 9.87186 5.03903 9.95807 4.9873 10.0408Z" fill="white"/>
<path d="M6.58398 7.89245C6.63571 7.83382 6.68744 7.77176 6.74261 7.71313C6.68744 7.77521 6.63571 7.83382 6.58398 7.89245Z" fill="white"/>
<path d="M10.8977 15.7996L10.6908 15.6582C10.6597 15.7341 10.6287 15.8134 10.5977 15.8893L10.8046 16.0341C10.8356 15.9548 10.8666 15.8789 10.8977 15.7996Z" fill="white"/>
<path d="M7.30108 7.11255L7.29604 7.11756C7.29604 7.11756 7.29604 7.11758 7.30108 7.11255Z" fill="white"/>
<path d="M7.87402 6.55052C7.93265 6.49534 7.99128 6.4436 8.0499 6.38843C7.99128 6.4436 7.93265 6.49879 7.87402 6.55052Z" fill="white"/>
<path d="M11.5117 14.5565C11.5154 14.5492 11.5226 14.5383 11.5263 14.531C11.5226 14.5383 11.5154 14.5456 11.5117 14.5565Z" fill="white"/>
<path d="M14.3779 11.4513C14.3988 11.4374 14.4161 11.4236 14.4369 11.4097C14.4196 11.4201 14.3988 11.4374 14.3779 11.4513Z" fill="white"/>
<path d="M10.6562 4.41957C10.7528 4.35749 10.8528 4.29886 10.9528 4.24023C10.8528 4.29886 10.7528 4.36094 10.6562 4.41957Z" fill="white"/>
<path d="M11.473 4.22672C11.5454 4.18878 11.6144 4.14396 11.6868 4.10603L11.5385 3.90601C11.4661 3.94394 11.3971 3.98878 11.3281 4.02672L11.473 4.22672Z" fill="white"/>
<path d="M12.0225 13.7659C12.0502 13.7277 12.078 13.693 12.1058 13.6548C12.078 13.693 12.0502 13.7311 12.0225 13.7659Z" fill="white"/>
<path d="M13.9502 11.7689C13.9849 11.7411 14.0196 11.7133 14.0543 11.6855C14.0196 11.7098 13.9849 11.7411 13.9502 11.7689Z" fill="white"/>
<path d="M9.9082 4.90897C9.99097 4.85034 10.0737 4.79517 10.1565 4.73999C10.0737 4.79517 9.99097 4.85379 9.9082 4.90897Z" fill="white"/>
<path d="M16.2919 10.4098L16.1436 10.2063C16.0677 10.2373 15.9919 10.2718 15.916 10.3029L16.0643 10.5063C16.1367 10.4753 16.216 10.4408 16.2919 10.4098Z" fill="white"/>
<path d="M12.9639 12.651C13.0811 12.5338 13.1984 12.4165 13.3191 12.3062C13.1949 12.4165 13.0777 12.5303 12.9639 12.651Z" fill="white"/>
<path d="M8.51172 5.9817C8.56345 5.93687 8.61863 5.88858 8.67036 5.84375C8.61863 5.89203 8.5669 5.93687 8.51172 5.9817Z" fill="white"/>
<path d="M13.5088 12.1337C13.5674 12.0819 13.6226 12.0302 13.6812 11.9819C13.6226 12.0302 13.5674 12.0854 13.5088 12.1337Z" fill="white"/>
<path d="M9.27051 5.37143C9.33603 5.3197 9.405 5.27142 9.47397 5.22314C9.405 5.27142 9.33948 5.3197 9.27051 5.37143Z" fill="white"/>
<path d="M4.30182 11.2271C4.26389 11.2995 4.2225 11.3684 4.18457 11.4409L4.38803 11.5822C4.42597 11.5098 4.4639 11.4374 4.50183 11.3684L4.30182 11.2271Z" fill="white"/>
<path d="M14.8291 11.1547C14.9601 11.0719 15.0946 10.996 15.2291 10.9202C15.0946 10.9926 14.9601 11.0719 14.8291 11.1547Z" fill="white"/>
<path d="M14.4365 11.4062C14.5572 11.3234 14.6814 11.2441 14.8021 11.1682C14.6814 11.2441 14.5607 11.3234 14.4365 11.4062Z" fill="white"/>
<path d="M16.0606 10.5063C15.7778 10.6305 15.5019 10.765 15.2295 10.9167C15.5019 10.7684 15.7778 10.6305 16.0606 10.5063Z" fill="white"/>
<path d="M11.5264 14.5272C11.5988 14.4031 11.6746 14.2789 11.7574 14.1548C11.6781 14.2789 11.6022 14.4031 11.5264 14.5272Z" fill="white"/>
<path d="M14.0537 11.6854C14.1606 11.6061 14.2675 11.5268 14.3779 11.4509C14.271 11.5268 14.1606 11.6027 14.0537 11.6854Z" fill="white"/>
<path d="M13.3154 12.3064C13.3775 12.2478 13.443 12.1926 13.5085 12.1375C13.4465 12.1926 13.381 12.2478 13.3154 12.3064Z" fill="white"/>
<path d="M12.1045 13.6584C12.1735 13.5688 12.239 13.4756 12.3114 13.386C12.2424 13.4756 12.1735 13.5653 12.1045 13.6584Z" fill="white"/>
<path d="M13.6816 11.9824C13.7713 11.9065 13.861 11.8376 13.9506 11.7651C13.861 11.8376 13.7713 11.91 13.6816 11.9824Z" fill="white"/>
<path d="M10.8984 15.7997C11.0157 15.5135 11.1433 15.2341 11.2881 14.9583C11.1433 15.2341 11.0122 15.5169 10.8984 15.7997Z" fill="white"/>
<path d="M11.2871 14.9582C11.3595 14.8237 11.4319 14.6892 11.5113 14.5547C11.4319 14.6857 11.3595 14.8202 11.2871 14.9582Z" fill="white"/>
<path d="M4.68066 10.5445C4.78067 10.3755 4.88067 10.2065 4.98758 10.041C4.88067 10.21 4.78067 10.3755 4.68066 10.5445Z" fill="white"/>
<path d="M4.29785 11.227C4.36682 11.1028 4.4358 10.9752 4.50477 10.8511C4.4358 10.9718 4.36682 11.0994 4.29785 11.227Z" fill="white"/>
<path d="M11.3265 4.02295C11.2024 4.09192 11.0782 4.16779 10.9541 4.24021C11.0782 4.16779 11.2024 4.09537 11.3265 4.02295Z" fill="white"/>
<path d="M6.1875 8.36845C6.3151 8.20981 6.44959 8.05118 6.58408 7.896C6.44959 8.05118 6.3151 8.20636 6.1875 8.36845Z" fill="white"/>
<path d="M6.74316 7.713C6.92249 7.51299 7.10182 7.31641 7.29149 7.12329C7.10182 7.31641 6.91904 7.51299 6.74316 7.713Z" fill="white"/>
<path d="M5.59375 9.14013C5.74204 8.93667 5.89377 8.73322 6.0524 8.5332C5.89722 8.72977 5.74204 8.93322 5.59375 9.14013Z" fill="white"/>
<path d="M8.04883 6.39228C8.20056 6.25434 8.35575 6.1164 8.51093 5.98535C8.35575 6.1164 8.20056 6.25089 8.04883 6.39228Z" fill="white"/>
<path d="M8.67383 5.84748C8.8704 5.6854 9.07042 5.52677 9.27043 5.37158C9.07042 5.52332 8.8704 5.68195 8.67383 5.84748Z" fill="white"/>
<path d="M4.61454 11.1477C4.66627 11.0511 4.72489 10.9545 4.78007 10.858C4.79731 10.8269 4.81455 10.7959 4.83525 10.7614C4.96974 10.5269 5.11113 10.2959 5.25597 10.0683C5.26632 10.051 5.28011 10.0338 5.29046 10.0131C5.4215 9.81307 5.556 9.61306 5.69394 9.41649C5.73188 9.36476 5.76981 9.30958 5.80774 9.25785C5.95948 9.04749 6.11811 8.83713 6.28019 8.63366C6.29054 8.61987 6.30088 8.60608 6.31123 8.59573C6.46641 8.40262 6.62505 8.21293 6.79058 8.02326C6.83541 7.97153 6.88024 7.91982 6.92507 7.86809C7.10094 7.66808 7.28372 7.47496 7.46995 7.28184C7.65617 7.08872 7.84928 6.90249 8.04585 6.71972C8.09413 6.67489 8.13896 6.63006 8.18724 6.58867C8.38036 6.4128 8.57348 6.24037 8.7735 6.07139C8.77695 6.06794 8.7804 6.06449 8.78384 6.06449C8.99076 5.89206 9.20111 5.72652 9.41492 5.56444C9.45631 5.53341 9.50114 5.49893 9.54597 5.46789C9.75633 5.31271 9.9667 5.16097 10.184 5.01268C10.1874 5.01268 10.1874 5.00923 10.1908 5.00923C10.4254 4.8506 10.6599 4.70231 10.9013 4.55402C10.9185 4.54367 10.9357 4.53334 10.953 4.52299C11.0564 4.46092 11.1599 4.39538 11.2634 4.33676L11.2668 4.34366C11.3358 4.30228 11.4082 4.26091 11.4806 4.22297L11.3358 4.02295C11.2116 4.09192 11.084 4.16434 10.9599 4.23676C10.8599 4.29538 10.7633 4.35402 10.6633 4.41609C10.4943 4.51955 10.3288 4.62645 10.1667 4.7368C10.084 4.79198 10.0012 4.8506 9.91842 4.90578C9.77013 5.00579 9.62529 5.1127 9.4839 5.21616C9.41493 5.26444 9.34941 5.31271 9.28044 5.36444C9.08042 5.51618 8.8804 5.67481 8.68383 5.84034C8.62866 5.88517 8.57693 5.93344 8.5252 5.97827C8.37002 6.11277 8.21483 6.24726 8.0631 6.3852C8.00447 6.44038 7.94584 6.49212 7.88722 6.54729C7.69065 6.73007 7.49753 6.91629 7.30786 7.10941L7.30441 7.11286L7.30097 7.11629C7.1113 7.30941 6.93197 7.50599 6.75264 7.706C6.70091 7.76463 6.64919 7.82671 6.59401 7.88533C6.45952 8.04052 6.32847 8.19915 6.19743 8.35778C6.1526 8.41296 6.10776 8.46813 6.06293 8.51986C5.9043 8.71987 5.75256 8.92334 5.60428 9.13026C5.556 9.19923 5.50771 9.26819 5.45943 9.33716C5.35598 9.482 5.25597 9.6303 5.15941 9.77859C5.10423 9.86135 5.04906 9.94756 4.99389 10.0338C4.89043 10.1993 4.78697 10.3683 4.68696 10.5373C4.62833 10.6373 4.56971 10.7373 4.51453 10.8407C4.44556 10.9649 4.37659 11.0925 4.30762 11.2201L4.51108 11.3615C4.54901 11.289 4.59041 11.2166 4.62834 11.1477H4.61454Z" fill="white"/>
<path d="M10.8993 15.7995C11.0165 15.5133 11.1441 15.234 11.289 14.9581V14.9546C11.3614 14.8201 11.4338 14.6856 11.5131 14.5511C11.5166 14.5408 11.5235 14.5339 11.5269 14.5236C11.5994 14.3994 11.6752 14.2752 11.758 14.1511C11.7718 14.1304 11.7856 14.1132 11.7994 14.0925C11.8718 13.9821 11.9477 13.8718 12.027 13.7614C12.0546 13.7235 12.0821 13.689 12.1097 13.6511C12.1787 13.5614 12.2442 13.4683 12.3167 13.3786C12.3649 13.3166 12.4167 13.2579 12.4684 13.1993C12.5236 13.1338 12.5753 13.0683 12.6305 13.0062C12.7408 12.882 12.8512 12.7613 12.9684 12.6441C13.0857 12.5268 13.2029 12.4096 13.3236 12.2992C13.3857 12.2406 13.4512 12.1854 13.5167 12.1303C13.5754 12.0785 13.6306 12.0268 13.6892 11.9785C13.7788 11.9026 13.8685 11.8337 13.9582 11.7613C13.9926 11.7337 14.0271 11.7061 14.0616 11.6785C14.1685 11.5992 14.2754 11.5199 14.3858 11.444C14.4065 11.4302 14.4237 11.4164 14.4444 11.4026C14.5651 11.3198 14.6893 11.2405 14.8134 11.1612C14.8203 11.1578 14.8307 11.1509 14.8376 11.1474C14.9686 11.0646 15.1031 10.9888 15.2376 10.9129C15.2376 10.9129 15.2376 10.9129 15.241 10.9129C15.5135 10.7612 15.7893 10.6267 16.0721 10.5025L15.9238 10.2991C15.848 10.3336 15.7721 10.368 15.6997 10.4025L15.7031 10.406C15.3031 10.5956 14.9203 10.8095 14.5513 11.0474C14.5341 11.0577 14.5203 11.0681 14.503 11.0784C14.3996 11.144 14.2996 11.2129 14.1996 11.2854C14.1616 11.3129 14.1271 11.3371 14.0892 11.3647C14.0064 11.4233 13.9237 11.4854 13.8409 11.5474C13.7892 11.5888 13.734 11.6302 13.6823 11.675C13.6168 11.7268 13.5512 11.7819 13.4857 11.8371C13.4167 11.8957 13.3478 11.9578 13.2788 12.0199C13.2305 12.0613 13.1822 12.1027 13.1374 12.1475C13.0236 12.2544 12.9098 12.3648 12.796 12.4786C12.6856 12.5924 12.5753 12.7096 12.4718 12.8268C12.4304 12.8717 12.3925 12.92 12.3511 12.9682C12.2891 13.0407 12.2304 13.1096 12.1684 13.1821C12.1166 13.2476 12.0649 13.3131 12.0132 13.3821C11.9718 13.4373 11.9304 13.489 11.889 13.5442C11.827 13.6269 11.7683 13.7131 11.7097 13.7959C11.6856 13.8304 11.6614 13.8683 11.6338 13.9028C11.5649 14.0063 11.4993 14.1097 11.4338 14.2166C11.4235 14.2304 11.4166 14.2442 11.4062 14.2615C11.1786 14.6373 10.9717 15.027 10.7924 15.4305L10.7889 15.4271C10.7545 15.5029 10.7234 15.5788 10.6924 15.6547L10.8993 15.7995Z" fill="white"/>
<path d="M30.5893 34.0532C30.4824 34.1325 30.3721 34.2119 30.2617 34.2877C30.3755 34.2119 30.4824 34.1325 30.5893 34.0532Z" fill="white"/>
<path d="M27.1963 25.8418C27.086 25.9659 26.9756 26.0866 26.8584 26.2073C26.9722 26.0866 27.086 25.9659 27.1963 25.8418Z" fill="white"/>
<path d="M28.0767 24.6694C28.0387 24.7281 28.0008 24.7832 27.9629 24.8384C28.0043 24.7798 28.0422 24.7246 28.0767 24.6694Z" fill="white"/>
<path d="M28.5616 23.811C28.5237 23.8904 28.4789 23.9662 28.4375 24.0455C28.4823 23.9662 28.5237 23.8904 28.5616 23.811Z" fill="white"/>
<path d="M26.5047 26.5488C26.4969 26.5566 26.4931 26.5604 26.4854 26.5643C26.4931 26.5604 26.5008 26.5566 26.5047 26.5488Z" fill="white"/>
<path d="M33.4384 31.4697C33.2625 31.6663 33.0866 31.8594 32.9004 32.0491C33.0832 31.8629 33.2625 31.6663 33.4384 31.4697Z" fill="white"/>
<path d="M35.1067 29.2803C34.8101 29.7389 34.4894 30.1907 34.1445 30.6252C34.4859 30.1907 34.8066 29.7424 35.1067 29.2803Z" fill="white"/>
<path d="M32.169 32.7563C32.0725 32.846 31.9794 32.9322 31.8828 33.0184C31.9794 32.9357 32.0725 32.846 32.169 32.7563Z" fill="white"/>
<path d="M31.6446 33.2219C31.5481 33.3047 31.455 33.384 31.3584 33.4633C31.455 33.384 31.5515 33.3012 31.6446 33.2219Z" fill="white"/>
<path d="M35.5594 28.5386C35.4421 28.7386 35.3214 28.9386 35.1973 29.1352C35.3214 28.9386 35.4421 28.742 35.5594 28.5386Z" fill="white"/>
<path d="M36.0595 27.625L36.156 27.4353L36.1491 27.4319C35.987 27.7629 35.8146 28.094 35.6318 28.4182C35.7801 28.1561 35.925 27.894 36.0595 27.625Z" fill="white"/>
<path d="M32.7449 32.2043C32.6276 32.3216 32.5103 32.4423 32.3896 32.5561C32.5069 32.4423 32.6276 32.325 32.7449 32.2043Z" fill="white"/>
<path d="M28.4863 35.3807L28.6726 35.2773C28.7657 35.2256 28.8588 35.1704 28.9519 35.1187C28.7967 35.2083 28.6415 35.2945 28.4863 35.3807Z" fill="white"/>
<path d="M30.0515 34.4324C29.9308 34.5117 29.8136 34.5945 29.6895 34.6703C29.8136 34.591 29.9343 34.5117 30.0515 34.4324Z" fill="white"/>
<path d="M34.2871 29.625C34.2663 29.6528 34.2454 29.684 34.2246 29.7118C34.2454 29.684 34.2663 29.6562 34.2871 29.625Z" fill="white"/>
<path d="M28.2656 25.2627C28.3311 25.1696 28.3967 25.0731 28.4587 24.98C28.3932 25.0731 28.3311 25.1662 28.2656 25.2627Z" fill="white"/>
<path d="M32.5238 31.7389C32.5307 31.732 32.5376 31.7215 32.5481 31.7146C32.5411 31.7215 32.5342 31.732 32.5238 31.7389Z" fill="white"/>
<path d="M28.8135 24.373C28.8583 24.2936 28.8997 24.2143 28.9445 24.135C28.9031 24.2143 28.8583 24.2936 28.8135 24.373Z" fill="white"/>
<path d="M28.5479 24.8281C28.603 24.7384 28.6582 24.6522 28.7099 24.5591C28.6582 24.6487 28.603 24.7384 28.5479 24.8281Z" fill="white"/>
<path d="M27.207 26.5453C27.3243 26.4246 27.4415 26.3004 27.5519 26.1729C27.4381 26.3004 27.3243 26.4246 27.207 26.5453Z" fill="white"/>
<path d="M26.0518 27.5591C26.238 27.4177 26.4208 27.2694 26.5966 27.1177C26.4208 27.2729 26.238 27.4177 26.0518 27.5591Z" fill="white"/>
<path d="M24.7441 28.3937C25.1752 28.1626 25.589 27.9005 25.9856 27.6074C25.5856 27.904 25.1718 28.1661 24.7441 28.3937Z" fill="white"/>
<path d="M30.5799 33.4597C30.5316 33.4977 30.4799 33.5356 30.4316 33.5701C30.4799 33.5321 30.5282 33.4977 30.5799 33.4597Z" fill="white"/>
<path d="M29.891 33.9534C29.8494 33.9811 29.8112 34.0089 29.7695 34.0367C29.8112 34.0089 29.8528 33.9811 29.891 33.9534Z" fill="white"/>
<path d="M29.0874 34.4736C29.0765 34.4809 29.0656 34.4845 29.0547 34.4918C29.0656 34.4882 29.0765 34.4809 29.0874 34.4736Z" fill="white"/>
<path d="M28.9858 22.8347C28.9754 22.8623 28.9651 22.8864 28.9547 22.914C28.9202 23.0037 28.8858 23.0933 28.8478 23.183C28.8237 23.2451 28.7961 23.3037 28.7719 23.3658C28.734 23.452 28.6926 23.5416 28.6513 23.6279C28.6237 23.6899 28.5926 23.752 28.5616 23.8141C28.5237 23.8934 28.4823 23.9693 28.4409 24.0451C28.4064 24.1141 28.3685 24.1831 28.3305 24.2486C28.2926 24.3141 28.2512 24.3796 28.2133 24.4452C28.1685 24.521 28.1236 24.5935 28.0788 24.6693C28.0443 24.7279 28.0029 24.7831 27.965 24.8383C27.9133 24.9176 27.8581 24.9969 27.8029 25.0763C27.765 25.128 27.727 25.1797 27.6891 25.228C27.6305 25.3073 27.5719 25.3901 27.5098 25.4659C27.465 25.5246 27.4132 25.5797 27.3649 25.6384C27.3098 25.7073 27.2511 25.7763 27.1925 25.8418C27.0822 25.966 26.9718 26.0867 26.8546 26.2074C26.7408 26.3246 26.6235 26.4384 26.5028 26.5488C26.4959 26.5522 26.4925 26.5591 26.4856 26.5626C25.6682 27.3178 24.7406 27.9144 23.7164 28.3455L23.4336 28.4627L23.5784 28.6593C23.6577 28.6283 23.7336 28.6007 23.8129 28.5662C24.5475 28.2593 25.251 27.8558 25.9062 27.3626C25.92 27.3523 25.9303 27.3454 25.9407 27.335C26.0614 27.2454 26.1786 27.1523 26.2924 27.0557C26.3407 27.0143 26.389 26.9695 26.4373 26.9281C26.5131 26.8626 26.5925 26.7936 26.6683 26.7247C26.7925 26.6109 26.9132 26.4936 27.0304 26.3729C27.1511 26.2488 27.2718 26.1212 27.3856 25.9901C27.4132 25.9591 27.4374 25.928 27.465 25.897C27.5512 25.797 27.6374 25.6935 27.7201 25.5901C27.7443 25.559 27.7684 25.528 27.7891 25.497C27.8719 25.3901 27.9512 25.2832 28.0271 25.1728C28.0443 25.1487 28.0615 25.1211 28.0788 25.0969C28.1581 24.9797 28.2374 24.8625 28.3133 24.7418C28.3236 24.7245 28.334 24.7038 28.3478 24.6866C28.4271 24.559 28.503 24.4279 28.5788 24.2969C28.5857 24.2865 28.5892 24.2762 28.5961 24.2658C28.6719 24.1279 28.7478 23.9865 28.8168 23.8451C28.8202 23.8417 28.8202 23.8348 28.8237 23.8313C28.8961 23.683 28.9651 23.5313 29.0306 23.3796C29.0961 23.2244 29.1582 23.0692 29.2168 22.9106C29.2478 22.8313 29.2754 22.7519 29.303 22.676L29.0961 22.5347L28.9858 22.8347Z" fill="white"/>
<path d="M35.8448 27.5146C35.8414 27.5215 35.8379 27.525 35.8345 27.5319C35.8 27.6008 35.762 27.6664 35.7275 27.7353C35.6413 27.9009 35.5551 28.0629 35.462 28.225C35.4137 28.3112 35.362 28.4009 35.3103 28.4871C35.2206 28.6389 35.1309 28.7871 35.0378 28.9354C34.9896 29.0147 34.9413 29.0906 34.8896 29.1699C34.7482 29.3872 34.6033 29.601 34.4516 29.8148C34.424 29.8527 34.3964 29.8872 34.3723 29.9252C34.2412 30.1079 34.1033 30.2873 33.9653 30.4631C33.9102 30.5321 33.855 30.6011 33.7998 30.6701C33.6791 30.8218 33.5515 30.9701 33.4239 31.1184C33.3687 31.1804 33.3136 31.246 33.2584 31.308C33.0756 31.5115 32.8928 31.7115 32.6997 31.9115C32.5101 32.1081 32.3135 32.2943 32.1169 32.4805C32.0583 32.5357 31.9962 32.5909 31.9376 32.6461C31.7893 32.7806 31.641 32.9116 31.4893 33.0392C31.4272 33.0909 31.3686 33.1427 31.3065 33.1944C31.1065 33.3599 30.9065 33.5186 30.6996 33.6772C30.6444 33.7186 30.5892 33.7565 30.534 33.7979C30.3788 33.9117 30.2202 34.0255 30.0616 34.1359C29.9788 34.1945 29.8926 34.2497 29.8098 34.3048C29.6684 34.4014 29.5236 34.491 29.3788 34.5842C29.2995 34.6324 29.2201 34.6842 29.1443 34.7324C28.9512 34.8497 28.758 34.96 28.5615 35.0704C28.489 35.1083 28.4166 35.1497 28.3477 35.1877L28.4925 35.3842C28.6477 35.3015 28.8063 35.2118 28.958 35.1256C29.0063 35.098 29.0581 35.067 29.1063 35.0394C29.2408 34.9601 29.3753 34.8773 29.5098 34.7945C29.5719 34.7566 29.634 34.7187 29.696 34.6773C29.8167 34.598 29.9374 34.5186 30.0547 34.4393C30.1271 34.391 30.1961 34.3428 30.2685 34.2945C30.3789 34.2186 30.4858 34.1393 30.5927 34.06C30.6685 34.0048 30.7478 33.9496 30.8237 33.891C30.9237 33.8151 31.0237 33.7358 31.1237 33.6565C31.2031 33.5944 31.2824 33.5324 31.3617 33.4668C31.4582 33.3875 31.5514 33.3082 31.6479 33.2254C31.7272 33.1599 31.8066 33.0944 31.8824 33.0254C31.979 32.9392 32.0755 32.8495 32.1687 32.7633C32.2411 32.6943 32.3169 32.6288 32.3859 32.5633C32.5066 32.4495 32.6239 32.3323 32.7411 32.2116C32.7825 32.1702 32.8273 32.1288 32.8722 32.084C32.8791 32.0736 32.8894 32.0667 32.8963 32.0564C33.0825 31.8667 33.2584 31.6736 33.4343 31.477C33.4929 31.4115 33.5481 31.3494 33.6032 31.2839C33.7343 31.1322 33.8653 30.977 33.9895 30.8218C34.0412 30.7597 34.0929 30.6976 34.1412 30.6321C34.4861 30.1941 34.8068 29.7458 35.1034 29.2872C35.1344 29.2389 35.1654 29.1906 35.193 29.1423C35.3172 28.9458 35.4379 28.7458 35.5551 28.5457C35.5793 28.5044 35.6034 28.463 35.6275 28.4216C35.8103 28.0974 35.9827 27.7664 36.1448 27.4353L35.9448 27.2974C35.9138 27.3663 35.8793 27.4422 35.8448 27.5146Z" fill="white"/>
<path d="M35.6377 27.3728L35.8411 27.5142C35.8791 27.4418 35.9101 27.3659 35.9481 27.2935L35.7446 27.1521C35.7067 27.2245 35.6756 27.2969 35.6377 27.3728Z" fill="white"/>
<path d="M33.4243 31.1147C33.3691 31.1768 33.314 31.2423 33.2588 31.3044C33.3174 31.2423 33.3691 31.1768 33.4243 31.1147Z" fill="white"/>
<path d="M28.0784 25.1003C28.0611 25.1246 28.0437 25.1524 28.0264 25.1767C28.0437 25.1524 28.0611 25.1281 28.0784 25.1003Z" fill="white"/>
<path d="M30.6997 33.6733C30.6445 33.7147 30.5894 33.7561 30.5342 33.7941C30.5859 33.7527 30.6445 33.7147 30.6997 33.6733Z" fill="white"/>
<path d="M28.8246 23.8347C28.8205 23.8388 28.8205 23.847 28.8164 23.8511C28.8164 23.847 28.8205 23.8429 28.8246 23.8347Z" fill="white"/>
<path d="M30.0613 34.1326C29.9785 34.1912 29.8923 34.2464 29.8096 34.3015C29.8923 34.2464 29.9751 34.1912 30.0613 34.1326Z" fill="white"/>
<path d="M32.1139 32.4771C32.0553 32.5322 31.9932 32.5874 31.9346 32.6426C31.9966 32.5874 32.0553 32.5322 32.1139 32.4771Z" fill="white"/>
<path d="M31.4865 33.0359C31.4244 33.0876 31.3658 33.1393 31.3037 33.1911C31.3658 33.1428 31.4278 33.0876 31.4865 33.0359Z" fill="white"/>
<path d="M28.3482 24.6936C28.3378 24.711 28.3274 24.7318 28.3135 24.7491C28.3274 24.7283 28.3378 24.711 28.3482 24.6936Z" fill="white"/>
<path d="M23.5791 28.6629L23.7239 28.8595C23.7998 28.8285 23.8791 28.8009 23.9584 28.7664L23.8136 28.5698C23.7343 28.6043 23.6584 28.6319 23.5791 28.6629Z" fill="white"/>
<path d="M28.5973 24.2729C28.59 24.2839 28.5864 24.2948 28.5791 24.3057C28.5827 24.2948 28.59 24.2839 28.5973 24.2729Z" fill="white"/>
<path d="M28.4106 34.8633C28.3382 34.9012 28.2658 34.9392 28.1934 34.9771L28.3416 35.1771C28.4141 35.1392 28.4865 35.0978 28.5555 35.0599L28.4106 34.8633Z" fill="white"/>
<path d="M29.2129 22.9172L29.4163 23.0586C29.4474 22.9792 29.475 22.8999 29.5026 22.8206L29.2991 22.6792C29.275 22.762 29.2439 22.8378 29.2129 22.9172Z" fill="white"/>
<path d="M29.3747 34.5806C29.2954 34.6288 29.216 34.6806 29.1367 34.7289C29.2195 34.6806 29.2954 34.6288 29.3747 34.5806Z" fill="white"/>
<path d="M35.4623 28.2249C35.414 28.3111 35.3623 28.4007 35.3105 28.4869C35.3623 28.4007 35.4106 28.3145 35.4623 28.2249Z" fill="white"/>
<path d="M25.941 27.3384C25.9271 27.3488 25.9167 27.3592 25.9062 27.3662C25.9167 27.3592 25.9305 27.3488 25.941 27.3384Z" fill="white"/>
<path d="M34.4525 29.8113C34.4247 29.8495 34.3969 29.8842 34.3691 29.9224C34.4004 29.8842 34.4282 29.8495 34.4525 29.8113Z" fill="white"/>
<path d="M26.4368 26.9316C26.3885 26.973 26.3403 27.0179 26.292 27.0592C26.3437 27.0179 26.3885 26.973 26.4368 26.9316Z" fill="white"/>
<path d="M27.4617 25.9009C27.4339 25.9321 27.4096 25.9634 27.3818 25.9946C27.4096 25.9634 27.4374 25.9321 27.4617 25.9009Z" fill="white"/>
<path d="M28.8164 23.8486C28.7474 23.99 28.6716 24.1314 28.5957 24.2694C28.6716 24.1314 28.744 23.99 28.8164 23.8486Z" fill="white"/>
<path d="M26.2932 27.0593C26.1759 27.1559 26.0587 27.249 25.9414 27.3387C26.0621 27.249 26.1794 27.1559 26.2932 27.0593Z" fill="white"/>
<path d="M28.3136 24.749C28.2377 24.8697 28.1584 24.987 28.0791 25.1042C28.1619 24.987 28.2377 24.8663 28.3136 24.749Z" fill="white"/>
<path d="M27.3855 25.9939C27.2717 26.1249 27.1544 26.2525 27.0303 26.3767C27.151 26.2525 27.2717 26.1249 27.3855 25.9939Z" fill="white"/>
<path d="M28.5787 24.3037C28.5063 24.4348 28.427 24.5658 28.3477 24.6934C28.427 24.5658 28.5028 24.4348 28.5787 24.3037Z" fill="white"/>
<path d="M28.0266 25.1797C27.9507 25.29 27.8679 25.3969 27.7852 25.5039C27.8679 25.3935 27.9507 25.2866 28.0266 25.1797Z" fill="white"/>
<path d="M27.7161 25.5935C27.6334 25.697 27.5472 25.797 27.4609 25.9004C27.5472 25.8004 27.6334 25.697 27.7161 25.5935Z" fill="white"/>
<path d="M34.8901 29.1697C34.7487 29.3869 34.6039 29.6007 34.4521 29.8146C34.6039 29.6007 34.7487 29.3835 34.8901 29.1697Z" fill="white"/>
<path d="M29.0311 23.3867C28.9656 23.5385 28.8966 23.6902 28.8242 23.8385C28.8966 23.6867 28.9656 23.5385 29.0311 23.3867Z" fill="white"/>
<path d="M32.7 31.9082C32.5103 32.1048 32.3138 32.291 32.1172 32.4772C32.3138 32.291 32.5069 32.1048 32.7 31.9082Z" fill="white"/>
<path d="M34.3718 29.9219C34.2407 30.1046 34.1028 30.284 33.9648 30.4598C34.1028 30.284 34.2407 30.1012 34.3718 29.9219Z" fill="white"/>
<path d="M35.7274 27.7351C35.6412 27.9006 35.555 28.0627 35.4619 28.2248C35.5516 28.0627 35.6412 27.9006 35.7274 27.7351Z" fill="white"/>
<path d="M33.2589 31.3047C33.0761 31.5082 32.8933 31.7082 32.7002 31.9082C32.8933 31.7082 33.0795 31.5082 33.2589 31.3047Z" fill="white"/>
<path d="M28.5547 35.0633C28.7513 34.9564 28.9444 34.8426 29.1375 34.7253C28.9478 34.8426 28.7513 34.9564 28.5547 35.0633Z" fill="white"/>
<path d="M29.0311 23.3865C28.9656 23.5383 28.8967 23.69 28.8242 23.8383C28.8208 23.8417 28.8208 23.8452 28.8173 23.8521C28.7484 23.9935 28.6725 24.1349 28.5966 24.2728C28.5897 24.2831 28.5863 24.2935 28.5794 24.3038C28.507 24.4349 28.4311 24.5659 28.3483 24.6935C28.338 24.7108 28.3276 24.7315 28.3138 24.7487C28.238 24.8694 28.1587 24.9867 28.0793 25.1039C28.0621 25.128 28.0449 25.1556 28.0276 25.1798C27.9518 25.2901 27.869 25.397 27.7862 25.5039C27.7621 25.535 27.7414 25.566 27.7172 25.597C27.6345 25.7005 27.5517 25.8005 27.4655 25.904C27.4379 25.935 27.4138 25.966 27.3862 25.9971C27.2724 26.1281 27.1551 26.2557 27.031 26.3799C26.9137 26.5006 26.793 26.6178 26.6689 26.7316C26.593 26.8006 26.5171 26.8661 26.4378 26.9351C26.3895 26.9765 26.3413 27.0213 26.293 27.0627C26.1757 27.1592 26.0585 27.2524 25.9412 27.342C25.9309 27.3524 25.9171 27.3593 25.9068 27.3696C25.2515 27.8628 24.548 28.2662 23.8135 28.5766L23.9583 28.7732C24.217 28.6628 24.4722 28.5456 24.7204 28.4111C24.7273 28.4076 24.7377 28.4042 24.7446 28.3973C25.1722 28.1697 25.586 27.9076 25.9861 27.611C26.0102 27.5938 26.0309 27.5765 26.055 27.5593C26.2413 27.4179 26.424 27.273 26.5999 27.1178C26.6275 27.0937 26.6551 27.0696 26.6792 27.0454C26.8585 26.8868 27.0344 26.7213 27.2069 26.5454C27.3241 26.4247 27.4414 26.3005 27.5517 26.1729C27.5793 26.1419 27.6034 26.1109 27.631 26.0799C27.7138 25.9833 27.7966 25.8867 27.8759 25.7867C27.9035 25.7522 27.9311 25.7143 27.9586 25.6764C28.0311 25.5798 28.1069 25.4832 28.1759 25.3867C28.2069 25.3453 28.2345 25.3039 28.2621 25.2625C28.3276 25.1694 28.3932 25.0729 28.4552 24.9798C28.4863 24.9315 28.5173 24.8798 28.5484 24.828C28.6035 24.7384 28.6587 24.6521 28.7104 24.559C28.7449 24.497 28.7794 24.4349 28.8139 24.3728C28.8587 24.2935 28.9035 24.2142 28.9449 24.1349C28.9829 24.059 29.0208 23.9831 29.0553 23.9072C29.0898 23.8383 29.1242 23.7693 29.1553 23.6969C29.1932 23.6141 29.2277 23.5279 29.2656 23.4417C29.3208 23.3141 29.3725 23.1865 29.4208 23.0555L29.2174 22.9141C29.1587 23.0761 29.0967 23.2313 29.0311 23.3865Z" fill="white"/>
</svg>
