<svg width="48" height="48" fill="none" xmlns="http://www.w3.org/2000/svg"><path d="M41.84 4.76A31.44 31.44 0 0035 4a16.52 16.52 0 00-12 4.12 1437.357 1437.357 0 00-6.38 6.42c-2.42-.26-8.16-.4-12 3.48a2 2 0 000 2.82l22.6 22.64a2 2 0 002.82 0c3.9-4 3.78-9.64 3.54-12l6.42-6.4c6.38-6.38 3.48-18.36 3.36-18.86a2.001 2.001 0 00-1.52-1.46zm-4.72 17.5L30 29.34a2 2 0 00-.54 1.8 13.62 13.62 0 01-1.08 7.88L9.04 19.64a13.34 13.34 0 018-1 2 2 0 001.74-.64s2.8-2.9 7.02-7.12A13.22 13.22 0 0135 8a29.02 29.02 0 014.66.4c.48 2.86 1.24 10.08-2.54 13.86z" fill="#0E46A4"/><path d="M31.46 20.6a4 4 0 100-8 4 4 0 000 8zM10 32c-4 2-4 10-4 10a15.62 15.62 0 0010-4l-6-6z" fill="#0E46A4"/></svg>