<svg width="40" height="40" fill="none" xmlns="http://www.w3.org/2000/svg"><g clip-path="url(#clip0_461_38269)"><path d="M23.665 20.033L39.24 4.457a2.588 2.588 0 000-3.664 2.589 2.589 0 00-3.664 0L20 16.368 4.425.793a2.589 2.589 0 00-3.665 0 2.588 2.588 0 000 3.664l15.575 15.576L.76 35.608a2.588 2.588 0 00.84 4.227 2.585 2.585 0 002.824-.562L20 23.697l15.576 15.576a2.585 2.585 0 001.832.76c.663 0 1.327-.255 1.832-.76a2.588 2.588 0 000-3.665L23.664 20.034z" fill="#6C7FA4"/></g><defs><clipPath id="clip0_461_38269"><path fill="#fff" d="M0 0h40v40H0z"/></clipPath></defs></svg>