<svg width="30" height="30" fill="none" xmlns="http://www.w3.org/2000/svg"><path d="M24.921 10.85c-.014-.04-.025-.079-.041-.117a1.245 1.245 0 00-.245-.367l-7.5-7.5a1.247 1.247 0 00-.366-.245c-.038-.017-.078-.027-.118-.041a1.238 1.238 0 00-.323-.064c-.028-.002-.052-.016-.078-.016H7.5A2.503 2.503 0 005 5v20c0 1.379 1.121 2.5 2.5 2.5h15c1.379 0 2.5-1.121 2.5-2.5V11.25c0-.026-.014-.05-.016-.078a1.236 1.236 0 00-.063-.322zM20.733 10H17.5V6.768L20.733 10zM7.5 25V5H15v6.25a1.25 1.25 0 001.25 1.25h6.25l.003 12.5H7.5z" fill="#0E46A4"/></svg>