<svg width="48" height="48" fill="none" xmlns="http://www.w3.org/2000/svg"><path d="M39.806 17.172a1.994 1.994 0 00-.392-.586l-12-12a1.993 1.993 0 00-.586-.392c-.06-.028-.124-.044-.188-.066a1.982 1.982 0 00-.518-.102C26.08 4.022 26.042 4 26 4H12C9.794 4 8 5.794 8 8v32c0 2.206 1.794 4 4 4h24c2.206 0 4-1.794 4-4V18c0-.042-.022-.08-.026-.124a1.904 1.904 0 00-.102-.518c-.02-.064-.038-.126-.066-.186zM33.172 16H28v-5.172L33.172 16zM12 40V8h12v10a2 2 0 002 2h10l.004 20H12z" fill="#0E46A4"/><path d="M16 24h16v4H16v-4zm0 8h16v4H16v-4zm0-16h4v4h-4v-4z" fill="#0E46A4"/></svg>