<svg width="30" height="30" fill="none" xmlns="http://www.w3.org/2000/svg"><path d="M11.875 13.75a1.875 1.875 0 100-3.75 1.875 1.875 0 000 3.75zm6.25 0a1.875 1.875 0 100-3.75 1.875 1.875 0 000 3.75z" fill="#fff"/><path d="M15 2.5c-6.893 0-12.5 4.486-12.5 10 0 3.635 2.371 6.894 6.25 8.668V27.5l6.675-5.005C22.121 22.315 27.5 17.9 27.5 12.5c0-5.514-5.608-10-12.5-10zM15 20h-.416l-3.334 2.5v-3.021l-.801-.309C7.089 17.876 5 15.32 5 12.5 5 8.364 9.486 5 15 5s10 3.364 10 7.5S20.514 20 15 20z" fill="#fff"/></svg>