<svg width="40" height="40" fill="none" xmlns="http://www.w3.org/2000/svg"><path fill-rule="evenodd" clip-rule="evenodd" d="M20 0C8.954 0 0 8.954 0 20s8.954 20 20 20 20-8.954 20-20S31.046 0 20 0zm7.142 29.207c-.747.99-3.005 1.806-5.284 1.806-5.664 0-8.727-2.1-8.727-6.552v-5.576h-2.32a.096.096 0 01-.096-.096V14.26c0-.041.026-.078.065-.091l.254-.085c2.272-.764 3.48-2.356 3.804-5.01a1.104 1.104 0 011.077-.987H22.4c.052 0 .095.043.095.096v5.14c0 .053.043.096.095.096h3.698c.052 0 .095.043.095.095v5.274a.096.096 0 01-.095.096h-3.713a.096.096 0 00-.096.095v5.155c.004.212.026.384.062.525.011.041.05.069.093.069h3.155c.041 0 .078.026.09.065l1.413 4.214-.15.199z" fill="#2B313C"/><path d="M25.806 28.788c-.692.681-2.11 1.187-3.47 1.21-.052.002-.102.002-.153.002-4.474 0-5.668-3.498-5.668-5.564v-6.351a.094.094 0 00-.092-.095H14.26a.094.094 0 01-.093-.095v-2.893c0-.039.024-.073.059-.087 2.312-.922 3.603-2.754 3.943-5.587.018-.157.145-.161.147-.161h2.887c.051 0 .093.042.093.095v5.084c0 .053.041.095.092.095h3.595c.051 0 .093.043.093.095v3.36a.094.094 0 01-.093.094h-3.61a.094.094 0 00-.093.095v6.035c.022 1.36.664 2.048 1.91 2.048.5 0 1.076-.12 1.6-.325a.09.09 0 01.12.058l.918 2.788a.097.097 0 01-.022.1z" fill="#2B313C"/><path d="M15.833 20.833h-2.5v-1.666h2.419c.044 0 .081.042.081.094v1.572z" fill="#2B313C"/></svg>