<svg width="40" height="40" viewBox="0 0 32 33" fill="none" xmlns="http://www.w3.org/2000/svg"><g clip-path="url(#clip0_7813_25233)"><path d="M16 .5C7.165.5 0 7.665 0 16.5s7.165 16 16 16 16-7.165 16-16-7.165-16-16-16zm8.027 12.242v2.166a7.542 7.542 0 01-4.626-1.572l.015 6.669a5.586 5.586 0 01-1.675 3.975 5.702 5.702 0 01-3.186 1.593 5.856 5.856 0 01-.86.063 5.721 5.721 0 01-4.046-1.656 5.59 5.59 0 01-1.665-4.355 5.597 5.597 0 011.412-3.376 5.721 5.721 0 014.299-1.923c.29 0 .578.022.86.064v3.03a2.703 2.703 0 00-3.557 2.603 2.7 2.7 0 001.32 2.275 2.69 2.69 0 002.237.246 2.7 2.7 0 001.855-2.562l.004-4.466V7.364h2.983a4.615 4.615 0 004.62 4.575h.01v.803z" fill="#2B313C"/></g><defs><clipPath id="clip0_7813_25233"><path fill="#fff" transform="translate(0 .5)" d="M0 0h32v32H0z"/></clipPath></defs></svg>