<svg width="24" height="24" fill="none" xmlns="http://www.w3.org/2000/svg"><path fill-rule="evenodd" clip-rule="evenodd" d="M12 0C5.373 0 0 5.373 0 12s5.373 12 12 12 12-5.373 12-12S18.627 0 12 0zm4.285 17.524c-.448.594-1.803 1.084-3.17 1.084-3.399 0-5.237-1.26-5.237-3.931V11.33H6.486a.057.057 0 01-.057-.058V8.557c0-.025.016-.047.04-.055l.151-.051c1.363-.459 2.089-1.414 2.283-3.006a.662.662 0 01.646-.592h3.89c.032 0 .057.026.057.057v3.084c0 .032.026.058.058.058h2.218c.031 0 .057.026.057.057v3.164a.057.057 0 01-.057.058h-2.228a.057.057 0 00-.057.057v3.093c.002.127.015.23.037.315.007.025.03.041.056.041h1.893c.025 0 .046.016.054.04l.848 2.528-.09.119z" fill="#fff"/><path d="M15.483 17.273c-.415.409-1.266.712-2.082.726L13.31 18c-2.685 0-3.4-2.099-3.4-3.339v-3.81a.056.056 0 00-.057-.057H8.556a.056.056 0 01-.056-.057V9.001c0-.023.014-.044.035-.052 1.388-.553 2.162-1.652 2.366-3.352.011-.094.087-.097.088-.097h1.733c.03 0 .055.025.055.057v3.05c0 .032.025.058.056.058h2.156c.031 0 .056.025.056.057v2.015a.056.056 0 01-.056.057h-2.165a.056.056 0 00-.056.057v3.621c.013.816.398 1.229 1.145 1.229.301 0 .646-.072.961-.195a.055.055 0 01.072.034l.55 1.673a.058.058 0 01-.013.06z" fill="#fff"/><path d="M9.5 12.5H8v-1h1.451c.027 0 .049.025.049.056v.944z" fill="#fff"/></svg>