<svg width="30" height="30" fill="none" xmlns="http://www.w3.org/2000/svg"><path d="M20.755 13.81a7.088 7.088 0 00.939-4.3c-.224-2.23-1.469-4.201-3.504-5.55l-1.381 2.082c1.398.928 2.25 2.25 2.397 3.718a4.616 4.616 0 01-1.34 3.732l-1.49 1.49 2.023.594c5.29 1.55 5.351 6.87 5.351 6.924h2.5c0-2.236-1.195-6.606-5.495-8.69z" fill="#0E46A4"/><path d="M11.875 15c2.758 0 5-2.242 5-5s-2.242-5-5-5-5 2.242-5 5 2.242 5 5 5zm0-7.5c1.379 0 2.5 1.121 2.5 2.5s-1.121 2.5-2.5 2.5a2.503 2.503 0 01-2.5-2.5c0-1.379 1.121-2.5 2.5-2.5zm1.875 8.75H10c-4.136 0-7.5 3.364-7.5 7.5V25H5v-1.25c0-2.758 2.242-5 5-5h3.75c2.758 0 5 2.242 5 5V25h2.5v-1.25c0-4.136-3.364-7.5-7.5-7.5z" fill="#0E46A4"/></svg>