<svg width="24" height="24" fill="none" xmlns="http://www.w3.org/2000/svg"><path fill-rule="evenodd" clip-rule="evenodd" d="M12 0C5.373 0 0 5.373 0 12s5.373 12 12 12 12-5.373 12-12S18.627 0 12 0zm5 7.875c.551.15.985.596 1.132 1.162.268 1.025.268 3.163.268 3.163s0 2.139-.268 3.164A1.625 1.625 0 0117 16.526c-.998.274-5 .274-5 .274s-4.003 0-5.001-.274a1.625 1.625 0 01-1.132-1.162C5.6 14.338 5.6 12.2 5.6 12.2s0-2.138.267-3.163a1.624 1.624 0 011.132-1.162c.998-.275 5-.275 5-.275s4.003 0 5.001.275z" fill="#fff"/><path d="M10.8 14.4v-4l3.2 2-3.2 2z" fill="#fff"/></svg>