<svg width="40" height="40" fill="none" xmlns="http://www.w3.org/2000/svg"><path fill-rule="evenodd" clip-rule="evenodd" d="M20 0C8.954 0 0 8.954 0 20s8.954 20 20 20 20-8.954 20-20S31.046 0 20 0zm8.334 13.124a2.712 2.712 0 011.887 1.937c.445 1.708.445 5.272.445 5.272s0 3.564-.445 5.273a2.709 2.709 0 01-1.887 1.936C26.671 28 20 28 20 28s-6.671 0-8.335-.458a2.709 2.709 0 01-1.886-1.936c-.446-1.709-.446-5.273-.446-5.273s0-3.564.446-5.272a2.708 2.708 0 011.886-1.937c1.664-.457 8.335-.457 8.335-.457s6.67 0 8.334.457z" fill="#2B313C"/><path d="M18 24v-6.667l5.333 3.334L18 24z" fill="#2B313C"/></svg>